<?xml version="1.0" standalone="no"?>
<!DOCTYPE svg PUBLIC "-//W3C//DTD SVG 20010904//EN"
 "http://www.w3.org/TR/2001/REC-SVG-20010904/DTD/svg10.dtd">
<svg version="1.0" xmlns="http://www.w3.org/2000/svg"
 width="585.000000pt" height="328.000000pt" viewBox="0 0 585.000000 328.000000"
 preserveAspectRatio="xMidYMid meet">
<metadata>
Created by potrace 1.16, written by Peter Selinger 2001-2019
</metadata>
<g transform="translate(0.000000,328.000000) scale(0.100000,-0.100000)"
fill="#000000" stroke="none">
<path d="M10 3265 c9 -11 9 -15 1 -15 -9 0 -12 -21 -10 -67 3 -82 7 -96 26
-89 8 4 11 1 8 -5 -4 -6 -13 -8 -21 -5 -10 4 -14 -3 -14 -22 0 -32 16 -60 27
-49 4 5 1 12 -6 16 -8 5 -9 11 -3 15 11 7 25 -21 16 -35 -3 -5 -12 -9 -20 -9
-8 0 -14 -9 -14 -20 0 -11 2 -20 5 -20 2 0 43 38 91 85 78 76 87 83 101 69 14
-14 8 -23 -66 -96 l-82 -80 23 -19 c19 -17 20 -22 8 -29 -8 -6 -19 -10 -25
-10 -5 0 -3 5 5 10 13 8 12 10 -3 10 -10 0 -15 5 -12 10 8 13 -5 13 -25 0 -12
-7 -9 -15 18 -41 18 -18 30 -34 27 -38 -3 -3 -11 1 -16 9 -8 11 -12 12 -16 3
-2 -7 -11 -13 -19 -13 -8 0 -14 -4 -14 -10 0 -5 6 -10 14 -10 8 0 21 -9 29
-21 l15 -20 20 21 c17 18 23 20 40 9 20 -12 19 -13 -11 -51 -34 -40 -60 -48
-75 -22 -5 10 -14 14 -21 9 -9 -5 -12 -45 -10 -140 3 -112 5 -132 18 -127 9 3
12 1 7 -6 -4 -7 -2 -12 3 -12 17 0 13 18 -7 29 -19 12 -12 14 12 5 20 -8 21
-28 1 -44 -10 -9 -15 -9 -15 -1 0 6 -4 11 -10 11 -6 0 -9 -150 -10 -395 l0
-395 207 0 c115 -1 318 -5 453 -10 l245 -9 22 27 c18 23 24 25 35 13 11 -12
10 -13 -3 -8 -11 4 -20 -3 -28 -19 -6 -13 -15 -24 -20 -24 -5 0 -21 -21 -35
-46 -20 -35 -26 -61 -26 -104 0 -42 -4 -59 -15 -64 -21 -8 -20 -214 1 -271 10
-29 12 -61 8 -117 l-6 -77 33 -20 c19 -12 54 -28 79 -37 25 -9 53 -20 63 -25
10 -5 22 -7 28 -3 6 3 18 -1 28 -10 10 -9 35 -17 55 -18 20 -1 41 -7 47 -15 9
-10 5 -12 -22 -8 -31 5 -32 5 -10 -5 14 -6 31 -8 38 -6 7 3 29 -6 49 -19 l36
-24 -29 1 c-15 1 -64 -4 -108 -11 -118 -18 -145 -20 -145 -10 0 5 5 9 10 9 36
0 206 23 212 28 4 4 -30 4 -75 1 -45 -3 -86 -2 -92 3 -5 4 6 8 24 8 19 0 30 4
26 10 -4 6 -21 8 -39 5 -23 -5 -36 -2 -45 9 -7 8 -29 18 -50 22 -20 4 -40 10
-46 13 -20 14 -222 12 -345 -3 -69 -8 -186 -17 -260 -21 -74 -3 -139 -10 -144
-15 -7 -7 -4 -10 7 -10 15 0 15 -2 -2 -19 -11 -11 -41 -21 -76 -26 -91 -11
-85 3 -85 -180 l0 -163 103 -5 c171 -8 1031 0 1222 11 99 6 274 16 389 22 115
6 264 18 330 26 67 8 198 21 291 29 291 25 496 45 605 61 101 15 106 17 167
65 34 27 68 49 74 49 13 0 367 68 839 161 257 51 337 62 510 74 113 8 227 18
254 21 96 14 163 92 189 221 12 58 15 63 75 108 66 50 82 70 82 105 0 24 -12
25 365 -10 110 -10 235 -22 278 -26 l77 -6 0 380 c0 375 0 380 -20 375 -14 -4
-35 9 -75 48 -60 58 -67 77 -33 98 20 12 23 12 33 -5 5 -10 25 -33 44 -51 25
-24 37 -30 43 -20 12 19 9 25 -11 20 -20 -5 -60 39 -41 45 5 2 10 8 10 14 0 6
-6 6 -15 -2 -12 -10 -16 -9 -21 4 -3 9 -14 16 -24 16 -9 0 -25 9 -35 20 -17
19 -19 18 -109 -73 l-91 -92 40 -42 c23 -24 46 -43 51 -43 15 0 44 -34 44 -52
0 -8 -11 -20 -23 -25 -20 -9 -26 -7 -42 13 -21 28 -33 30 -50 8 -10 -14 -15
-14 -34 -4 -21 11 -21 13 -7 29 23 25 21 32 -24 79 -38 41 -40 42 -52 22 -18
-29 -32 -25 -80 20 -41 38 -42 39 -23 60 22 24 34 25 50 3 15 -21 50 -10 41
13 -4 12 -2 15 9 11 8 -4 21 3 30 16 13 19 13 22 0 30 -8 4 -20 5 -25 2 -6 -3
-10 0 -10 9 0 8 6 16 13 19 8 3 5 12 -11 29 l-23 26 28 21 c29 23 28 24 -21
52 -15 9 -23 7 -39 -10 -21 -20 -21 -21 -1 -42 10 -13 13 -19 7 -15 -7 4 -29
9 -49 12 -20 2 -42 11 -48 20 -10 14 -14 13 -30 -5 -10 -11 -23 -18 -29 -14
-6 4 -8 0 -4 -10 4 -10 -3 -23 -18 -35 l-25 -20 45 -41 c25 -23 45 -46 45 -51
0 -5 9 -15 20 -22 11 -7 20 -16 20 -21 0 -4 -11 -1 -24 8 -21 14 -56 12 -56
-4 1 -3 29 -35 64 -70 l64 -64 -22 -18 c-21 -18 -22 -17 -85 46 -65 64 -65 64
-46 85 22 25 15 32 -47 52 -21 6 -38 15 -38 20 0 4 -7 8 -15 8 -22 0 -19 -5
25 -51 41 -43 58 -86 23 -58 -10 8 -14 9 -10 2 4 -6 2 -15 -4 -19 -8 -5 -9 -3
-4 6 6 10 4 12 -10 6 -18 -7 -18 -6 0 14 30 34 -5 24 -42 -12 l-32 -31 26 -31
25 -30 -26 -9 c-19 -6 -33 -4 -53 11 -16 10 -36 22 -45 25 -10 4 -18 10 -18
15 0 5 -10 7 -22 5 -13 -2 -30 1 -38 6 -13 9 -13 12 2 27 15 15 21 16 42 4 21
-10 28 -11 41 0 22 19 18 32 -7 24 -20 -6 -21 -5 -10 9 8 9 9 18 4 21 -6 3
-15 -1 -22 -9 -16 -19 -29 -19 -51 1 -17 15 -20 15 -45 -5 -23 -18 -30 -19
-43 -8 -9 7 -29 19 -44 27 -36 18 -113 89 -109 102 1 5 -6 7 -16 4 -12 -4 -25
1 -36 13 -17 19 -17 21 -1 38 17 16 19 16 39 -8 l20 -24 33 36 c38 42 40 49
14 49 -11 0 -21 6 -24 13 -3 8 -13 3 -30 -15 -31 -33 -35 -34 -57 -8 -17 20
-17 20 -35 0 -22 -24 -41 -25 -54 -3 -7 14 -12 15 -24 5 -11 -10 -21 -10 -41
-1 -14 7 -23 15 -21 19 2 4 -48 15 -111 25 -89 15 -118 23 -125 37 -6 10 -7
23 -3 29 3 6 -3 5 -15 -3 -26 -16 -27 -25 -3 -31 9 -3 -59 -3 -153 0 -208 5
-628 4 -788 -2 -78 -4 -116 -2 -112 5 10 16 -11 12 -25 -5 -7 -8 -29 -15 -49
-15 -20 0 -56 -5 -80 -11 -39 -9 -74 -3 -43 8 6 3 12 9 12 15 0 7 -4 7 -13 0
-15 -13 -42 1 -33 17 4 6 3 11 -2 11 -19 0 -21 -14 -6 -31 9 -10 13 -23 9 -28
-8 -14 -55 -14 -55 -1 0 6 -12 10 -26 10 -17 0 -23 4 -18 13 5 8 0 7 -15 -3
-23 -16 -25 -36 -3 -34 10 2 10 -1 0 -13 -8 -10 -14 -11 -16 -4 -5 16 -25 14
-89 -9 -31 -11 -52 -15 -46 -9 9 9 6 17 -10 30 -21 18 -21 20 -4 33 18 14 23
36 8 36 -22 0 -21 35 1 53 l23 18 -23 -11 c-13 -6 -26 -17 -28 -25 -3 -8 -17
-21 -31 -30 -28 -19 -56 -5 -46 23 4 9 -5 4 -19 -13 -26 -29 -26 -30 -7 -48
22 -21 25 -37 6 -37 -8 0 -19 -11 -26 -24 -7 -13 -23 -28 -35 -34 -18 -8 -23
-6 -33 14 -9 19 -7 26 8 40 19 17 19 18 -8 46 -15 15 -33 28 -40 28 -16 0 -17
16 -1 26 7 4 8 3 4 -4 -4 -7 -2 -12 3 -12 10 0 15 14 12 32 0 4 6 5 15 1 8 -3
13 -12 10 -19 -9 -22 4 -16 35 17 16 17 33 28 39 24 5 -3 10 -2 10 4 0 5 -10
11 -22 13 -16 2 -23 9 -22 25 0 18 -2 20 -13 12 -9 -8 -13 -8 -13 -1 0 15 -39
25 -53 14 -8 -7 -18 -6 -31 4 -16 11 -17 16 -6 29 13 15 4 19 -38 18 -8 -1
-11 5 -8 14 3 8 2 12 -3 8 -5 -3 -11 0 -13 7 -3 8 -6 9 -11 1 -4 -6 14 -32 40
-57 31 -31 43 -50 36 -57 -13 -13 -43 -1 -43 18 0 9 -5 11 -12 7 -21 -13 -46
-12 -41 3 6 16 -2 17 -28 3 -26 -14 -25 -19 16 -65 20 -22 40 -46 46 -53 6 -7
14 -10 19 -7 6 3 7 -1 4 -9 -6 -15 -34 -11 -34 6 0 5 -8 7 -19 3 -10 -3 -24 1
-31 10 -11 14 -15 14 -35 1 -21 -14 -24 -14 -29 0 -3 9 -3 20 0 26 4 6 -2 6
-14 -1 -12 -6 -23 -15 -27 -20 -3 -6 -17 -6 -36 1 -26 9 -33 7 -55 -13 l-26
-24 -18 22 -17 22 -21 -22 c-21 -22 -21 -23 -2 -35 24 -15 26 -35 4 -52 -13
-11 -18 -10 -35 7 l-21 20 -26 -24 c-16 -15 -29 -20 -35 -14 -5 5 -17 7 -25 3
-13 -4 -12 1 4 24 34 48 35 52 18 68 -14 15 -18 14 -42 -5 -16 -12 -28 -16
-30 -10 -2 6 -8 9 -13 5 -5 -3 -9 0 -9 6 0 12 -35 -4 -58 -27 -8 -7 -18 -10
-24 -7 -6 4 -6 -1 1 -14 14 -27 14 -32 -2 -26 -13 5 -67 -41 -67 -57 0 -4 7
-14 15 -23 19 -19 19 -32 0 -40 -22 -8 -18 -37 5 -43 18 -5 19 -6 2 -29 -9
-13 -24 -24 -33 -24 -9 0 -21 -10 -27 -22 -8 -18 -11 -19 -11 -6 -1 9 4 20 10
23 6 4 8 14 4 22 -3 9 2 24 11 34 16 18 16 20 -1 39 -17 19 -19 19 -46 3 -27
-16 -29 -16 -42 1 -13 17 -16 16 -53 -18 -41 -38 -51 -40 -67 -14 -8 12 -4 22
16 42 31 31 34 38 12 30 -8 -4 -15 -1 -15 6 0 8 9 10 25 6 14 -4 25 -2 25 4 0
18 18 11 25 -10 3 -11 10 -20 15 -20 5 0 6 7 3 17 -4 11 -3 14 5 9 7 -4 12 -3
12 3 0 5 -8 12 -17 14 -16 4 -16 5 -1 6 9 0 30 -11 48 -25 30 -25 31 -26 50
-9 19 17 19 19 4 37 -16 17 -16 19 2 39 15 17 16 23 5 40 -10 17 -10 24 1 36
12 15 10 15 -12 3 -14 -7 -33 -20 -43 -28 -16 -15 -17 -14 -11 3 6 13 4 16 -6
10 -8 -5 -11 -3 -8 6 3 8 10 13 16 12 6 -2 9 3 7 10 -3 6 9 27 27 46 25 26 27
32 11 27 -13 -4 -25 -1 -33 9 -11 13 -10 18 6 30 18 14 18 14 -4 31 -22 15
-22 17 -7 34 16 18 16 19 -3 17 -11 0 -18 -6 -16 -12 3 -6 -4 -19 -16 -30
l-20 -18 22 -18 21 -19 -23 -20 -23 -20 23 -22 23 -21 -23 -9 c-14 -5 -28 -4
-36 3 -11 9 -20 7 -40 -5 -19 -13 -29 -15 -39 -6 -12 10 -12 16 3 38 15 24 15
26 0 14 -9 -7 -20 -12 -24 -11 -5 1 -16 1 -24 0 -13 -1 -13 -2 0 -11 20 -12 6
-23 -20 -15 -17 5 -19 9 -9 21 6 8 9 17 5 21 -3 3 -6 1 -6 -5 0 -18 -28 -14
-39 5 -15 28 -26 6 -11 -23 14 -24 12 -27 -23 -58 -26 -23 -36 -38 -31 -49 3
-9 10 -17 15 -17 18 0 8 -28 -16 -44 -30 -20 -39 -20 -31 -1 3 8 1 15 -4 15
-16 0 -11 22 7 35 15 11 15 14 2 27 -8 8 -21 13 -29 11 -13 -4 -13 -3 0 6 12
8 11 14 -10 36 -23 25 -23 25 -4 40 24 18 29 18 48 -1 9 -8 16 -11 16 -5 0 5
-7 14 -16 19 -14 8 -14 10 0 21 25 21 19 33 -8 16 -19 -13 -25 -13 -28 -3 -4
11 -8 10 -21 -1 -10 -7 -17 -9 -17 -5 0 5 9 15 21 22 25 16 23 58 -3 56 -14
-1 -15 2 -8 15 5 10 16 23 24 31 9 7 16 17 16 23 0 5 -8 3 -18 -6 -10 -10 -27
-17 -37 -17 -14 0 -15 3 -5 15 7 8 16 13 20 10 5 -3 11 -1 14 4 11 17 -27 21
-46 5 -17 -16 -19 -16 -32 2 -13 16 -12 21 0 35 18 20 18 25 -6 49 -16 16 -23
17 -43 7 -26 -14 -24 -35 5 -56 19 -13 19 -14 -6 -34 l-26 -20 31 -28 30 -27
-25 -6 c-35 -9 -58 2 -51 25 4 11 3 19 -2 18 -37 -6 -45 18 -13 41 24 17 27
35 4 26 -10 -4 -22 1 -29 11 -13 17 -15 17 -38 -5 -13 -13 -31 -22 -38 -20 -8
2 -13 -3 -11 -11 3 -12 0 -12 -12 -1 -20 15 -20 15 1 35 16 16 15 18 -8 36
l-24 19 47 44 c27 24 48 49 48 54 0 6 -13 -3 -30 -20 -27 -27 -31 -28 -46 -14
-8 9 -17 16 -20 16 -4 0 -37 -18 -54 -28 -2 -2 9 -14 25 -27 l30 -24 -29 -1
c-19 0 -27 4 -23 13 4 10 -4 14 -24 14 -17 0 -25 -3 -18 -8 9 -5 8 -12 -5 -25
-16 -16 -18 -16 -34 0 -15 15 -15 18 -2 26 8 5 10 10 4 10 -5 0 -20 -9 -32
-20 -26 -24 -52 -26 -52 -4 0 12 -6 15 -26 10 -16 -4 -23 -3 -20 3 9 13 -34
25 -46 13 -16 -16 -36 -3 -31 19 5 16 0 19 -33 19 -27 0 -35 -3 -25 -9 14 -9
9 -41 -7 -41 -5 0 -15 6 -21 14 -9 11 -3 21 29 50 22 20 34 36 27 36 -7 0 -18
-5 -23 -10 -6 -6 -18 -8 -27 -4 -19 7 -10 32 27 72 l21 24 -27 -13 c-16 -7
-28 -16 -28 -20 0 -5 -10 -19 -22 -32 -13 -13 -36 -38 -52 -56 -30 -34 -43
-35 -60 -8 -9 14 -4 24 27 53 33 29 41 33 55 22 10 -8 13 -9 9 -1 -10 17 3 45
19 39 8 -3 13 -2 11 2 -3 10 56 82 68 82 6 0 16 9 23 21 8 12 19 18 28 15 11
-4 14 -1 9 13 -3 12 -1 21 7 24 7 2 5 3 -5 1 -34 -5 -48 6 -36 28 10 18 12 18
28 4 24 -22 27 -21 69 19 42 39 45 40 61 21 10 -11 8 -16 -8 -21 -23 -7 -27
-20 -10 -30 5 -4 19 1 29 10 14 13 19 13 23 3 4 -8 6 -7 6 5 1 9 6 17 12 17 6
0 9 7 5 15 -3 8 -1 15 3 15 18 0 21 -33 5 -52 -10 -10 -15 -20 -12 -23 3 -3
13 4 23 15 10 11 22 20 27 20 6 0 18 10 29 23 16 19 18 19 12 3 -5 -15 -3 -18
10 -13 9 3 17 3 17 -2 0 -12 -26 -32 -33 -25 -3 3 -2 -7 2 -22 9 -35 35 -42
62 -18 18 17 20 16 42 -4 23 -22 23 -22 40 -2 19 22 25 24 47 10 12 -8 10 -14
-15 -40 -16 -16 -24 -30 -19 -30 5 0 17 9 27 20 10 12 23 18 30 14 6 -4 9 -3
4 1 -4 5 3 19 15 32 21 22 13 34 -8 13 -12 -12 -44 -3 -44 11 0 5 15 24 34 44
19 19 31 37 28 39 -9 5 -52 -29 -52 -42 0 -5 -9 -12 -20 -15 -24 -6 -27 8 -4
17 9 3 14 12 11 19 -2 6 4 22 15 34 28 30 18 53 -10 25 -12 -12 -26 -22 -32
-22 -16 0 -11 18 7 29 28 15 6 26 -27 14 -18 -7 -32 -7 -36 -2 -7 12 -44 12
-44 -1 0 -6 -10 -6 -27 1 -33 12 -73 4 -73 -15 0 -7 -7 -20 -16 -27 -14 -11
-19 -10 -34 9 -10 12 -25 22 -34 22 -9 0 -16 4 -16 10 0 6 -40 9 -102 8 l-103
-1 -37 -39 c-21 -21 -36 -44 -34 -51 1 -6 1 -9 -1 -5 -3 4 -26 -9 -53 -28 -29
-21 -54 -32 -64 -28 -9 3 -16 9 -16 12 0 3 30 35 66 70 50 48 69 61 75 51 7
-12 11 -11 23 1 14 13 5 15 -77 17 -58 2 -87 -1 -78 -7 12 -7 11 -12 -10 -28
-26 -22 -43 -11 -33 21 4 14 -1 17 -37 17 -36 0 -40 -2 -29 -15z m285 -176
c-7 -21 -6 -21 16 -5 31 22 56 22 35 0 -9 -8 -16 -22 -16 -30 0 -11 -6 -13
-19 -9 -11 3 -22 1 -26 -4 -4 -7 0 -8 11 -4 32 12 -3 -33 -55 -71 -27 -20 -52
-42 -55 -49 -3 -9 -7 -8 -15 3 -15 22 -13 30 6 23 11 -4 14 -3 9 5 -5 8 -1 10
11 5 15 -5 16 -4 5 8 -10 11 -3 22 35 62 38 40 43 49 25 44 -12 -3 -20 -1 -16
4 3 5 1 9 -4 9 -6 0 -12 -7 -16 -15 -3 -8 0 -15 6 -15 6 0 -8 -18 -31 -40 -22
-22 -46 -38 -53 -35 -16 5 -64 -33 -54 -42 4 -4 11 -1 16 7 5 8 12 11 17 7 8
-9 -17 -28 -31 -24 -20 7 -15 25 16 57 18 20 33 29 36 22 7 -21 22 -13 19 11
-2 18 2 22 22 19 15 -1 22 2 18 11 -2 7 3 22 13 34 14 18 28 24 73 32 5 0 5
-9 2 -20z m1802 -665 c4 -10 -1 -22 -11 -30 -17 -12 -17 -14 3 -35 l21 -23
-20 -21 -20 -22 20 -18 c19 -18 21 -18 40 0 20 18 22 18 80 -40 l60 -59 21 21
c20 20 21 23 5 38 -21 21 -20 28 3 42 16 10 23 8 42 -13 16 -17 18 -23 7 -19
-21 8 -36 -33 -17 -46 12 -8 11 -11 -1 -19 -8 -5 -30 -20 -49 -34 -19 -14 -42
-26 -50 -26 -9 0 -27 -9 -41 -20 -33 -26 -43 -25 -29 3 12 21 11 21 -6 7 -17
-14 -18 -14 -5 10 7 14 18 32 25 40 11 12 10 19 -3 36 -15 18 -21 19 -45 9
-15 -6 -24 -14 -21 -18 4 -4 -1 -16 -11 -27 -17 -19 -17 -21 -1 -39 16 -18 13
-51 -5 -51 -5 0 -9 -6 -9 -14 0 -8 -13 -24 -30 -36 -16 -11 -27 -27 -24 -34 3
-7 -2 -16 -10 -19 -24 -9 -19 -27 7 -27 28 0 136 -17 121 -19 -71 -8 -275 -48
-373 -72 -69 -17 -137 -29 -152 -27 -16 3 -26 1 -23 -3 2 -4 -11 -7 -29 -8
-61 -2 -72 -3 -157 -18 -47 -8 -101 -17 -120 -19 -43 -5 -26 4 69 37 35 13 60
24 54 26 -5 2 -54 -5 -109 -16 -92 -18 -115 -19 -102 -6 5 6 215 49 283 59
128 19 126 17 98 48 -16 17 -15 20 18 54 l34 35 -30 -5 c-28 -5 -29 -4 -11 9
11 9 28 13 38 9 11 -3 20 1 24 10 8 22 27 20 49 -4 17 -19 18 -19 34 2 15 18
20 19 39 7 18 -11 26 -12 43 -1 18 12 25 9 61 -23 38 -35 41 -36 59 -19 18 16
18 19 3 35 -9 10 -21 16 -27 12 -6 -3 -7 -1 -3 6 4 7 -2 19 -15 30 -22 18 -22
19 -5 36 14 14 22 16 35 8 9 -6 15 -18 15 -26 -1 -9 4 -13 12 -10 8 3 14 -1
14 -10 0 -8 11 -18 25 -21 14 -4 25 -11 25 -16 0 -6 7 -10 15 -10 20 0 19 16
-2 24 -12 5 -13 10 -5 18 8 8 2 22 -24 53 -40 50 -45 72 -11 54 20 -11 21 -11
8 4 -15 19 -1 23 17 5 21 -21 35 4 21 36 -12 25 -13 25 -31 9 -19 -17 -20 -17
-29 0 -12 21 -27 22 -51 0 -17 -15 -19 -15 -38 2 -18 16 -20 16 -36 0 -16 -15
-18 -15 -37 3 -17 18 -18 22 -6 34 8 8 21 17 29 21 8 4 23 12 32 19 15 11 22
8 51 -20 29 -29 35 -31 52 -18 18 13 18 14 -2 40 -18 22 -22 24 -33 11 -14
-17 -35 -21 -25 -5 3 6 1 10 -6 10 -10 0 -10 3 -1 12 7 7 12 20 12 29 0 9 7
22 15 29 13 11 19 9 38 -8 23 -21 23 -21 37 -2 8 11 20 20 28 20 7 0 11 4 8 9
-4 5 0 12 6 14 24 10 39 7 45 -9z m2183 -86 c41 -5 104 -21 140 -34 59 -21 66
-22 77 -8 11 15 13 15 28 0 10 -9 12 -16 5 -16 -6 0 2 -12 19 -26 17 -14 29
-29 26 -34 -2 -4 18 -26 45 -49 61 -52 65 -46 8 9 l-43 42 65 -43 c36 -24 70
-48 76 -54 6 -6 46 -37 88 -70 70 -53 76 -60 60 -72 -10 -7 -45 -13 -81 -13
-62 0 -63 1 -64 28 l-2 27 -4 -27 c-3 -22 -10 -28 -31 -29 -15 0 -34 -2 -42
-3 -8 -2 -76 -6 -150 -10 -74 -4 -227 -16 -340 -27 -260 -24 -301 -24 -293 -3
5 13 7 13 14 2 7 -10 9 -9 9 5 0 20 16 23 23 5 2 -7 11 2 21 20 l17 32 -36 0
c-19 0 -35 3 -35 8 1 18 17 29 45 28 17 -1 42 4 58 11 18 9 27 10 27 3 0 -6 4
-9 9 -5 6 3 14 -3 20 -12 9 -15 11 -14 12 12 1 17 2 36 2 43 -1 6 3 12 8 12 8
0 31 -71 43 -130 4 -21 -1 56 -7 100 -4 33 19 19 36 -21 l18 -44 -6 41 c-5 40
-4 41 22 36 17 -3 24 -1 19 6 -9 14 13 19 123 27 52 4 102 12 113 18 14 9 23
9 39 -2 21 -13 22 -12 16 23 -6 35 5 57 18 36 4 -7 13 -6 27 1 19 10 27 5 74
-43 46 -47 54 -62 60 -107 6 -44 10 -51 29 -51 18 0 24 7 29 41 4 23 2 47 -5
57 -9 15 -10 15 -5 -2 9 -27 -4 -86 -19 -86 -8 0 -16 20 -20 53 -7 49 -12 56
-100 143 -87 84 -98 92 -166 112 -151 45 -444 54 -576 18 -90 -24 -124 -62
-218 -242 -32 -61 -67 -117 -78 -123 -14 -9 -4 16 33 86 112 209 150 257 225
289 76 32 313 38 495 12z m-2522 -39 c37 -35 37 -33 16 -63 -14 -23 -14 -25 8
-40 l22 -16 -21 -21 -22 -22 22 -18 22 -18 -23 -23 -22 -23 -42 43 -43 42 38
31 c20 17 37 34 37 39 0 5 -13 25 -30 43 -33 38 -36 47 -18 65 17 17 19 16 56
-19z m-534 -109 l59 -59 18 22 18 22 21 -21 21 -20 -40 -37 -40 -37 -51 50
c-27 27 -50 54 -50 60 0 19 -18 10 -68 -35 -45 -41 -51 -43 -63 -28 -10 12
-10 14 -1 9 8 -5 12 -1 12 12 0 11 7 25 15 32 14 12 13 16 -6 37 -26 27 -15
31 15 6 20 -18 20 -18 3 10 -19 30 -13 35 13 12 15 -14 19 -13 35 5 10 11 21
20 24 20 3 0 32 -27 65 -60z m1006 -270 c-11 -7 1 -10 40 -10 30 0 123 -10
205 -22 83 -11 222 -23 310 -27 l160 -6 -140 -22 c-230 -37 -581 -75 -567 -61
7 7 218 62 285 74 65 11 35 13 -68 4 -174 -15 -426 -26 -475 -20 -8 2 -1 6 15
10 l30 8 -27 1 c-29 1 -65 -6 -247 -45 -62 -14 -115 -23 -118 -21 -3 4 58 21
108 31 8 1 34 8 59 16 50 14 419 98 435 99 6 0 3 -4 -5 -9z m2810 -20 c0 -5
-6 -10 -12 -10 -10 0 -10 -2 0 -9 22 -13 -19 -82 -62 -105 -20 -11 -36 -23
-36 -29 0 -5 -14 -7 -32 -5 -17 3 -46 2 -64 -2 -23 -5 -41 -3 -61 9 -15 9 -40
16 -55 15 -16 -2 -28 0 -28 5 0 7 -98 1 -290 -19 -58 -6 -132 -12 -165 -14
-33 -2 -87 -9 -120 -15 -33 -6 -100 -13 -150 -16 -85 -5 -156 -13 -200 -22
-11 -2 -65 -4 -120 -4 -60 -1 -106 -6 -114 -12 -8 -7 -16 -11 -17 -10 -2 1
-11 0 -20 -4 -9 -3 -36 -1 -60 4 -35 8 -44 8 -44 -3 0 -8 -7 -14 -16 -14 -9 0
-12 -5 -8 -12 5 -7 3 -8 -5 -4 -7 5 -43 -2 -80 -14 l-68 -22 -41 21 c-53 27
-150 28 -207 2 -22 -10 -63 -38 -92 -62 -49 -42 -90 -56 -109 -37 -4 4 -12 4
-18 -1 -6 -5 -42 -11 -81 -13 -70 -5 -138 -31 -164 -62 -9 -10 -16 -12 -24 -5
-7 5 -21 16 -32 24 -19 14 -18 14 8 5 16 -6 26 -6 22 -1 -3 5 22 36 56 68 34
32 68 64 76 72 11 11 19 11 40 2 24 -11 25 -10 13 4 -14 17 -15 17 21 32 58
25 114 26 167 3 48 -21 56 -21 118 -10 37 7 78 19 92 25 l24 13 -22 22 c-17
17 -30 21 -53 16 -71 -12 -172 -17 -157 -8 29 18 477 86 645 98 67 5 119 11
285 34 123 17 391 42 690 64 216 17 570 20 570 6z m-440 -657 c-8 -4 -24 -16
-35 -28 -17 -18 -95 -36 -560 -124 -297 -57 -549 -108 -560 -114 -10 -5 -27
-19 -36 -31 -16 -18 -20 -19 -39 -8 -12 8 -20 10 -17 5 2 -4 -4 -17 -14 -27
-19 -19 -19 -19 -19 7 0 15 5 27 11 27 5 0 8 4 4 10 -10 16 90 38 720 156 427
79 505 98 505 124 0 6 12 10 28 9 16 0 21 -3 12 -6z"/>
<path d="M5509 3264 c13 -10 13 -14 1 -29 -12 -15 -12 -18 3 -27 10 -5 15 -13
12 -19 -9 -14 -25 -11 -25 6 0 8 -7 15 -15 15 -19 0 -20 -29 0 -36 8 -3 17
-14 20 -24 3 -10 12 -21 20 -24 12 -4 13 -2 2 15 -10 18 -8 23 17 46 22 18 26
27 16 33 -21 13 -1 29 31 25 48 -6 88 -65 45 -65 -7 0 -29 -15 -48 -34 -25
-25 -32 -38 -25 -45 16 -16 30 -13 24 3 -3 8 1 20 9 27 20 16 30 3 13 -17 -13
-16 -12 -16 9 -5 13 7 26 10 29 7 3 -3 -6 -11 -21 -17 -33 -15 -32 -28 4 -57
l29 -22 25 23 c26 24 34 47 16 47 -5 0 -14 -8 -19 -17 -6 -10 -11 -12 -11 -5
0 6 -5 12 -11 12 -6 0 -9 -7 -5 -15 6 -16 -9 -21 -19 -5 -3 5 8 24 25 41 31
33 34 49 10 57 -7 3 -10 0 -6 -7 4 -6 1 -11 -7 -11 -25 0 -27 13 -6 28 19 13
23 12 44 -12 12 -14 36 -31 53 -37 17 -6 34 -19 37 -30 4 -10 12 -19 20 -19 7
0 15 -7 19 -15 8 -21 22 -19 22 4 0 11 -4 18 -7 15 -16 -9 -19 17 -5 32 21 20
21 20 -10 51 l-25 25 -24 -22 c-26 -24 -34 -22 -76 19 l-26 26 41 37 41 36
-40 -1 c-22 -1 -47 -8 -55 -16 -12 -12 -11 -13 7 -7 12 4 24 2 28 -4 3 -5 0
-10 -9 -10 -8 0 -17 -6 -19 -12 -4 -9 -15 -2 -35 19 -26 29 -33 32 -84 30 -44
-2 -52 -4 -39 -13z"/>
<path d="M1660 2605 c-22 -24 -23 -25 -5 -45 9 -10 15 -26 12 -35 -4 -8 -2
-15 3 -15 6 0 10 -5 10 -10 0 -12 -40 9 -56 30 -9 11 -9 17 -1 22 7 4 8 8 4 8
-5 0 -30 -24 -57 -52 -46 -49 -48 -54 -33 -70 22 -25 27 -23 67 19 34 37 35
37 55 19 20 -18 22 -18 41 -1 19 17 21 17 40 0 19 -17 21 -17 41 1 21 19 21
18 38 -3 l18 -22 52 53 c46 47 55 66 29 66 -5 0 -6 -5 -2 -11 4 -7 1 -10 -7
-7 -8 3 -13 15 -12 27 3 23 1 22 -43 -18 -13 -12 -17 -12 -24 0 -5 7 -12 11
-15 7 -3 -3 6 -19 20 -36 28 -33 31 -47 13 -58 -7 -5 -9 -2 -5 9 4 11 2 14 -9
10 -7 -3 -14 0 -14 6 0 6 -6 8 -14 5 -21 -8 -41 33 -25 52 6 8 8 14 3 14 -4 0
-19 -14 -34 -32 -18 -21 -32 -29 -43 -25 -24 9 -21 20 14 56 30 32 35 58 5 28
-20 -20 -62 -11 -45 9 21 26 3 25 -21 -1z"/>
<path d="M4815 2449 c-3 -5 12 -28 34 -51 38 -41 40 -42 58 -25 24 21 32 21
55 0 19 -17 20 -16 38 6 l17 24 19 -21 c23 -27 41 -28 49 -2 3 11 13 20 21 20
7 0 19 -9 26 -20 17 -26 24 -25 53 8 21 23 37 57 18 39 -3 -4 -12 2 -20 13
-17 24 -33 26 -33 5 0 -24 -47 -42 -71 -27 -14 9 -25 9 -39 2 -24 -13 -26 -13
-45 6 -15 15 -17 15 -34 0 -24 -21 -37 -20 -55 5 -15 23 -81 35 -91 18z"/>
</g>
</svg>
