<?xml version="1.0" standalone="no"?>
<!DOCTYPE svg PUBLIC "-//W3C//DTD SVG 20010904//EN"
 "http://www.w3.org/TR/2001/REC-SVG-20010904/DTD/svg10.dtd">
<svg version="1.0" xmlns="http://www.w3.org/2000/svg"
 width="720.000000pt" height="720.000000pt" viewBox="0 0 720.000000 720.000000"
 preserveAspectRatio="xMidYMid meet">
<metadata>
Created by potrace 1.16, written by Peter Selinger 2001-2019
</metadata>
<g transform="translate(0.000000,720.000000) scale(0.100000,-0.100000)"
fill="#000000" stroke="none">
<path d="M1898 5674 c-59 -18 -121 -85 -137 -149 -7 -29 -11 -197 -11 -497 0
-523 -15 -1723 -30 -2328 -5 -228 -13 -634 -16 -901 l-7 -485 26 -56 c30 -67
77 -103 154 -117 31 -6 615 -11 1516 -12 1463 -1 1464 -1 1505 20 29 15 50 37
74 78 l33 58 -1 265 c0 146 -5 1098 -10 2115 l-9 1850 -24 49 c-28 57 -92 103
-155 110 -22 3 -675 7 -1451 9 -1184 4 -1418 2 -1457 -9z m961 -1348 c6 -4 11
-14 11 -22 0 -13 14 -18 48 -17 6 1 12 -6 12 -14 0 -9 6 -13 15 -9 8 3 15 1
15 -4 0 -6 6 -10 14 -10 8 0 28 -8 45 -17 34 -19 34 -22 10 -116 -8 -31 -14
-37 -27 -32 -54 22 -98 29 -192 29 -100 0 -143 -9 -231 -48 -13 -6 -19 8 -32
78 -9 46 -20 92 -23 103 -4 13 -3 15 4 4 14 -19 48 -5 88 34 18 18 35 31 38
28 3 -3 11 -1 18 5 7 5 24 12 38 14 36 6 136 2 149 -6z m589 -57 c25 6 75 6
97 1 6 -2 21 -4 35 -5 64 -5 141 -18 145 -26 3 -4 21 -5 40 -2 21 3 35 2 35
-5 0 -6 14 -13 30 -17 17 -4 30 -11 30 -16 0 -5 13 -9 30 -9 17 0 33 -7 39
-17 9 -15 11 -13 12 12 4 68 17 -75 18 -191 l1 -121 -80 -37 c-136 -62 -295
-70 -412 -22 l-35 15 -6 198 c-4 109 -9 212 -12 228 -3 17 -3 25 1 18 3 -7 15
-9 32 -4z m-478 -795 c243 -159 476 -230 731 -222 l126 4 -15 -36 c-51 -122
-247 -464 -262 -455 -5 3 -11 1 -15 -4 -4 -7 -14 -6 -30 1 -16 7 -29 8 -37 1
-23 -17 -50 -24 -42 -10 6 9 4 9 -8 -1 -12 -10 -17 -10 -20 -1 -2 7 -13 14
-24 16 -37 6 -89 14 -117 17 -15 1 -30 6 -34 9 -3 4 -15 7 -25 7 -10 0 -18 5
-18 12 0 6 -3 8 -6 5 -4 -3 -16 -1 -28 5 -11 7 -23 13 -26 13 -3 1 -18 8 -35
15 -39 17 -47 18 -62 7 -8 -6 -13 -6 -13 0 0 8 106 198 203 363 l20 35 -44
-41 c-24 -22 -62 -51 -83 -64 -34 -20 -38 -21 -29 -5 13 23 -7 47 -41 49 -13
0 -22 4 -19 9 2 4 0 7 -5 7 -4 0 -32 18 -62 40 -49 37 -54 38 -67 22 -13 -16
-14 -16 -12 3 3 37 -1 47 -15 42 -14 -6 -30 25 -26 51 0 8 -3 19 -9 26 -17 21
-4 95 21 116 13 11 28 19 33 19 6 1 48 -24 95 -55z m-78 -1014 c-3 -39 -8 -56
-11 -43 -6 22 -7 22 -41 5 -19 -9 -41 -24 -48 -34 -7 -10 -17 -16 -21 -14 -4
3 -17 -3 -28 -14 -12 -10 -24 -16 -27 -13 -3 4 -6 2 -6 -4 0 -6 -11 -8 -24 -6
-13 3 -27 0 -30 -6 -4 -5 -13 -8 -21 -4 -8 3 -15 1 -15 -5 0 -6 -8 -9 -17 -7
-10 2 -28 4 -40 4 -12 1 -24 9 -28 21 -4 11 -11 18 -16 15 -5 -4 -9 -1 -9 4 0
20 -20 11 -30 -11 -6 -15 -9 -17 -9 -7 -1 9 21 34 48 57 42 36 62 44 144 62
52 11 126 31 164 44 37 13 68 23 69 22 1 0 -1 -30 -4 -66z"/>
<path d="M2 2733 c1 -32 7 -61 12 -65 16 -11 76 -9 76 2 0 6 4 10 10 10 6 0 6
-9 0 -25 -6 -16 -6 -26 1 -31 6 -4 6 -11 -2 -20 -8 -10 -8 -14 -1 -14 6 0 16
9 22 20 14 26 46 26 46 0 0 -19 -49 -45 -66 -35 -5 3 -16 -2 -24 -11 -9 -8
-16 -11 -16 -5 0 19 -20 12 -20 -6 -1 -17 -1 -17 -14 0 -23 30 -27 19 -25 -60
3 -80 9 -91 52 -92 22 -1 22 16 0 23 -10 3 -4 4 12 2 17 -2 39 -7 49 -11 15
-6 17 -5 11 5 -6 9 -4 11 4 6 7 -5 10 -15 7 -23 -5 -11 -1 -13 17 -7 12 4 23
10 25 15 2 4 11 6 20 3 14 -5 14 -4 -1 6 -10 6 -24 9 -32 6 -8 -3 -17 3 -20
15 -10 31 0 34 37 11 25 -16 37 -18 52 -10 13 8 20 7 26 -2 8 -12 20 -12 100
5 26 6 59 -9 47 -21 -3 -4 -13 -1 -22 6 -10 9 -15 9 -15 1 0 -7 -9 -9 -26 -5
-18 5 -25 3 -20 -4 8 -13 -18 -20 -66 -18 -21 2 -38 -1 -38 -6 0 -4 5 -8 10
-8 6 0 10 -4 10 -10 0 -15 -16 -12 -34 5 -8 8 -21 12 -30 9 -14 -5 -14 -7 0
-22 14 -14 14 -16 0 -24 -9 -5 -16 -16 -16 -23 0 -8 -4 -15 -10 -15 -15 0 -12
16 5 33 13 13 13 17 0 27 -9 7 -26 10 -42 6 -18 -4 -23 -3 -14 2 20 14 -3 24
-32 13 -14 -5 -28 -7 -31 -4 -3 4 -6 1 -6 -5 0 -19 -18 -14 -23 6 -2 9 -4 -57
-4 -146 0 -90 2 -160 6 -155 3 4 16 9 27 10 17 2 21 -2 17 -17 -3 -11 -9 -20
-14 -20 -5 0 -9 -7 -9 -15 0 -23 29 -6 36 20 4 15 11 22 20 18 10 -3 12 0 8
10 -9 23 14 30 26 8 6 -12 17 -18 24 -15 11 4 13 0 9 -16 -3 -12 -9 -18 -12
-13 -9 12 -44 10 -59 -5 -10 -9 -11 -19 -4 -40 7 -16 11 -20 11 -10 1 21 31
13 31 -9 0 -8 6 -13 12 -10 7 2 12 13 10 23 -2 19 -2 18 13 0 14 -19 15 -19
34 2 16 20 20 20 31 7 7 -9 19 -14 27 -11 8 4 11 1 8 -5 -4 -6 -13 -8 -20 -5
-7 2 -16 -2 -19 -10 -9 -24 -8 -26 14 -14 14 8 20 8 20 0 0 -24 18 2 24 34 5
28 11 34 29 32 13 -1 28 -5 34 -9 14 -9 64 13 57 24 -3 5 2 6 10 3 9 -3 16
-11 16 -17 0 -6 3 -8 6 -5 3 4 17 0 32 -8 28 -14 46 -9 22 6 -8 6 -11 10 -6
10 5 0 1 9 -9 20 -9 10 -20 19 -24 18 -38 -4 -62 6 -82 34 -18 25 -19 30 -6
25 11 -4 14 -2 10 9 -4 10 -9 12 -16 5 -16 -16 -38 -1 -31 21 3 12 1 24 -6 28
-19 12 -1 57 26 63 13 2 21 0 18 -4 -3 -5 -12 -9 -20 -9 -8 0 -14 -10 -14 -26
0 -14 4 -22 10 -19 5 3 7 0 4 -9 -8 -22 6 -42 17 -25 7 11 9 11 9 1 0 -7 5
-10 10 -7 6 3 10 -1 10 -9 0 -9 5 -16 11 -16 5 0 7 5 4 10 -3 6 3 10 14 10 19
0 20 -2 9 -20 -7 -11 -20 -20 -28 -21 -8 0 0 -7 18 -15 18 -8 37 -12 42 -9 4
3 10 0 12 -7 3 -7 11 -9 24 -4 18 8 18 9 -5 17 -19 8 -21 12 -11 24 7 9 10 18
6 22 -3 4 -13 -3 -22 -15 -18 -26 -34 -28 -34 -4 0 14 2 15 10 2 8 -12 10 -10
11 10 1 14 1 31 0 38 -1 6 4 12 10 12 7 0 9 -3 6 -7 -4 -3 2 -12 13 -20 11 -8
20 -23 20 -33 0 -10 7 -23 15 -27 13 -7 13 -12 0 -37 -12 -22 -12 -32 -3 -49
7 -12 12 -25 13 -29 0 -5 5 -8 10 -7 6 0 11 14 13 31 2 35 12 50 19 31 7 -19
33 -16 33 3 0 14 -7 15 -40 10 -33 -5 -38 -4 -34 9 4 10 13 13 25 10 13 -5 26
1 40 17 11 13 18 18 15 11 -4 -6 2 -17 11 -23 13 -8 14 -13 6 -16 -17 -7 -17
-37 -1 -32 18 6 39 -18 32 -36 -5 -12 -2 -15 12 -10 16 6 17 5 6 -7 -10 -11
-16 -11 -32 -1 -10 6 -22 8 -24 3 -7 -10 17 -21 45 -21 11 0 19 -7 19 -16 0
-13 -3 -14 -13 -5 -8 6 -16 8 -20 5 -3 -3 -16 0 -29 7 -21 11 -22 11 -9 -4 12
-15 11 -17 -7 -17 -24 0 -35 23 -19 39 15 15 6 14 -39 -5 -22 -9 -33 -19 -26
-21 6 -3 12 -8 12 -13 0 -11 -110 -7 -110 5 0 6 -4 5 -8 -2 -5 -8 -18 -6 -46
8 -21 10 -42 17 -46 14 -4 -2 -5 7 -2 22 3 18 1 24 -7 19 -6 -4 -11 -13 -11
-21 0 -7 -7 -15 -15 -19 -8 -3 -15 -12 -15 -20 0 -8 -5 -16 -11 -18 -9 -3 -8
-11 1 -28 17 -34 16 -33 39 -20 14 7 21 7 21 1 0 -15 45 -42 83 -51 17 -4 31
-12 30 -18 -2 -7 6 -12 17 -12 11 0 20 5 20 10 0 6 -5 10 -12 10 -6 0 -9 2 -6
5 9 9 38 -7 38 -21 0 -8 9 -14 20 -14 11 0 20 5 20 10 0 6 -5 10 -10 10 -6 0
-1 9 10 20 12 12 26 18 32 14 6 -4 25 -8 42 -10 42 -3 90 -15 96 -25 12 -17
34 -13 35 6 0 13 6 19 18 19 9 -1 17 3 17 8 0 7 5 7 13 0 10 -8 13 -6 13 7 0
11 -6 17 -13 14 -7 -3 -13 1 -13 8 0 10 -2 11 -8 3 -9 -15 -53 -21 -71 -10 -9
6 -18 3 -27 -8 -6 -9 -14 -13 -15 -8 -2 5 -15 13 -28 17 -16 5 -21 4 -17 -4 4
-6 0 -11 -9 -11 -11 0 -15 5 -11 16 3 8 2 13 -3 10 -5 -3 -12 1 -15 10 -9 24
-7 28 9 14 8 -6 19 -9 25 -5 5 3 13 0 16 -8 4 -11 10 -12 28 -4 17 8 20 14 12
23 -6 7 -15 9 -20 6 -5 -3 -6 1 -1 8 6 10 13 8 29 -11 18 -21 31 -25 73 -25
29 0 50 3 47 7 -2 4 0 10 5 13 5 4 12 2 15 -2 3 -5 16 -7 29 -5 32 6 32 -25 0
-40 -16 -7 -23 -17 -20 -28 3 -10 0 -20 -7 -22 -6 -2 3 -4 19 -4 17 0 24 2 18
4 -7 3 -12 14 -12 26 1 17 2 18 6 5 5 -20 29 -24 30 -5 0 6 3 26 7 43 5 28 3
32 -19 36 -13 3 -28 1 -33 -4 -13 -13 -22 3 -28 55 -5 35 -3 44 10 44 18 0 21
-13 6 -22 -8 -5 -7 -11 1 -21 13 -16 33 -8 25 12 -3 7 -1 16 4 19 6 4 10 -7
10 -24 0 -21 -5 -31 -15 -31 -8 0 -15 -4 -15 -8 0 -5 7 -9 15 -9 15 0 40 60
31 75 -2 4 5 9 17 9 12 1 17 -1 10 -5 -8 -5 -7 -10 3 -19 7 -7 15 -9 18 -4 4
5 16 7 28 3 13 -3 19 -1 15 6 -9 13 2 42 15 42 6 0 8 -6 5 -14 -4 -9 1 -17 11
-19 16 -4 15 -5 0 -6 -11 -1 -18 -9 -18 -21 0 -11 -6 -20 -14 -20 -9 0 -13 -7
-11 -19 3 -14 -1 -18 -15 -14 -17 5 -18 3 -7 -21 13 -28 41 -37 30 -9 -4 11
-3 14 6 9 6 -4 11 -13 10 -19 -3 -27 2 -38 24 -47 16 -7 8 -8 -28 -4 -56 7
-72 14 -32 14 15 0 27 5 27 11 0 6 -7 9 -15 5 -10 -3 -17 3 -21 19 -3 14 -10
22 -15 19 -5 -3 -4 -14 2 -26 9 -18 8 -19 -10 -13 -12 3 -21 2 -21 -3 0 -6 6
-12 12 -14 15 -5 -38 -58 -58 -58 -14 0 -20 -19 -6 -21 27 -3 46 -9 56 -20 8
-9 8 -10 -3 -4 -9 5 -12 3 -9 -6 6 -17 49 -29 65 -17 15 12 55 0 47 -14 -4 -6
-9 -6 -13 -1 -3 5 -16 4 -30 -3 -23 -12 -23 -12 -2 -19 13 -4 21 -15 21 -28
-1 -20 -3 -19 -30 11 -31 33 -60 42 -60 18 0 -8 -4 -16 -9 -18 -4 -2 -12 -13
-15 -25 -6 -19 -3 -23 16 -24 18 -1 19 -2 5 -6 -10 -3 -24 1 -32 7 -12 10 -15
9 -15 -8 0 -15 -5 -19 -20 -15 -12 3 -20 0 -20 -6 0 -7 6 -9 12 -5 7 4 3 -4
-10 -18 -12 -13 -19 -28 -15 -31 3 -4 2 -7 -4 -7 -19 0 -24 30 -5 30 15 1 15
2 -2 11 -15 9 -16 13 -5 20 11 7 11 9 1 9 -8 0 -10 5 -6 13 6 9 5 9 -7 0 -12
-10 -18 -10 -27 -1 -9 9 -8 4 0 -15 7 -15 16 -27 20 -27 4 0 3 -11 -2 -24 -10
-28 -5 -36 24 -36 17 0 18 -2 6 -10 -9 -6 -18 -6 -24 0 -6 6 -17 10 -25 10
-14 0 -14 -2 -1 -11 12 -8 8 -9 -14 -7 -16 2 -31 -2 -33 -9 -3 -8 4 -11 19 -8
l23 4 -22 -18 c-12 -10 -19 -21 -16 -25 4 -3 -3 -6 -15 -6 -11 0 -23 4 -27 9
-3 6 -23 2 -47 -9 -23 -10 -46 -16 -50 -13 -5 2 -15 -1 -23 -7 -25 -20 -17 -1
10 26 14 14 25 22 25 19 0 -3 9 4 20 15 11 11 26 17 33 14 9 -3 17 3 20 17 4
16 3 19 -6 10 -17 -17 -25 -13 -32 18 -5 23 -1 35 15 51 11 11 26 18 33 14 7
-4 9 -4 5 1 -4 4 -3 14 3 21 7 8 7 14 -1 19 -5 3 -10 0 -10 -8 0 -8 -9 -17
-20 -20 -22 -6 -25 5 -9 35 6 11 7 18 2 15 -5 -3 -8 12 -8 33 0 34 3 40 24 42
27 3 44 37 29 59 -7 11 -11 11 -15 1 -4 -10 -8 -10 -18 -2 -10 8 -20 8 -37 -1
-19 -9 -21 -9 -11 1 7 7 22 14 35 15 32 2 35 25 4 25 -14 0 -29 1 -33 2 -5 1
-14 -9 -21 -24 -10 -22 -17 -25 -42 -22 -25 4 -29 2 -23 -13 5 -15 3 -16 -8
-5 -7 6 -17 12 -21 12 -15 0 -8 -23 12 -40 17 -15 26 -16 56 -7 32 10 38 9 50
-8 19 -25 18 -45 -2 -45 -14 0 -14 -1 0 -16 18 -18 13 -34 -12 -34 -13 0 -13
-2 4 -15 13 -10 15 -14 5 -15 -8 0 -23 8 -34 18 -19 16 -19 16 -12 -8 7 -24 7
-24 -9 -5 -8 11 -16 15 -16 9 0 -7 -10 -14 -21 -17 -15 -4 -20 -11 -16 -21 4
-10 1 -16 -7 -16 -8 0 -17 6 -19 13 -3 6 -6 7 -6 1 -1 -5 7 -19 17 -30 37 -40
36 -62 -3 -48 -12 5 -14 9 -4 15 9 5 4 16 -19 39 -31 30 -31 32 -16 61 8 16
12 34 9 39 -3 6 2 10 12 10 11 0 24 5 29 10 8 8 15 6 24 -5 7 -9 8 -15 2 -15
-6 0 -12 4 -14 9 -1 5 -12 3 -23 -6 -19 -15 -19 -15 -1 -9 11 4 23 1 28 -6 8
-10 11 -10 15 0 2 6 16 12 29 12 14 0 23 4 20 9 -3 5 -15 7 -26 4 -13 -4 -20
0 -20 9 0 16 -29 20 -46 7 -7 -6 -16 -3 -24 6 -7 8 -18 15 -24 15 -6 0 -4 -5
4 -10 12 -8 10 -10 -8 -10 -13 0 -20 -4 -17 -10 3 -6 -1 -7 -9 -4 -12 5 -16
-1 -17 -22 0 -16 -3 -23 -6 -16 -2 6 -11 12 -19 12 -9 0 -13 -4 -10 -9 10 -16
-43 -19 -56 -3 -11 13 -9 14 15 8 16 -4 27 -2 27 4 0 5 -4 10 -10 11 -54 5
-110 -7 -107 -24 1 -6 11 -16 21 -22 28 -14 32 -35 6 -28 -11 3 -19 8 -16 11
5 5 -37 42 -48 42 -16 0 -3 -30 15 -35 17 -6 19 -9 8 -16 -8 -5 -9 -9 -4 -10
6 0 1 -4 -10 -9 -19 -9 -19 -9 3 -16 12 -3 22 -10 22 -14 0 -14 31 -40 41 -35
16 10 10 25 -8 18 -10 -4 -14 -2 -10 4 11 18 47 23 47 7 0 -8 4 -14 10 -14 15
0 7 43 -10 57 -21 18 1 15 24 -2 11 -8 15 -15 8 -15 -7 0 -9 -7 -5 -17 4 -11
8 -12 11 -5 2 7 8 12 13 12 23 0 -11 -36 -36 -38 -32 -2 -74 -31 -75 -52 -1
-10 -3 -11 -7 -2 -2 6 -9 12 -15 12 -6 0 -7 -7 -4 -16 3 -8 -1 -23 -10 -32
-12 -11 -13 -17 -5 -20 8 -3 9 -8 1 -17 -8 -10 -5 -12 15 -12 13 0 23 3 20 7
-3 4 4 10 15 13 11 3 22 1 25 -4 3 -4 12 -6 20 -2 18 6 20 -8 3 -26 -8 -7 -1
-6 17 3 38 20 55 20 83 0 22 -15 23 -15 20 1 -5 31 20 27 37 -5 9 -17 20 -28
26 -24 30 18 119 20 131 2 6 -10 8 -8 8 5 0 13 8 17 35 17 24 0 35 -5 35 -15
0 -24 19 -17 26 10 3 14 10 25 14 25 13 0 20 -29 8 -36 -7 -4 -6 -9 3 -15 11
-7 10 -9 -4 -9 -10 0 -15 -5 -12 -10 13 -21 42 8 40 40 -2 29 0 31 22 25 18
-4 23 -2 18 7 -4 7 1 4 9 -7 9 -10 28 -21 43 -23 23 -3 25 -1 13 12 -10 14
-10 16 5 16 25 0 55 -29 48 -46 -3 -8 -1 -14 4 -14 5 0 14 14 20 30 7 18 18
30 29 30 16 0 15 2 -4 16 -20 14 -25 14 -45 1 -19 -12 -24 -12 -35 -1 -10 11
-17 11 -32 2 -10 -7 -16 -16 -13 -22 3 -5 1 -6 -6 -2 -6 4 -9 12 -6 17 4 5 -2
9 -11 9 -10 0 -14 3 -10 7 3 4 -4 13 -16 20 l-23 13 23 -3 c13 -2 27 -9 32
-16 4 -7 16 -11 26 -7 11 3 44 6 74 7 66 3 80 7 80 24 0 11 -5 11 -27 -1 -16
-7 -36 -14 -45 -14 -26 0 -31 18 -6 22 12 2 24 10 26 18 3 8 1 12 -3 8 -4 -4
-14 0 -22 8 -12 11 -12 18 -3 29 7 8 16 12 21 9 5 -3 9 0 9 5 0 6 -7 11 -15
11 -8 0 -15 7 -15 15 0 13 3 13 20 3 26 -17 25 -36 -2 -48 -16 -6 -18 -9 -7
-9 16 -1 34 -27 30 -44 -1 -5 3 -6 9 -2 5 3 10 15 10 26 0 12 7 19 20 19 16 0
19 -5 14 -24 -4 -16 -1 -25 10 -29 9 -4 16 -15 16 -25 0 -11 6 -25 14 -31 11
-10 17 -7 30 10 8 12 13 26 10 31 -3 4 -1 8 5 8 5 0 12 9 16 19 3 10 17 22 31
25 14 4 22 11 19 16 -3 6 -2 10 3 10 10 0 22 -23 22 -41 0 -4 -7 -6 -15 -3
-20 8 -20 -20 0 -36 9 -7 18 -10 22 -6 11 10 13 66 3 66 -6 0 -10 7 -10 15 0
8 -5 15 -12 15 -12 0 21 29 35 30 4 0 7 -15 8 -32 l0 -33 18 44 c12 31 20 39
24 28 3 -8 -1 -21 -9 -27 -19 -16 -18 -23 7 -51 11 -13 23 -36 26 -51 4 -19
10 -25 22 -21 9 4 13 3 9 -2 -4 -4 -4 -13 1 -19 12 -16 21 -57 11 -51 -5 3
-12 0 -15 -6 -5 -7 0 -10 11 -7 14 2 19 13 20 40 1 21 -3 35 -7 32 -5 -3 -9 0
-9 5 0 14 10 14 30 1 10 -7 11 -13 5 -17 -6 -5 -11 -23 -10 -42 0 -25 6 -37
23 -44 12 -6 22 -14 22 -19 0 -11 -2 -11 -45 8 -31 13 -40 13 -47 2 -8 -10 -9
-9 -5 3 3 9 1 22 -4 30 -6 10 -9 10 -9 2 0 -20 -18 -15 -58 15 -20 15 -32 21
-27 13 6 -11 4 -13 -9 -8 -10 4 -22 7 -28 7 -6 0 -6 6 2 15 10 12 10 15 -4 15
-9 0 -16 -6 -17 -12 -1 -7 -5 5 -10 26 -6 25 -6 42 0 46 6 3 6 11 2 19 -7 11
-11 9 -20 -8 -7 -12 -9 -26 -6 -31 3 -6 1 -10 -5 -10 -6 0 -10 -10 -9 -22 2
-13 -3 -34 -11 -48 -22 -38 -21 -53 1 -47 10 3 19 1 19 -4 0 -5 5 -9 10 -9 6
0 10 8 10 19 0 10 7 24 15 31 21 17 53 -15 38 -39 -14 -22 -55 -42 -68 -32
-18 15 -67 22 -79 12 -8 -6 -19 -3 -36 11 -14 11 -18 18 -9 15 13 -4 15 -1 12
14 -3 10 -10 19 -15 19 -6 0 -5 7 2 15 7 8 17 15 22 15 6 0 5 -7 -2 -15 -10
-12 -9 -16 4 -21 9 -3 16 -13 16 -21 0 -9 8 -6 25 11 14 14 25 30 25 36 0 5
-9 1 -20 -10 -12 -12 -25 -18 -31 -15 -5 4 1 15 13 26 13 12 17 18 10 14 -6
-3 -12 -1 -12 5 0 7 -7 10 -15 6 -8 -3 -15 -1 -15 4 0 6 -4 10 -10 10 -5 0
-10 -9 -10 -20 0 -14 -7 -20 -21 -20 -17 0 -19 -3 -10 -14 8 -10 8 -21 1 -40
-12 -33 -12 -36 -2 -35 4 1 14 1 22 0 13 -1 13 -2 0 -11 -13 -8 -13 -10 2 -10
9 0 18 6 21 13 3 8 10 6 23 -9 23 -26 55 -27 62 -2 2 10 8 15 13 12 5 -3 6
-10 3 -16 -4 -6 1 -6 14 1 22 12 30 2 27 -34 -1 -17 4 -20 29 -17 25 3 33 -2
42 -22 9 -19 9 -23 -2 -19 -7 2 -15 11 -18 19 -4 9 -14 12 -35 8 -21 -5 -35
-1 -51 14 -18 16 -25 18 -45 8 l-24 -11 27 -34 c25 -34 26 -35 2 -18 -16 11
-27 13 -35 7 -9 -8 -11 -4 -7 15 2 14 0 25 -5 25 -11 0 -14 -24 -7 -58 4 -21
7 -22 21 -10 12 9 15 9 9 1 -4 -8 -1 -13 9 -13 10 0 14 5 9 13 -5 9 -4 9 6 0
16 -15 21 -61 8 -69 -6 -4 -5 -10 3 -15 12 -7 11 -9 -1 -10 -8 -1 -31 -2 -50
-4 -19 -2 -38 -3 -42 -4 -13 -2 5 -41 19 -41 10 0 13 -6 9 -16 -3 -9 -6 -18
-6 -20 0 -2 -4 -4 -10 -4 -5 0 -10 7 -10 15 0 8 -5 15 -11 15 -6 0 -9 -6 -6
-14 3 -8 -3 -23 -14 -35 -24 -26 -17 -41 19 -41 25 1 26 2 9 14 -24 19 -12 41
23 42 30 1 40 -10 18 -19 -10 -4 -9 -6 1 -6 11 -1 11 -4 0 -18 -8 -9 -9 -14
-2 -10 6 4 29 9 50 11 21 2 47 7 58 10 11 4 9 1 -5 -6 -14 -7 -29 -18 -33 -25
-4 -7 -15 -13 -23 -13 -8 0 -12 -5 -9 -11 5 -6 22 -8 46 -4 25 4 45 3 53 -4
10 -9 17 -8 28 1 23 22 38 19 38 -6 0 -18 5 -23 17 -20 10 2 25 0 33 -6 13 -9
13 -11 0 -20 -9 -6 -18 -6 -24 0 -15 15 -34 12 -55 -9 -21 -21 -18 -32 7 -25
14 5 14 4 0 -6 -18 -11 -25 -31 -10 -29 19 3 23 -2 12 -16 -7 -9 -10 -18 -7
-21 3 -3 13 6 22 20 14 22 20 23 41 14 13 -6 24 -15 24 -20 0 -4 7 -8 15 -8 8
0 15 -6 15 -14 0 -16 28 -41 37 -33 3 4 0 13 -7 22 -11 13 -7 13 26 -1 27 -12
43 -13 55 -6 12 8 20 6 32 -8 16 -19 13 -30 -10 -30 -10 0 -12 7 -8 23 3 12 3
17 -2 11 -11 -15 -53 -24 -53 -12 0 6 -7 5 -16 -3 -10 -8 -12 -15 -5 -17 6 -2
9 -8 5 -13 -3 -5 -1 -9 3 -9 5 0 18 -7 29 -16 18 -14 18 -15 0 -6 -22 11 -56
4 -56 -10 0 -6 7 -8 15 -4 19 7 19 -5 0 -30 -14 -19 -14 -19 -15 0 0 26 -8 17
-14 -16 -5 -30 12 -49 47 -53 37 -4 38 -5 32 -15 -4 -6 -11 -8 -16 -5 -5 4 -9
-4 -9 -16 0 -21 -1 -22 -20 -4 -18 16 -20 16 -26 1 -3 -9 -10 -13 -15 -10 -20
12 -7 -39 14 -57 19 -16 19 -18 5 -19 -10 0 -18 -4 -18 -9 0 -18 29 -32 54
-25 28 7 34 -4 14 -25 -11 -11 -10 -13 2 -9 8 3 16 14 18 26 3 18 -2 22 -22
22 -14 0 -26 4 -26 10 0 11 75 9 86 -3 4 -4 18 -7 31 -7 13 0 23 -5 23 -11 0
-7 -10 -9 -24 -5 -19 5 -26 1 -31 -14 -4 -12 -11 -17 -18 -13 -7 4 -5 -1 3
-11 9 -12 16 -14 18 -7 3 8 9 5 18 -6 7 -10 14 -13 14 -6 0 6 9 9 20 6 23 -6
27 -23 5 -23 -8 0 -15 -8 -15 -17 0 -14 -3 -13 -21 6 -16 16 -24 19 -34 11 -7
-6 -11 -19 -8 -30 4 -15 1 -18 -18 -13 -13 4 -18 8 -11 11 6 2 12 8 12 13 0 5
-13 3 -30 -6 -21 -11 -30 -12 -30 -4 0 7 -3 10 -6 7 -3 -4 0 -16 6 -28 11 -20
10 -21 -12 -9 -13 6 -31 18 -41 27 -11 10 -17 11 -17 4 0 -7 -4 -12 -9 -12 -6
0 -8 9 -6 20 2 11 0 22 -6 25 -5 4 -9 -5 -9 -19 0 -14 -5 -26 -11 -26 -5 0 -7
-5 -4 -10 3 -6 -1 -13 -9 -16 -16 -6 -12 -24 5 -24 6 0 8 4 5 8 -7 11 97 12
115 1 12 -8 12 -10 -1 -19 -8 -5 -21 -8 -27 -5 -7 2 -13 -1 -13 -8 0 -7 -11
-13 -25 -13 -15 -1 -25 3 -25 12 0 8 -4 14 -10 14 -5 0 -7 -7 -4 -15 4 -8 2
-15 -3 -15 -13 0 -12 -33 1 -42 7 -5 4 -8 -6 -8 -24 0 -39 31 -26 54 5 9 7 20
4 23 -3 4 -6 1 -6 -5 0 -7 -7 -12 -15 -12 -9 0 -12 6 -9 15 4 10 0 15 -15 15
-16 0 -21 -6 -21 -27 -1 -23 -2 -25 -10 -11 -6 9 -11 27 -12 41 -1 16 -7 23
-16 20 -9 -4 -10 -9 -3 -16 14 -14 14 -37 -1 -70 -17 -35 -25 -34 -25 3 0 16
4 27 9 24 4 -3 8 1 8 8 0 16 -15 40 -24 39 -3 -1 -7 2 -8 7 -1 4 -8 13 -16 21
-13 13 -12 16 4 21 16 6 15 8 -7 13 -19 6 -21 9 -9 16 12 9 12 11 -3 17 -16 6
-16 8 4 25 26 23 30 23 23 5 -3 -7 3 -16 12 -20 25 -10 28 -1 9 28 -14 21 -20
24 -31 15 -12 -10 -13 -9 -8 5 7 19 9 18 -78 20 -37 1 -61 -2 -55 -6 8 -5 6
-8 -5 -8 -10 0 -18 5 -18 10 0 6 -5 10 -11 10 -8 0 -7 -5 2 -16 10 -13 10 -17
-1 -24 -9 -6 -18 -3 -26 8 -10 14 -13 14 -25 -6 -8 -12 -17 -22 -22 -22 -10 0
12 42 32 58 15 12 15 13 0 9 -9 -3 -31 8 -50 23 -18 16 -35 27 -38 24 -2 -2 4
-11 15 -20 13 -11 15 -17 6 -20 -17 -8 -5 -24 13 -17 17 6 19 -5 6 -26 -7 -11
-14 -11 -40 2 -17 8 -33 12 -36 8 -7 -12 5 -21 27 -21 10 0 18 -4 18 -10 0 -5
-4 -10 -10 -10 -5 0 -10 -10 -10 -22 0 -18 2 -20 10 -8 8 12 10 12 16 -3 8
-22 -3 -50 -16 -42 -6 4 -8 11 -5 16 4 5 1 9 -4 9 -17 0 -13 -30 4 -36 12 -5
13 -10 4 -20 -9 -11 -8 -14 7 -15 14 0 15 -2 4 -6 -32 -12 -50 -36 -44 -57 6
-18 5 -19 -8 -8 -12 10 -18 9 -27 -2 -10 -12 -8 -17 7 -25 15 -8 24 -6 41 8
14 12 18 22 11 26 -5 3 -10 14 -10 23 1 14 4 13 19 -5 19 -23 60 -27 73 -8 5
6 8 4 8 -6 0 -23 -11 -31 -26 -18 -9 7 -15 5 -22 -8 -9 -15 -6 -18 19 -20 15
-1 31 2 34 7 4 6 17 10 31 10 13 0 24 5 24 11 0 5 -4 7 -10 4 -5 -3 -10 0 -10
8 0 10 7 13 20 10 23 -6 24 -8 10 -34 -10 -18 -7 -19 49 -19 47 0 62 4 70 18
10 15 10 16 11 0 0 -15 16 -17 158 -16 86 1 149 3 139 5 -10 3 -29 10 -43 18
-21 11 -22 14 -8 19 9 4 22 0 28 -8 16 -19 56 -27 79 -14 15 8 18 7 12 -3 -6
-9 -2 -11 13 -7 12 3 22 2 24 -4 5 -14 38 2 38 18 0 21 31 17 37 -5 4 -17 13
-19 71 -17 53 2 66 5 64 16 -2 8 -8 20 -14 25 -7 7 -9 6 -5 -1 9 -15 -15 -25
-33 -14 -9 6 -8 10 6 18 15 8 16 13 5 26 -18 21 -2 20 22 -1 19 -18 19 -17 3
22 l-16 40 27 -30 c15 -16 24 -22 20 -13 -3 9 -1 19 6 22 7 2 5 5 -4 5 -9 1
-20 8 -23 17 -3 8 -10 12 -16 9 -6 -3 -13 1 -16 9 -9 23 -27 20 -19 -3 3 -11
1 -22 -5 -26 -5 -3 -10 -1 -10 4 0 6 -5 11 -11 11 -5 0 -7 -5 -3 -12 4 -7 3
-8 -5 -4 -9 6 -9 11 0 22 9 11 9 14 0 14 -7 0 -9 5 -6 10 4 6 11 8 16 5 5 -4
6 2 2 11 -4 11 -8 13 -11 6 -2 -7 -8 -12 -14 -12 -5 0 -8 6 -6 12 3 7 -4 20
-15 29 -21 17 -18 49 5 49 9 0 9 -3 1 -11 -21 -21 20 -53 57 -46 19 4 29 3 25
-3 -3 -6 -13 -10 -22 -10 -22 0 -8 -13 18 -17 12 -2 18 1 14 7 -3 5 -1 10 5
10 6 0 13 -14 17 -31 5 -24 10 -30 26 -25 11 2 31 -3 46 -12 25 -16 25 -16 12
1 -12 15 -11 17 2 17 9 0 19 -4 22 -10 8 -13 85 -13 85 0 0 5 -18 15 -40 21
-37 11 -55 29 -29 29 5 0 7 5 4 10 -3 6 -16 10 -28 10 -15 0 -18 -3 -9 -8 22
-15 3 -41 -29 -40 -30 1 -53 18 -25 18 19 0 21 19 3 26 -8 3 -14 10 -14 17 0
7 -4 21 -8 32 -5 11 -5 17 0 13 4 -4 14 -3 22 4 11 9 12 7 6 -8 -6 -16 -5 -17
9 -6 14 11 20 9 42 -15 14 -15 26 -23 26 -17 0 5 -5 15 -12 22 -6 6 -9 15 -5
18 9 9 38 -16 31 -27 -3 -5 3 -12 13 -16 10 -4 21 -11 25 -17 4 -6 8 1 8 15 0
15 7 30 16 33 24 9 27 8 19 -11 -5 -14 -4 -15 6 -6 10 10 9 17 -7 34 -10 13
-13 19 -6 15 15 -9 16 6 0 22 -9 9 -9 12 0 12 6 0 9 7 6 15 -4 8 -1 15 5 15 6
0 10 -6 9 -12 -2 -7 7 -14 20 -16 12 -2 22 2 22 8 0 6 -5 8 -10 5 -5 -3 -10
-1 -10 4 0 6 8 11 18 11 16 1 16 1 -1 11 -25 15 -10 31 23 24 16 -3 31 -2 35
4 3 7 0 8 -9 5 -11 -4 -16 0 -16 10 0 12 -10 16 -37 17 -22 1 -29 3 -18 6 24
6 44 23 27 23 -7 0 -12 5 -12 11 0 6 7 9 15 5 9 -3 15 0 15 8 0 8 -5 16 -12
18 -7 3 -8 10 -2 20 8 14 16 12 66 -20 31 -21 59 -47 62 -59 5 -17 14 -23 36
-23 18 0 29 5 28 12 -2 7 2 12 9 13 7 0 19 9 27 20 14 18 15 18 16 3 0 -10 -4
-18 -10 -18 -5 0 -10 -6 -10 -14 0 -8 -6 -17 -13 -19 -6 -3 -2 -6 11 -6 16 -1
21 3 16 12 -6 10 -4 10 7 0 18 -18 30 -16 23 2 -4 8 -1 15 6 15 10 0 10 3 0
15 -12 15 -4 20 23 16 4 0 7 11 7 25 0 17 -6 28 -20 31 -11 3 -20 9 -20 14 0
13 14 11 28 -3 9 -9 15 -9 25 1 7 8 7 11 1 8 -7 -4 -14 2 -17 13 -4 17 -2 18
13 10 16 -8 18 -7 15 10 -2 12 2 20 10 20 15 0 28 27 15 35 -4 3 -15 -1 -23
-10 -13 -13 -16 -13 -28 1 -8 10 -15 12 -23 4 -5 -5 -18 -10 -27 -10 -17 0
-32 -23 -22 -34 13 -13 35 -6 29 9 -3 8 -1 15 4 15 14 0 19 -15 10 -29 -14
-23 -59 -5 -67 27 -3 15 -13 32 -22 39 -10 8 -11 12 -4 13 6 0 14 -4 18 -10 8
-13 33 -2 40 18 3 11 17 17 37 18 17 1 37 9 43 18 7 9 19 14 28 10 8 -3 18 -1
22 5 3 6 16 11 28 11 22 -1 22 -1 3 -15 -17 -13 -17 -15 -4 -15 9 0 20 5 24
11 4 8 9 7 15 -2 6 -11 9 -10 14 3 6 14 11 15 31 6 20 -9 28 -8 45 7 17 16 23
17 40 7 10 -7 19 -8 19 -3 0 6 -8 15 -17 20 -16 9 -17 10 -1 11 9 0 20 -9 23
-20 3 -11 10 -20 15 -20 5 0 7 -7 3 -16 -4 -12 0 -14 23 -9 23 4 25 3 9 -4
-11 -5 -32 -10 -47 -10 -16 -1 -28 -6 -28 -11 0 -6 10 -10 23 -9 36 3 59 0 53
-9 -4 -7 -22 -8 -100 -3 -4 1 -5 9 -2 19 6 16 5 16 -8 0 -7 -10 -20 -18 -28
-18 -23 0 -28 -11 -13 -26 18 -18 26 -18 19 1 -4 8 -1 15 5 15 6 0 11 -7 11
-15 0 -8 6 -15 13 -15 7 0 22 -7 33 -16 10 -8 13 -13 7 -9 -7 3 -13 1 -13 -4
0 -6 7 -11 15 -11 8 0 15 -4 15 -9 0 -5 -12 -6 -27 -2 -16 5 -27 14 -25 20 1
7 -2 9 -8 6 -6 -4 -9 -13 -6 -21 3 -8 0 -14 -7 -13 -31 4 -40 -3 -17 -13 14
-6 31 -10 39 -9 7 1 10 -2 6 -8 -3 -6 -13 -11 -22 -11 -9 0 -13 -6 -10 -14 4
-10 1 -13 -9 -9 -10 4 -12 0 -8 -11 6 -16 -32 -64 -46 -59 -3 1 -5 -9 -5 -22
0 -13 3 -21 8 -18 4 2 7 11 7 19 0 14 16 18 53 14 19 -2 49 29 41 42 -5 8 12
11 56 9 22 -1 23 0 5 8 -19 8 -19 8 3 15 12 4 20 12 17 17 -4 5 2 8 12 7 10 0
27 0 38 1 20 2 20 2 1 16 -23 18 -9 19 31 4 22 -8 24 -12 13 -20 -13 -8 -13
-10 0 -20 15 -11 10 -10 -30 4 -3 1 -5 -2 -5 -8 0 -5 3 -9 7 -8 5 2 7 -2 5 -8
-1 -6 4 -14 12 -17 8 -3 11 0 7 7 -4 6 -1 11 8 11 20 0 31 -19 17 -33 -16 -16
-14 -34 4 -34 8 0 12 4 9 9 -3 5 -1 14 4 21 5 7 13 22 16 34 6 18 4 22 -9 17
-13 -5 -15 -1 -10 25 4 26 2 31 -14 31 -24 0 -47 26 -29 33 7 3 3 6 -10 6 -13
1 -21 -3 -18 -7 2 -4 -9 -9 -25 -10 -16 -1 -29 2 -29 7 0 5 10 7 21 4 19 -5
20 -4 10 16 -9 16 -9 21 0 21 6 0 8 7 5 16 -3 8 -2 12 4 9 6 -3 10 -14 10 -23
0 -13 2 -13 15 4 8 10 15 14 15 7 0 -6 9 -15 20 -18 16 -5 19 -12 14 -33 l-6
-27 16 29 c15 27 13 52 -3 41 -5 -2 -21 6 -36 19 l-28 24 36 0 c28 0 34 -3 30
-15 -5 -13 1 -14 34 -8 32 5 42 3 46 -9 4 -9 13 -16 21 -16 7 0 17 -10 21 -23
l8 -22 4 23 c5 23 27 30 39 10 4 -6 0 -16 -8 -22 -17 -13 -20 -48 -4 -58 7 -4
4 -13 -7 -26 -12 -13 -13 -19 -5 -19 7 0 21 -4 31 -8 10 -4 17 -3 17 4 0 6 -8
11 -17 11 -12 0 -14 3 -6 8 7 4 11 25 10 50 -2 23 1 42 6 42 4 0 6 4 3 9 -4 5
-1 11 5 13 6 2 11 21 12 43 l1 39 12 -30 c8 -20 9 -33 2 -41 -6 -7 -7 -13 -4
-13 4 0 3 -8 -3 -17 -7 -14 -2 -23 29 -45 38 -28 59 -83 36 -91 -6 -2 6 -4 26
-5 29 -1 36 2 31 13 -3 8 0 15 7 15 6 0 9 -4 6 -8 -9 -15 11 -33 40 -36 16 -2
29 -5 29 -6 0 -1 11 -4 25 -6 13 -2 27 -10 32 -16 4 -7 11 -9 15 -4 4 4 -4 17
-20 28 -15 11 -25 24 -22 28 3 5 1 11 -5 15 -5 3 -10 11 -10 17 0 6 8 3 19 -8
10 -10 16 -23 14 -27 -3 -5 5 -3 16 5 19 12 20 13 4 17 -10 2 -22 9 -28 16 -5
8 -21 15 -35 17 -17 2 -25 9 -24 20 1 10 -2 15 -7 12 -5 -3 -9 -12 -9 -20 0
-8 -5 -14 -10 -14 -16 0 -23 29 -11 44 6 7 8 16 4 20 -4 3 13 4 36 1 37 -5 43
-3 48 16 4 16 11 19 29 15 17 -5 24 -2 24 8 0 9 -7 13 -22 9 -17 -3 -19 -2
-10 5 18 12 11 56 -9 60 -9 1 -16 -4 -16 -12 0 -8 6 -12 14 -9 8 3 13 -2 13
-12 0 -12 -5 -15 -16 -11 -13 5 -15 2 -11 -14 3 -11 1 -20 -5 -20 -5 0 -12 9
-15 20 -3 11 -12 20 -20 20 -8 0 -11 -5 -8 -10 4 -6 -6 -10 -22 -9 -15 0 -22
3 -15 6 21 8 2 23 -23 17 -12 -3 -26 -1 -29 5 -4 7 -1 8 8 5 11 -4 16 0 16 10
0 13 4 15 19 6 30 -16 46 -13 31 5 -10 12 -9 15 4 15 10 0 14 5 11 10 -3 6 -1
10 6 10 9 0 9 3 0 14 -10 12 -8 13 8 9 23 -6 28 -19 9 -26 -7 -2 -10 -7 -7
-11 12 -12 38 5 32 21 -4 10 -2 14 4 10 6 -4 13 -3 15 3 2 6 9 6 18 -1 11 -8
12 -12 3 -16 -20 -8 -15 -23 7 -23 11 0 20 7 20 15 0 20 19 19 27 -2 4 -10 1
-19 -6 -21 -9 -3 -8 -9 5 -23 20 -23 8 -26 -16 -4 -16 14 -17 14 -13 -9 3 -14
12 -27 20 -30 8 -4 11 -2 7 5 -4 7 0 9 13 5 14 -5 20 -2 20 11 0 10 -4 23 -9
30 -12 16 -1 34 16 27 8 -3 12 -13 9 -24 -3 -10 0 -21 7 -25 8 -5 8 -10 -1
-21 -9 -11 -8 -14 5 -14 9 0 16 -4 16 -8 0 -9 -47 -9 -56 1 -12 12 -34 -6 -34
-27 1 -19 2 -20 14 -4 7 10 16 14 20 10 4 -4 13 -7 19 -7 7 0 11 -11 10 -23
-2 -13 1 -21 7 -17 6 3 10 2 10 -3 0 -5 -10 -14 -22 -21 l-23 -12 23 5 c15 3
22 -1 22 -11 0 -8 -5 -11 -12 -7 -7 4 -5 -2 6 -14 10 -12 23 -19 27 -16 5 3 9
0 9 -5 0 -6 7 -11 15 -11 8 0 15 -4 15 -10 0 -11 -13 -13 -23 -4 -4 4 -29 9
-56 11 -38 3 -50 0 -55 -13 -10 -26 14 -47 46 -40 16 3 28 1 28 -5 0 -6 4 -8
10 -4 5 3 4 -9 -3 -27 -8 -23 -12 -28 -15 -15 -2 9 -8 17 -13 17 -6 0 -7 -5
-3 -11 4 -7 0 -9 -14 -5 -13 4 -22 1 -26 -9 -3 -8 -1 -15 4 -15 6 0 10 -4 10
-10 0 -5 -6 -10 -14 -10 -17 0 -27 35 -14 48 16 16 -8 51 -32 45 -22 -6 -28
-23 -7 -23 7 0 12 -14 13 -34 0 -27 -3 -32 -18 -28 -16 4 -22 14 -19 34 0 4
-6 5 -15 1 -13 -5 -11 -11 12 -33 27 -25 53 -30 93 -19 7 2 16 -2 19 -10 3
-10 -1 -13 -16 -9 -21 6 -38 -15 -27 -32 3 -4 -4 -6 -15 -3 -11 3 -20 13 -21
22 0 14 -1 14 -7 1 -8 -16 -39 -20 -59 -7 -9 6 -11 3 -6 -8 3 -10 0 -21 -8
-26 -11 -7 -9 -9 8 -9 16 0 20 -5 16 -20 -3 -11 -10 -20 -15 -20 -6 0 -6 -6 1
-14 7 -8 8 -17 3 -20 -6 -3 -15 1 -22 9 -16 20 -40 19 -40 -1 0 -12 6 -15 21
-11 15 4 23 0 26 -14 7 -24 12 -24 30 -2 14 17 14 17 9 0 -3 -10 -6 -26 -6
-35 0 -13 -2 -14 -9 -4 -4 7 -12 12 -17 11 -21 -4 -34 2 -34 15 0 10 -7 13
-21 11 -15 -3 -19 0 -15 10 7 20 -14 19 -42 -1 -12 -8 -27 -12 -32 -9 -17 11
-11 -7 7 -21 10 -7 14 -16 10 -20 -4 -5 -12 -3 -16 5 -6 9 -10 5 -13 -14 -4
-19 -2 -23 5 -16 16 16 25 13 23 -5 0 -10 8 -18 23 -20 20 -4 22 -2 11 11 -11
13 -10 14 6 8 16 -6 17 -4 7 8 -18 23 -1 38 20 17 9 -10 12 -18 6 -18 -6 0 -4
-7 5 -15 23 -23 228 -22 247 2 12 15 12 16 -6 10 -20 -7 -20 -7 -1 8 19 15 19
15 -2 15 -12 0 -22 5 -22 10 0 6 6 10 12 10 7 0 2 7 -10 16 -21 14 -22 41 -1
29 5 -3 6 0 3 8 -4 11 1 13 20 10 21 -4 24 -8 16 -23 -8 -15 -6 -17 9 -13 11
3 18 -1 18 -11 0 -8 -4 -13 -9 -10 -4 3 -13 2 -20 -2 -7 -5 -5 -11 7 -21 11
-7 14 -13 9 -13 -21 0 -10 -31 13 -36 17 -5 31 0 47 15 12 12 25 18 29 15 4
-4 9 1 13 10 7 18 25 22 21 5 -1 -7 10 -15 24 -19 20 -6 29 -3 39 14 12 18 11
19 -2 9 -12 -11 -14 -8 -10 18 4 29 3 30 -17 20 -13 -7 -19 -17 -15 -24 4 -7
-1 -4 -12 5 -13 11 -24 14 -30 8 -6 -6 -15 -6 -24 0 -10 6 -11 10 -3 10 17 0
5 28 -15 34 -10 3 0 4 21 3 20 -2 37 1 37 5 0 4 3 7 8 7 4 -1 16 -1 27 0 17 1
18 3 5 11 -13 9 -13 11 0 20 8 5 11 10 6 10 -6 0 -1 7 10 15 10 8 15 15 11 15
-4 0 -3 8 2 17 7 15 5 18 -17 19 -15 1 -21 -1 -14 -3 6 -3 9 -9 6 -15 -4 -6 0
-14 7 -19 12 -7 12 -9 0 -9 -8 0 -20 8 -27 17 -13 16 -13 15 -5 -9 13 -35 -16
-49 -41 -19 -18 23 -34 29 -22 9 6 -10 5 -10 -7 -1 -8 6 -27 10 -42 9 -15 -2
-27 1 -27 7 0 5 9 7 20 4 11 -3 20 -1 20 4 0 4 8 6 18 2 13 -5 14 -3 5 7 -6 7
-23 13 -37 13 -14 0 -26 3 -26 8 0 9 15 13 38 10 7 -1 15 5 18 14 8 19 24 20
24 2 0 -8 10 -22 21 -33 22 -19 22 -19 10 4 -13 24 -7 27 49 24 22 -1 20 0 -8
11 -23 9 -30 15 -22 23 8 8 4 11 -14 10 -14 -1 -28 -5 -32 -9 -15 -15 -24 -6
-18 18 5 21 3 25 -15 25 -12 0 -21 4 -21 9 0 14 43 1 57 -17 11 -13 13 -13 19
2 4 9 13 15 20 12 22 -8 16 2 -7 15 -15 8 -19 8 -15 0 9 -14 4 -14 -29 -1 -14
5 -23 14 -20 20 3 5 2 10 -4 10 -6 0 -8 7 -4 16 6 16 7 16 18 0 13 -18 80 -22
90 -6 3 6 23 9 43 9 22 -1 29 -3 17 -6 -11 -3 -25 -10 -32 -15 -7 -5 -16 -8
-20 -5 -4 2 -17 1 -28 -4 -15 -6 -10 -8 22 -8 23 -1 43 3 45 8 2 5 22 11 44
14 33 5 45 2 59 -13 22 -24 35 -26 35 -5 0 8 5 15 10 15 6 0 10 -4 10 -9 0 -5
10 -11 23 -15 19 -5 20 -8 7 -17 -13 -9 -13 -10 2 -6 9 3 19 1 22 -6 3 -8 5
-8 5 2 1 7 -9 22 -21 33 l-23 20 26 -7 c16 -4 30 -2 33 4 10 16 36 13 36 -4 0
-8 -9 -15 -20 -15 -38 0 -20 -15 21 -17 24 -2 38 1 34 7 -3 6 -2 10 4 10 5 0
13 -5 16 -10 4 -6 11 -8 16 -4 5 3 9 2 8 -3 -3 -18 14 -53 26 -53 7 0 15 -7
19 -15 6 -17 -5 -20 -20 -5 -6 6 -15 6 -24 0 -12 -8 -10 -10 8 -10 12 0 22 -5
22 -11 0 -8 4 -8 13 -1 16 14 37 11 70 -11 33 -22 43 -22 26 0 -12 15 -12 16
5 10 17 -7 17 -6 5 9 -8 10 -13 19 -11 21 1 1 2 6 1 11 0 4 -4 -3 -10 -16 -8
-22 -10 -22 -25 -7 -9 9 -23 14 -31 11 -15 -6 -63 39 -63 58 0 6 5 3 11 -7 7
-12 17 -15 33 -11 14 3 27 1 31 -6 6 -9 9 -9 15 0 6 9 13 9 29 1 11 -7 21 -8
21 -3 0 6 -9 12 -21 15 -21 6 -22 34 -1 30 5 -1 13 4 16 13 4 11 2 12 -13 5
-28 -16 -62 -9 -78 16 -11 16 -19 20 -27 14 -8 -7 -12 -4 -13 10 -1 13 4 19
15 18 32 -3 43 1 36 13 -5 7 -3 8 6 3 7 -4 16 -2 20 5 6 9 13 7 30 -10 21 -21
23 -21 39 -6 14 15 14 18 1 26 -9 6 -16 6 -18 0 -2 -5 -10 -6 -18 -3 -13 5
-13 8 -2 15 9 7 7 8 -7 3 -52 -19 -108 -10 -74 11 8 5 9 3 4 -6 -5 -9 -4 -11
3 -6 21 13 13 26 -15 26 -14 0 -23 3 -19 8 13 12 60 8 75 -7 13 -11 18 -10 33
9 20 25 25 55 6 44 -8 -5 -9 0 -6 14 4 14 2 22 -7 22 -8 0 -11 -8 -8 -22 4
-22 4 -22 -11 -4 -19 23 -12 36 20 36 14 0 24 -6 24 -15 0 -9 6 -12 16 -8 13
5 13 7 2 14 -11 8 -11 11 1 18 8 5 11 16 8 24 -3 9 1 18 9 21 24 9 26 7 16
-10 -11 -20 14 -55 34 -47 10 3 14 -3 13 -18 0 -13 -3 -18 -6 -11 -2 6 -9 12
-14 12 -6 0 -7 -4 -4 -10 3 -5 2 -10 -3 -10 -6 0 -13 11 -16 25 -4 14 -11 25
-17 25 -6 0 -6 -6 0 -19 8 -14 5 -23 -15 -40 -22 -19 -23 -23 -9 -37 19 -20
20 -30 0 -14 -13 11 -14 10 -9 -4 4 -10 13 -15 20 -12 18 7 74 -13 74 -27 0
-6 7 -19 16 -29 15 -16 15 -18 1 -24 -9 -3 -13 -12 -10 -20 3 -8 1 -14 -3 -14
-12 1 -41 24 -40 32 1 3 -2 9 -5 12 -13 13 -5 -30 8 -46 9 -9 12 -22 7 -30 -4
-7 2 -5 13 5 20 17 21 17 26 -1 2 -11 1 -26 -3 -33 -20 -31 45 -99 95 -99 27
0 32 9 13 28 -15 15 -28 16 -28 2 0 -5 8 -10 17 -10 9 0 14 -3 10 -6 -12 -12
-59 6 -53 21 3 8 0 17 -6 21 -12 8 9 24 32 24 13 0 13 -1 0 -10 -11 -7 -7 -9
15 -7 22 1 30 -2 30 -15 0 -25 12 -31 18 -9 3 13 -3 23 -22 32 -31 16 -41 28
-41 49 0 13 2 13 9 1 5 -8 16 -16 24 -17 8 -1 24 -5 36 -9 33 -10 25 5 -9 16
-16 6 -28 15 -25 19 3 5 -2 16 -11 24 -9 9 -11 16 -4 16 6 0 8 5 5 10 -9 14 7
12 30 -4 11 -8 35 -12 53 -10 23 3 32 0 32 -11 0 -8 -9 -15 -20 -15 -16 0 -19
-6 -18 -35 1 -41 33 -80 33 -40 0 13 -4 21 -9 18 -5 -4 -6 -1 -2 5 10 16 46
15 46 0 0 -7 11 -21 24 -30 23 -17 24 -17 24 10 0 15 -5 32 -10 39 -11 13 -3
33 13 33 6 0 7 -4 4 -10 -3 -5 -1 -19 6 -31 17 -32 18 -67 2 -73 -8 -3 -11
-10 -8 -16 14 -22 -14 -8 -29 15 -9 14 -21 25 -27 25 -6 0 -3 -7 5 -16 17 -17
22 -59 6 -49 -6 4 -8 11 -5 16 4 5 0 9 -8 9 -8 0 -26 10 -41 21 -34 27 -41 20
-30 -28 4 -21 7 -50 6 -65 -2 -21 2 -26 13 -22 8 4 15 1 15 -5 0 -6 8 -8 18
-4 9 3 14 3 10 -2 -4 -4 5 -18 20 -30 20 -16 36 -22 55 -18 15 3 27 9 27 14 0
14 74 11 89 -3 11 -11 13 -10 8 3 -4 13 -1 15 14 12 30 -8 25 31 -6 45 -14 6
-25 17 -24 24 0 10 2 10 6 1 6 -15 23 -17 23 -3 0 18 -44 49 -67 48 -23 -2
-23 -3 -4 -18 17 -12 19 -22 15 -51 -4 -22 -12 -36 -21 -36 -9 0 -12 7 -9 19
20 64 20 63 4 48 -9 -8 -13 -21 -10 -29 5 -14 4 -14 -46 6 -8 4 -10 0 -5 -13
5 -14 3 -16 -12 -11 -14 6 -15 5 -7 -6 8 -10 6 -13 -9 -14 -11 -1 -17 2 -14 8
6 9 -8 18 -42 24 -10 2 -20 4 -23 5 -3 0 3 5 13 11 13 8 22 7 33 -2 12 -10 13
-9 8 5 -3 9 -11 16 -16 16 -17 0 -58 49 -58 68 1 14 3 14 13 -3 7 -11 18 -21
26 -23 7 -1 20 -9 28 -18 9 -9 23 -12 35 -8 13 4 18 2 14 -4 -4 -6 2 -16 13
-21 28 -15 36 -14 21 4 -7 9 -10 19 -6 22 4 4 11 1 16 -7 5 -8 12 -11 16 -7 9
9 -16 38 -27 31 -5 -3 -9 2 -9 10 0 10 6 13 16 9 13 -5 14 0 8 33 -3 22 -11
45 -17 52 -17 22 5 13 25 -10 11 -13 15 -24 9 -26 -6 -2 -8 -8 -5 -13 3 -6 11
-6 20 2 7 6 11 15 8 20 -3 5 -1 9 4 9 18 0 21 -29 4 -34 -9 -3 -3 -4 14 -3 17
2 35 -2 40 -8 25 -29 38 -48 28 -42 -22 13 -25 -25 -4 -43 16 -14 18 -22 10
-48 -5 -18 -6 -32 -2 -32 4 0 0 -5 -8 -10 -12 -8 -12 -10 5 -10 17 0 17 -2 5
-10 -16 -10 -8 -14 23 -11 9 1 17 -3 17 -8 0 -6 -13 -11 -29 -11 -16 0 -31 -6
-35 -15 -3 -8 -1 -15 4 -15 6 0 10 4 10 9 0 13 71 5 80 -9 4 -7 7 -1 8 14 0
14 -5 26 -10 26 -5 0 -6 -6 -2 -12 4 -7 3 -9 -1 -5 -16 14 -17 57 -1 57 21 0
8 37 -16 43 -16 5 -19 2 -15 -14 3 -13 1 -19 -6 -16 -15 5 -9 59 7 69 7 5 4 8
-8 8 -15 0 -17 6 -14 30 3 16 1 30 -4 30 -5 0 -6 5 -3 10 4 7 11 7 18 2 7 -5
30 -13 52 -17 l40 -7 -27 22 c-16 12 -28 30 -28 41 0 16 2 18 14 7 8 -7 14
-15 14 -18 -1 -20 3 -32 9 -27 3 4 17 0 29 -8 14 -9 25 -11 29 -5 3 6 -1 10
-9 10 -17 0 -59 50 -50 59 3 3 10 -1 14 -9 27 -43 28 -44 44 -31 13 11 19 11
31 1 12 -10 19 -10 27 -2 7 7 19 12 28 11 10 0 11 -2 2 -6 -6 -2 -10 -9 -7
-13 3 -5 0 -18 -6 -28 -9 -14 -9 -24 -1 -38 11 -19 11 -19 12 0 0 15 3 17 11
9 6 -6 19 -9 28 -6 12 4 13 3 2 -5 -18 -13 -6 -49 20 -57 19 -6 24 -17 13 -28
-4 -4 -22 9 -40 29 -23 23 -34 30 -34 20 0 -9 5 -16 10 -16 6 0 10 -7 10 -16
0 -9 5 -13 13 -9 6 4 1 -3 -13 -16 -17 -14 -21 -23 -13 -26 15 -5 18 -33 4
-33 -5 0 -11 6 -14 14 -7 19 -75 17 -82 -2 -3 -8 -11 -12 -19 -9 -8 3 -22 -1
-33 -8 -11 -9 -13 -14 -5 -15 7 0 10 -4 7 -10 -3 -6 5 -10 19 -10 14 0 28 5
31 10 4 6 3 10 -2 9 -4 -1 -12 -1 -18 0 -13 2 44 31 60 31 20 0 24 -24 6 -37
-13 -9 5 -12 84 -12 65 1 102 5 107 12 6 9 8 9 8 0 0 -7 7 -13 15 -13 12 0 12
3 -2 18 -10 11 -21 17 -25 15 -9 -4 -48 33 -48 46 0 5 10 11 21 14 15 4 20 11
15 22 -5 13 -1 15 17 9 22 -7 37 -21 37 -38 0 -5 -9 -1 -21 10 -20 18 -20 18
-14 -9 6 -22 4 -26 -9 -21 -9 4 -16 1 -16 -6 0 -8 9 -11 25 -8 13 3 23 2 20
-1 -2 -4 0 -13 6 -21 6 -11 9 -11 9 -2 0 10 3 10 14 0 8 -7 12 -15 11 -18 -2
-3 5 -7 16 -7 21 -2 26 12 7 21 -7 3 -2 3 11 0 16 -4 21 -3 17 5 -4 6 -14 11
-22 11 -13 0 -18 12 -15 33 0 4 -3 7 -8 7 -5 0 -11 9 -14 21 -3 13 -1 19 6 16
7 -2 12 -8 12 -13 1 -5 7 -20 14 -32 10 -18 18 -22 37 -18 14 4 24 2 24 -4 0
-6 -4 -8 -10 -5 -5 3 -10 -3 -10 -14 0 -10 -6 -21 -12 -24 -7 -2 16 -5 51 -6
52 -1 67 2 82 17 13 15 15 22 6 31 -9 9 -8 11 4 6 12 -4 18 1 23 20 8 32 1 45
-25 45 -10 0 -18 3 -18 8 1 4 1 14 0 22 -1 13 -2 13 -11 0 -5 -8 -10 -10 -10
-4 0 7 -8 14 -17 18 -10 3 -23 9 -30 12 -6 3 -13 -1 -16 -8 -2 -7 -3 -5 -2 5
2 9 -1 17 -6 17 -5 0 -9 4 -9 10 0 5 14 1 32 -10 17 -10 36 -16 42 -12 21 13
36 10 36 -8 0 -23 26 -44 45 -37 15 6 28 -7 31 -31 2 -8 6 -21 9 -30 6 -14 8
-13 16 7 7 17 6 27 -2 32 -6 4 -9 11 -5 17 3 5 -1 15 -9 22 -13 11 -14 10 -9
-6 4 -12 -3 -8 -20 11 -14 17 -25 33 -26 36 0 4 -11 10 -25 13 -16 4 -23 11
-19 18 5 7 0 9 -14 6 -12 -4 -23 0 -26 8 -9 23 55 4 81 -24 20 -21 67 -52 79
-52 2 0 4 7 4 15 0 28 15 15 17 -15 2 -22 -1 -29 -10 -23 -9 5 -9 3 0 -8 7 -9
11 -25 8 -36 -3 -20 21 -41 33 -28 3 3 0 5 -6 5 -7 0 -12 4 -12 10 0 5 7 7 15
4 23 -9 18 12 -7 29 -18 12 -19 16 -7 16 9 1 24 -10 33 -24 9 -14 12 -25 7
-25 -6 0 -8 -7 -5 -15 4 -9 0 -15 -9 -15 -9 0 -14 -7 -13 -17 2 -10 8 -18 14
-18 6 0 14 -3 18 -7 4 -5 12 -8 18 -8 6 0 3 5 -6 11 -24 13 -23 25 2 25 10 0
17 -2 15 -5 -7 -6 16 -31 28 -31 6 0 7 3 4 6 -3 4 -2 15 4 25 7 14 6 17 -4 13
-8 -3 -14 2 -14 10 0 8 4 13 9 10 4 -3 8 1 8 8 0 8 4 7 11 -4 5 -9 7 -29 5
-43 -4 -24 -3 -25 42 -24 42 0 45 1 22 11 -31 13 -10 23 27 13 21 -5 24 -8 12
-16 -10 -6 -3 -9 25 -9 32 0 37 2 27 14 -10 12 -8 14 14 12 15 -2 31 -9 36
-17 8 -12 10 -12 18 0 6 10 10 10 16 1 6 -9 10 -9 16 1 6 10 9 11 9 2 0 -7 11
-13 25 -13 17 0 23 4 19 15 -5 12 1 12 36 -2 36 -14 43 -15 50 -2 7 11 12 11
22 1 6 -6 19 -12 28 -12 21 0 21 40 0 57 -8 6 -12 15 -8 19 5 4 18 -1 30 -12
12 -10 18 -13 14 -6 -4 6 -4 12 -1 12 14 0 75 -33 75 -40 0 -4 12 -12 27 -19
20 -9 28 -9 33 0 6 8 9 8 13 -2 5 -11 8 -10 17 3 14 22 36 23 48 3 6 -12 18
-14 50 -9 23 3 39 10 36 15 -8 13 -44 11 -44 -3 0 -6 -7 -4 -18 5 -10 10 -26
17 -35 17 -9 0 -19 5 -22 10 -5 8 -11 8 -20 0 -10 -8 -14 -5 -19 15 -4 14 -11
25 -16 25 -5 0 -7 7 -4 15 4 8 1 15 -4 15 -6 0 -12 6 -15 13 -2 6 -2 -1 1 -18
2 -16 10 -37 18 -45 8 -10 10 -21 4 -29 -7 -12 -13 -12 -40 -1 -17 7 -27 16
-22 19 12 8 22 51 11 51 -5 0 -15 13 -24 30 -10 19 -20 27 -30 24 -8 -4 -13
-10 -10 -14 11 -17 -17 -21 -34 -6 -22 20 -31 20 -31 2 0 -16 21 -26 55 -26
28 0 42 -17 26 -33 -7 -7 -16 -5 -31 8 -17 15 -23 16 -29 6 -5 -7 -11 -12 -15
-12 -19 3 -22 -2 -18 -29 4 -28 1 -31 -25 -30 -10 1 -4 41 7 55 11 14 6 58 -7
62 -6 2 -14 -1 -18 -6 -11 -19 -35 -12 -47 14 -9 21 -18 25 -55 25 -23 0 -43
4 -43 8 0 4 -9 8 -20 8 -15 0 -19 -5 -14 -20 5 -16 3 -18 -20 -12 -15 4 -26 2
-26 -3 0 -6 -7 -7 -17 -4 -12 5 -14 3 -8 -7 6 -10 4 -12 -7 -7 -12 4 -14 1
-11 -14 4 -15 9 -17 19 -8 7 6 17 8 23 5 5 -3 11 -3 14 1 2 5 2 2 0 -5 -1 -7
1 -11 5 -8 4 2 14 1 22 -5 13 -7 12 -9 -2 -9 -19 0 -24 -15 -9 -25 5 -3 16 2
24 10 21 20 27 19 27 -5 0 -11 4 -20 10 -20 5 0 9 3 7 8 -1 4 2 7 8 7 5 0 9
-5 7 -12 -4 -16 15 -26 23 -13 8 13 -24 52 -36 44 -5 -3 -9 0 -9 5 0 6 -8 11
-19 11 -10 0 -24 7 -31 15 -11 13 -9 15 13 15 15 0 40 -14 63 -38 23 -22 47
-36 57 -34 10 2 17 8 15 14 -2 5 -7 9 -12 8 -5 -1 -12 4 -17 11 -4 7 -15 14
-25 15 -9 1 -22 8 -28 15 -8 9 -6 10 12 6 25 -6 30 8 6 17 -24 9 -10 19 15 11
13 -4 21 -15 21 -27 0 -12 3 -18 6 -15 12 11 58 -33 61 -58 3 -23 2 -24 -22
-15 -36 14 -40 13 -24 -7 13 -15 12 -15 -8 -4 -15 7 -23 8 -23 1 0 -5 -11 -10
-25 -10 -14 0 -25 5 -25 10 0 6 -10 10 -22 10 -19 0 -20 -2 -8 -10 11 -7 12
-10 2 -10 -18 0 -79 65 -74 79 2 6 -1 11 -7 11 -11 0 -15 -12 -11 -43 1 -16
-1 -16 -19 -5 -12 7 -21 16 -21 20 0 5 -7 8 -16 8 -8 0 -12 4 -9 10 3 5 -1 10
-9 10 -9 0 -16 -4 -16 -10 0 -5 -7 -7 -15 -4 -19 8 -19 24 0 24 9 0 12 6 8 17
-6 16 -4 16 15 -1 29 -25 41 -12 15 17 -11 12 -18 28 -16 35 3 8 -4 16 -16 19
-12 3 -21 9 -21 14 0 5 -7 9 -15 9 -8 0 -12 6 -9 13 2 7 -9 20 -26 30 -32 20
-39 37 -14 37 8 0 13 -4 10 -8 -3 -5 11 -8 29 -8 33 1 52 16 20 16 -9 0 -15 9
-15 25 0 14 -5 25 -11 25 -8 0 -7 5 2 16 12 14 14 14 26 -3 12 -15 15 -16 23
-3 6 10 4 18 -10 25 -21 11 -66 65 -54 65 4 0 -3 11 -16 25 -13 14 -21 28 -18
31 4 3 11 -4 18 -15 6 -12 17 -21 24 -21 9 0 12 -7 9 -20 -4 -16 -2 -19 11
-14 11 4 19 -2 26 -20 5 -14 15 -26 21 -26 6 0 9 -6 6 -14 -3 -8 -1 -16 6 -19
6 -2 12 -20 13 -40 2 -41 28 -77 38 -52 6 17 46 21 46 4 0 -6 -9 -8 -22 -3
-27 8 -18 -4 14 -21 13 -6 22 -17 21 -23 -2 -7 7 -12 20 -12 18 0 19 2 7 10
-13 9 -13 10 0 11 8 1 22 0 30 -1 12 -2 12 2 -3 17 -9 11 -17 26 -17 34 0 17
-66 83 -73 72 -2 -5 -2 -3 -1 4 2 7 -1 15 -6 18 -6 4 -10 1 -10 -5 0 -8 -6 -8
-20 0 -11 6 -19 14 -19 18 4 25 -3 42 -17 42 -13 0 -14 3 -5 13 6 8 8 17 4 20
-11 12 -43 8 -43 -5 0 -6 -3 -8 -6 -5 -4 4 -1 14 7 24 12 15 12 16 -3 10 -12
-4 -18 -2 -18 8 0 7 -5 17 -12 21 -7 4 -8 3 -4 -4 4 -7 2 -12 -3 -12 -14 0
-14 16 0 43 7 12 8 19 4 15 -4 -4 -17 -1 -29 7 -27 20 -35 19 -29 -4 3 -13 11
-17 24 -14 11 3 19 0 19 -8 0 -7 -3 -10 -6 -6 -9 9 -39 -24 -39 -42 0 -8 -5
-16 -12 -18 -7 -3 -10 8 -8 34 2 22 -1 41 -8 45 -21 13 -28 9 -17 -12 11 -20
1 -26 -37 -21 -18 2 -27 -19 -13 -32 10 -9 11 -9 6 1 -4 6 -2 12 3 12 15 0 14
-37 -1 -42 -9 -3 -8 -10 5 -22 9 -10 15 -22 12 -27 -8 -12 2 -11 25 1 12 6 21
7 25 0 6 -10 35 -2 35 10 0 13 -33 21 -44 10 -15 -15 -26 -12 -26 6 0 9 5 13
13 9 6 -4 4 0 -5 8 -19 15 -25 57 -9 57 14 0 21 -28 8 -33 -7 -3 3 -8 21 -12
17 -4 32 -11 32 -16 0 -5 6 -9 14 -9 10 0 13 -8 10 -25 -2 -14 0 -25 6 -25 5
0 10 5 10 11 0 5 4 7 10 4 6 -3 10 -11 10 -16 0 -6 -4 -8 -9 -5 -5 4 -12 0
-15 -6 -3 -10 -9 -8 -19 4 -17 22 -27 23 -27 3 0 -8 -7 -15 -16 -15 -24 0 -44
-24 -33 -41 7 -12 9 -12 9 0 0 11 3 11 17 0 15 -13 15 -12 4 8 -9 19 -9 23 2
23 16 0 19 -29 5 -47 -6 -7 -5 -14 2 -18 8 -5 8 -11 -1 -21 -9 -11 -7 -14 10
-14 11 0 21 -5 21 -11 0 -6 -7 -8 -16 -5 -12 4 -15 2 -10 -9 5 -13 -5 -20 -26
-16 -5 0 -8 -4 -8 -9 0 -6 6 -10 13 -11 6 -1 19 -2 27 -3 8 -2 23 -3 32 -4 12
-1 16 -11 16 -31 l-1 -30 -18 22 c-14 18 -20 20 -30 10 -19 -19 -29 -16 -29 8
0 11 -4 17 -10 14 -5 -3 -21 2 -35 11 -23 15 -24 18 -10 34 8 9 12 20 8 23 -3
4 -2 7 4 7 5 0 9 18 9 39 -2 45 -16 69 -16 27 0 -16 -4 -25 -10 -21 -6 4 -7
11 -4 17 4 7 2 8 -4 4 -9 -5 -9 -13 -1 -27 9 -19 9 -19 -10 -10 -11 6 -32 11
-47 11 -23 0 -25 -2 -14 -15 10 -12 10 -19 2 -27 -7 -7 -13 -8 -13 -2 -1 5 -2
16 -3 24 0 8 -11 16 -24 18 -12 2 -20 7 -17 12 3 5 1 11 -5 15 -5 3 -10 12
-10 18 0 7 7 4 15 -7 9 -12 29 -20 55 -22 38 -2 40 -1 34 22 -6 24 10 35 19
12 2 -8 8 -9 13 -4 5 5 4 11 -3 13 -7 3 -13 11 -13 18 0 8 -5 17 -12 21 -7 4
-8 3 -4 -4 4 -7 2 -12 -4 -12 -6 0 -8 -4 -5 -10 12 -19 -8 -10 -30 14 -17 18
-19 26 -10 30 8 3 11 13 9 23 -4 14 1 18 20 18 13 0 22 -3 20 -7 -8 -12 8 -38
23 -38 9 0 11 5 6 13 -4 6 -6 19 -5 29 2 9 -2 19 -7 22 -6 4 -8 12 -5 19 2 7
-4 21 -15 31 -11 10 -18 24 -14 30 4 7 2 7 -7 0 -9 -10 -7 -17 10 -34 21 -21
21 -22 3 -35 -16 -12 -20 -11 -34 7 -17 21 -17 21 -23 1 -4 -11 -4 -29 0 -39
5 -18 5 -18 -10 0 -9 11 -16 23 -16 28 0 4 -9 8 -20 8 -24 0 -27 -17 -3 -22
17 -3 26 -58 10 -58 -5 0 -4 -6 2 -14 7 -8 8 -17 3 -20 -5 -3 -16 4 -25 15
-20 23 -21 30 -5 26 19 -3 22 39 4 46 -9 4 -16 2 -16 -3 0 -6 -5 -10 -11 -10
-8 0 -7 5 2 16 10 13 10 17 -2 25 -10 6 -5 9 17 9 24 0 33 5 37 22 7 24 1 38
-15 38 -7 0 -7 -4 1 -14 8 -10 8 -16 -3 -25 -10 -8 -16 -9 -21 -1 -3 5 0 10 7
10 7 0 2 9 -12 19 -24 19 -24 20 -6 40 17 19 17 21 2 27 -9 3 -16 12 -16 20 0
8 -5 14 -11 14 -6 0 -9 6 -6 14 3 7 1 18 -4 23 -7 7 -5 16 6 27 12 12 13 16 3
16 -8 1 -7 5 5 14 12 9 14 16 7 21 -12 7 -4 25 12 25 6 0 8 -3 5 -7 -10 -9 13
-33 32 -33 13 1 13 3 -3 15 -19 14 -19 15 -1 15 10 0 28 -8 39 -17 12 -10 18
-14 14 -9 -14 17 13 35 45 31 28 -4 29 -4 7 4 -14 5 -35 6 -47 4 -29 -6 -30
13 -3 22 12 4 28 1 37 -7 12 -9 15 -9 9 0 -9 15 12 16 48 2 17 -6 26 -6 26 0
0 6 -4 10 -9 10 -6 0 -8 9 -6 20 2 11 0 22 -6 25 -15 10 -10 35 7 35 8 0 12 5
8 11 -3 6 -17 9 -30 6 -17 -3 -28 3 -39 20 -16 24 -16 24 4 13 13 -7 21 -7 21
-1 0 6 6 8 14 5 7 -3 16 2 19 10 4 9 11 16 16 16 6 0 8 -6 5 -13 -3 -8 3 -13
16 -13 11 0 20 4 20 8 0 4 -4 8 -10 8 -5 0 -10 4 -10 9 0 5 11 8 25 6 30 -3
37 5 24 25 -6 10 -9 11 -9 3 0 -10 -6 -10 -25 -1 -13 6 -23 15 -22 21 1 5 -4
12 -12 15 -9 3 -11 0 -6 -8 5 -8 4 -11 -3 -6 -6 3 -9 16 -7 28 6 27 15 36 15
15 0 -9 5 -17 10 -17 6 0 10 11 10 25 0 24 -9 30 -37 26 -7 -1 -13 3 -13 10 0
7 9 9 23 5 12 -3 25 -6 30 -6 4 0 7 -7 7 -15 0 -8 7 -15 15 -15 12 0 14 4 7
16 -5 9 -7 25 -5 34 3 10 0 21 -6 24 -6 4 -11 15 -11 26 0 18 -32 38 -38 22
-3 -11 -63 -3 -80 11 -9 7 -11 6 -6 -6 4 -11 0 -15 -12 -13 -10 2 -20 8 -22
14 -4 12 15 17 51 14 11 -1 15 2 11 9 -3 6 6 3 22 -7 18 -12 25 -14 20 -5 -7
11 -2 12 28 7 37 -7 45 1 24 23 -11 10 -10 11 5 6 9 -4 17 -12 17 -17 0 -6 8
-17 18 -24 15 -12 15 -13 -8 -8 -14 2 -20 2 -14 -1 6 -3 9 -17 6 -30 -3 -20 0
-25 17 -25 11 0 21 -4 21 -10 0 -5 -3 -9 -7 -9 -20 3 -24 -2 -13 -16 7 -8 9
-15 6 -15 -4 0 2 -10 14 -22 11 -12 23 -18 27 -15 3 4 2 7 -4 7 -16 0 -26 50
-14 64 13 15 4 26 -21 26 -10 0 -18 7 -18 16 0 11 6 14 23 10 12 -3 16 -3 9 0
-6 3 -10 10 -7 15 3 4 -2 21 -12 36 l-17 28 25 -22 c14 -13 30 -23 36 -23 6 0
13 -4 15 -9 1 -5 28 -19 58 -30 54 -21 54 -21 30 -1 -14 11 -35 20 -47 20 -14
0 -23 6 -23 15 0 8 -4 15 -10 15 -12 0 -13 20 -1 38 7 12 12 12 29 1 19 -12
24 -11 39 5 17 18 17 18 -9 14 -39 -7 -55 15 -22 30 23 11 26 9 42 -17 9 -16
27 -31 39 -34 13 -2 23 -3 23 -2 0 2 -18 21 -40 43 -41 40 -52 66 -25 56 8 -4
15 -1 15 5 0 6 -6 11 -14 11 -26 0 -25 15 0 16 13 1 24 -2 24 -7 0 -5 8 -9 18
-10 15 0 15 -1 -2 -8 -14 -5 -16 -10 -8 -15 17 -10 15 -26 -3 -20 -8 4 -15 1
-15 -5 0 -6 6 -11 13 -11 8 0 36 -11 63 -25 57 -29 65 -30 58 -10 -4 8 -12 15
-20 15 -8 0 -14 5 -14 11 0 6 7 9 15 5 25 -9 18 29 -8 43 -13 7 -24 19 -24 28
0 11 5 9 17 -7 9 -13 23 -21 31 -18 8 3 22 -4 31 -14 9 -11 22 -17 27 -13 6 3
11 -1 11 -9 0 -10 10 -14 30 -14 33 1 43 -5 46 -27 3 -18 -8 -19 -24 -3 -7 7
-12 8 -12 2 0 -6 6 -16 13 -23 10 -10 1 -12 -48 -7 -36 3 -52 2 -40 -3 11 -5
23 -7 28 -4 4 2 7 -3 7 -11 0 -9 -7 -16 -15 -16 -8 0 -15 -4 -15 -10 0 -5 5
-10 11 -10 6 0 8 -8 4 -19 -9 -29 7 -30 34 -4 20 19 21 24 8 29 -20 7 -11 34
12 34 9 0 22 5 29 12 7 7 12 9 12 5 0 -4 9 -3 20 3 23 12 27 30 6 30 -7 0 -16
9 -19 20 -3 11 -11 19 -17 18 -7 -2 -15 3 -17 10 -4 9 2 11 21 6 14 -3 26 -4
26 -1 0 8 -41 78 -56 97 -6 8 -9 22 -5 31 5 13 11 14 30 7 23 -8 23 -9 6 -22
-14 -10 -15 -15 -5 -21 9 -5 11 -4 6 3 -4 7 -1 12 7 12 8 0 20 -13 26 -30 5
-16 6 -30 1 -30 -4 0 -7 -19 -6 -42 2 -36 6 -44 24 -46 12 -2 22 -8 22 -13 0
-6 -4 -7 -10 -4 -6 3 -10 2 -10 -2 0 -12 22 -33 35 -33 5 0 3 5 -5 10 -13 8
-13 11 -1 19 11 7 10 12 -8 22 -11 8 -21 21 -21 29 0 9 3 11 8 5 4 -6 19 -16
35 -24 20 -11 24 -17 15 -23 -10 -6 -9 -8 2 -8 13 0 13 -1 0 -10 -13 -9 -7
-14 13 -11 4 0 7 -4 7 -9 0 -6 -8 -11 -17 -11 -10 -1 -5 -4 11 -8 16 -3 31
-12 34 -19 3 -11 0 -12 -18 -2 -14 8 -26 8 -32 2 -6 -6 1 -12 19 -17 15 -3 31
-12 35 -18 6 -9 8 -9 8 1 0 17 25 15 40 -3 11 -13 7 -15 -25 -15 -29 0 -36 -3
-31 -15 3 -8 0 -15 -5 -15 -6 0 -9 8 -7 18 4 13 -6 24 -33 40 -21 12 -40 18
-43 14 -6 -10 10 -37 24 -38 5 -1 16 -2 24 -3 7 0 16 -10 19 -21 3 -12 14 -20
25 -20 11 0 22 -6 25 -13 8 -21 -52 -8 -66 14 -12 20 -37 26 -37 10 0 -5 18
-18 40 -28 22 -10 40 -21 40 -25 0 -7 -24 -12 -43 -9 -5 1 -6 -3 -2 -9 3 -5
-1 -10 -10 -10 -11 0 -15 5 -12 14 7 18 -10 33 -43 38 -20 2 -26 -2 -28 -19
-4 -27 -20 -30 -38 -5 -12 16 -13 15 -11 -5 1 -17 8 -23 27 -24 14 -1 30 -2
35 -4 6 -1 16 -3 23 -3 6 -1 12 -10 12 -19 0 -10 7 -27 15 -37 20 -26 20 -60
1 -53 -11 4 -13 1 -9 -11 6 -15 5 -15 -11 -3 -9 8 -15 20 -12 28 4 9 -3 13
-19 13 -30 0 -31 5 -5 37 11 14 20 31 20 37 0 6 -5 4 -10 -4 -5 -8 -10 -10
-10 -5 0 6 -4 4 -9 -4 -13 -20 -61 15 -61 45 0 13 -4 24 -9 24 -4 0 -6 -12 -4
-28 4 -21 2 -24 -6 -12 -6 8 -11 10 -11 4 0 -5 16 -25 35 -44 19 -18 32 -37
29 -41 -2 -4 0 -10 6 -14 6 -4 7 -11 4 -17 -4 -7 -9 -6 -14 2 -5 7 -9 2 -12
-15 -5 -26 -4 -27 33 -23 28 2 38 0 35 -8 -3 -7 1 -15 9 -18 9 -3 12 0 9 9 -8
21 35 6 47 -16 5 -11 15 -19 21 -19 7 0 23 -10 36 -22 20 -18 24 -19 19 -6 -4
12 -1 18 8 18 8 0 15 -5 15 -11 0 -6 6 -9 14 -6 8 3 17 -1 20 -9 7 -19 26 -18
26 1 0 18 12 19 29 3 10 -11 10 -8 0 14 -8 20 -22 30 -46 34 -33 6 -40 23 -13
32 7 3 10 0 6 -7 -4 -6 -2 -9 6 -6 8 3 32 -13 55 -35 24 -22 40 -33 37 -25 -4
8 -1 15 5 15 6 0 11 -6 11 -12 0 -7 11 -18 24 -24 19 -9 23 -9 19 2 -3 8 2 11
15 7 11 -2 23 1 28 8 5 9 2 10 -10 6 -11 -4 -15 -3 -10 4 4 7 -1 7 -16 -1 -17
-9 -25 -9 -34 1 -8 9 -7 11 7 6 9 -4 17 -2 17 3 0 6 -5 10 -12 10 -6 0 -8 3
-5 6 4 4 13 1 22 -6 12 -10 15 -10 15 0 0 9 3 10 13 1 10 -8 17 -7 25 1 7 7
12 8 12 2 0 -10 9 -13 48 -15 9 0 24 -3 32 -6 27 -9 90 -12 90 -3 0 12 -19 16
-80 19 -30 2 -61 8 -69 14 -8 7 -17 12 -20 11 -3 0 -11 5 -18 11 -9 9 1 12 42
11 29 -1 51 2 49 6 -3 5 -22 8 -42 8 -58 0 -72 15 -28 31 36 13 36 13 14 26
-32 17 -46 16 -22 -3 19 -15 18 -15 -2 -5 -26 13 -41 32 -39 51 1 8 3 24 3 34
2 20 17 14 17 -6 0 -6 7 -13 15 -15 13 -4 13 -3 0 7 -12 9 -9 10 15 5 36 -8
36 -8 38 -33 0 -11 5 -18 9 -16 4 3 8 -3 8 -14 0 -10 9 -29 20 -42 l20 -23 0
22 c0 12 -12 38 -26 57 -23 29 -24 34 -9 34 10 0 24 -8 31 -18 13 -16 14 -16
8 0 -4 13 -1 18 11 18 9 0 13 -4 10 -10 -3 -5 2 -21 11 -35 13 -20 14 -28 4
-40 -17 -21 -4 -35 33 -34 18 0 26 3 20 6 -18 7 -16 23 2 23 9 0 18 -7 21 -15
4 -8 10 -15 15 -15 6 0 5 9 -1 20 -6 12 -21 20 -36 20 -20 0 -26 6 -31 33 -4
17 -6 35 -5 40 1 4 -3 7 -8 7 -6 0 -10 5 -10 11 0 8 4 8 13 2 20 -16 57 -14
50 3 -3 8 0 14 6 14 6 0 11 -7 11 -15 0 -8 9 -15 20 -15 11 0 20 -4 20 -9 0
-5 8 -11 18 -13 13 -4 18 -13 16 -29 -1 -13 -3 -28 -3 -32 -1 -5 -6 -5 -12 -2
-6 4 -8 13 -5 21 3 8 1 14 -5 14 -6 0 -8 4 -5 9 3 5 -2 15 -11 22 -14 12 -15
11 -9 -9 10 -29 -16 -30 -36 -1 -9 14 -20 20 -33 16 -19 -5 -18 -5 3 -12 13
-5 21 -13 18 -21 -3 -8 0 -11 10 -7 7 3 14 1 14 -3 0 -12 59 -74 71 -74 16 0
10 18 -8 24 -10 3 -1 4 19 3 25 -2 35 0 28 7 -14 14 -12 56 3 56 6 0 4 5 -5
11 -10 5 -18 19 -18 29 0 13 -7 20 -20 20 -17 0 -19 3 -11 19 8 14 7 22 -4 31
-20 17 -8 33 15 20 29 -16 48 -12 25 6 -11 8 -26 13 -35 11 -8 -1 -23 10 -33
26 -20 32 -16 47 8 27 12 -10 15 -10 15 1 0 15 -55 51 -64 42 -3 -3 2 -12 12
-20 15 -12 14 -13 -12 -7 -21 5 -27 4 -22 -5 4 -6 13 -11 21 -11 7 0 21 -14
29 -32 19 -37 20 -48 5 -48 -5 0 -7 4 -4 10 3 5 -6 12 -20 16 -13 3 -22 10
-19 15 3 5 -1 9 -8 9 -7 0 -21 17 -30 38 -10 20 -16 29 -13 20 5 -22 -11 -24
-19 -2 -3 8 -11 12 -17 8 -7 -4 8 -25 41 -57 29 -27 45 -47 35 -44 -9 4 -22 7
-29 7 -6 0 -20 12 -30 28 -9 15 -15 19 -12 9 4 -12 -1 -20 -16 -26 l-22 -8 23
-6 c14 -3 20 -10 16 -17 -5 -7 0 -7 14 1 16 11 27 11 54 1 18 -7 40 -12 49
-12 9 0 22 -8 29 -18 13 -16 12 -16 -4 -3 -16 13 -20 13 -27 1 -7 -12 -14 -11
-39 8 -37 27 -40 27 -34 3 3 -12 11 -17 19 -14 8 3 14 0 14 -6 0 -6 -3 -11 -7
-12 -51 -5 -90 -2 -96 6 -5 6 -7 3 -3 -7 4 -13 0 -18 -14 -18 -25 0 -36 18
-16 26 9 3 13 10 10 16 -3 5 -12 1 -19 -8 -11 -16 -17 -17 -53 -4 -23 7 -39
17 -36 21 4 7 -38 -12 -65 -29 -3 -1 1 -8 7 -14 9 -9 12 -9 12 1 0 17 17 5 31
-22 12 -22 11 -22 -9 -4 -24 21 -36 10 -26 -26 3 -14 1 -28 -5 -31 -6 -4 -9
-1 -5 7 3 8 1 18 -5 22 -8 4 -8 12 0 27 10 18 9 20 -7 14 -10 -4 -15 -4 -11 0
4 4 -14 28 -40 53 -27 25 -40 42 -30 38 9 -3 17 -3 17 1 0 14 -16 27 -36 30
-18 2 -21 -1 -16 -25 6 -35 23 -58 31 -44 4 6 12 1 20 -11 12 -19 11 -20 -6
-14 -17 6 -17 5 1 -9 10 -8 22 -12 26 -10 5 3 10 -1 13 -9 3 -8 -2 -17 -11
-21 -16 -6 -51 28 -52 51 0 6 -7 18 -17 25 -15 13 -16 10 -8 -41 4 -30 7 -63
7 -72 0 -10 3 -18 9 -18 5 0 9 5 9 12 0 6 6 3 14 -8 8 -10 18 -16 22 -11 4 4
2 7 -4 7 -7 0 -12 5 -12 10 0 19 38 10 43 -10 3 -12 14 -20 26 -20 12 0 21 -4
21 -9 0 -5 -17 -5 -41 0 -43 10 -78 6 -46 -5 9 -3 25 -9 35 -13 9 -3 24 -5 33
-4 9 1 22 -6 29 -16 12 -15 12 -16 0 -5 -19 17 -33 15 -26 -3 8 -21 -11 -19
-41 5 -14 11 -32 20 -40 20 -11 0 -13 7 -9 24 5 20 3 23 -14 19 -16 -4 -20 0
-20 20 0 14 -7 28 -16 31 -11 4 -15 2 -11 -8 4 -10 1 -13 -8 -9 -8 3 -13 9
-10 14 7 11 -26 49 -42 49 -7 0 -13 5 -13 10 0 7 9 6 23 -2 12 -7 29 -13 37
-13 8 -1 14 -7 12 -14 -1 -7 2 -11 8 -9 7 2 11 7 11 11 -1 4 -1 14 -1 22 0 8
-9 15 -20 15 -11 0 -20 5 -20 10 0 6 10 10 23 10 18 0 19 2 7 10 -10 6 -11 10
-2 10 6 0 12 5 12 11 0 5 -4 7 -10 4 -5 -3 -10 -2 -10 4 0 5 -6 11 -12 14 -7
2 0 2 15 0 19 -3 27 -1 25 9 -2 8 6 13 21 13 14 0 26 6 29 13 2 7 -6 12 -22
12 -13 0 -28 4 -31 10 -3 5 -16 10 -28 10 -23 0 -48 42 -53 87 -2 20 1 22 22
17 l24 -6 -17 29 c-9 17 -24 30 -32 29 -11 -1 -15 6 -13 19 2 18 2 18 -8 3 -6
-10 -17 -18 -25 -18 -18 0 -47 29 -40 41 4 5 2 9 -3 9 -6 0 -17 18 -26 39 -8
22 -23 41 -33 44 -17 4 -17 5 0 6 31 2 7 21 -26 21 -24 0 -28 -3 -17 -10 11
-7 12 -10 2 -10 -7 0 -20 -7 -28 -15 -14 -13 -13 -15 6 -15 12 0 18 -4 15 -10
-4 -6 0 -22 9 -35 l15 -23 -57 -4 c-45 -3 -61 0 -74 14 -20 19 -24 33 -6 22 7
-4 8 -3 4 4 -11 19 -26 14 -26 -8 0 -13 -5 -18 -15 -14 -8 4 -41 7 -73 8 -42
0 -60 6 -70 18 -17 23 -32 23 -32 1 0 -11 -3 -14 -8 -7 -4 6 -14 14 -22 17
-12 4 -11 6 3 6 15 1 16 4 7 22 -16 29 -9 32 40 19 47 -13 59 -8 40 16 -12 13
-11 17 1 25 11 7 10 9 -6 9 -14 0 -16 3 -7 8 7 5 10 15 7 23 -3 8 4 20 17 28
21 13 22 13 10 -2 -12 -14 -11 -16 7 -14 12 1 21 5 21 9 0 4 19 1 41 -7 60
-21 79 -19 79 8 -1 19 -2 20 -10 5 -9 -15 -13 -15 -41 -1 -19 9 -28 20 -25 29
3 8 -1 14 -9 14 -8 0 -15 -7 -15 -16 0 -11 -6 -14 -22 -8 -13 4 -29 7 -35 7
-7 0 -13 4 -13 9 0 4 13 8 28 8 26 0 28 3 24 30 -6 44 21 50 55 11 15 -17 31
-31 36 -31 4 0 -1 10 -13 22 -24 26 -25 37 -5 44 16 7 17 50 0 52 -5 0 -20 4
-32 7 -22 7 -26 -6 -9 -34 7 -10 10 -10 16 -1 4 7 14 10 21 8 10 -3 8 -8 -7
-16 -15 -8 -30 -8 -58 2 -27 9 -33 15 -22 19 9 4 16 12 16 19 0 10 -3 9 -9 -1
-5 -8 -16 -11 -26 -8 -9 4 -14 3 -10 -3 3 -6 -3 -10 -14 -10 -11 0 -23 4 -26
10 -3 5 -1 10 5 10 6 0 8 5 4 11 -4 7 4 10 22 9 51 -4 56 -2 42 14 -10 11 -16
11 -27 2 -11 -9 -13 -8 -9 4 2 8 15 17 29 21 13 4 19 7 13 8 -6 1 -11 8 -11
16 0 9 7 14 16 13 9 -2 15 -12 13 -22 -3 -17 -2 -17 23 2 23 18 30 19 53 9 32
-14 52 -32 52 -46 0 -6 12 -17 28 -25 25 -14 26 -15 5 -16 -13 0 -23 -4 -23
-9 0 -5 15 -7 33 -5 30 4 31 4 13 -11 -17 -13 -17 -15 -4 -15 20 0 32 -16 23
-30 -4 -6 -15 -4 -30 6 -13 9 -30 14 -36 12 -7 -2 4 -14 24 -27 20 -12 37 -23
37 -24 0 -8 -70 -5 -75 3 -3 6 -14 10 -23 10 -15 0 -15 -2 -2 -10 12 -8 11
-12 -9 -31 -19 -18 -25 -19 -33 -8 -8 12 -9 11 -5 -1 2 -8 15 -15 28 -15 13 0
35 -7 49 -15 14 -8 28 -14 32 -15 4 0 13 -6 19 -13 11 -10 9 -12 -5 -12 -10 0
-14 4 -10 12 4 7 3 8 -4 4 -18 -11 -14 -26 7 -26 10 0 24 -6 30 -14 12 -15 61
-19 61 -5 0 5 7 9 15 9 8 0 12 -6 9 -13 -3 -8 4 -13 16 -14 11 -1 19 1 16 5
-2 4 2 13 10 20 11 10 16 8 30 -13 21 -33 15 -39 -29 -27 -20 6 -38 8 -41 4
-11 -11 15 -30 34 -25 12 3 20 0 20 -7 0 -7 -7 -10 -15 -6 -8 3 -15 0 -15 -7
0 -8 -4 -6 -10 3 -6 10 -10 11 -10 3 0 -7 14 -20 31 -28 23 -13 28 -19 19 -29
-12 -15 10 -29 33 -20 7 2 24 -7 37 -21 13 -14 33 -25 44 -26 20 0 20 -1 2 -8
-18 -7 -18 -8 -3 -14 9 -3 17 -17 17 -30 0 -17 6 -23 27 -25 26 -2 26 -1 8 12
-19 14 -19 14 6 13 21 -2 24 -6 21 -24 -2 -13 -9 -23 -15 -23 -6 0 -1 -9 10
-19 18 -17 26 -18 58 -10 25 7 35 15 31 24 -3 8 -1 17 4 20 5 3 6 13 3 23 -7
16 -5 16 20 -1 35 -22 45 -16 42 25 -1 18 2 36 8 40 6 4 4 12 -6 23 -10 9 -17
23 -17 31 0 8 -7 14 -15 14 -8 0 -15 -4 -15 -10 0 -5 5 -10 12 -10 6 0 8 -3 5
-6 -3 -4 -2 -15 3 -25 9 -15 6 -17 -15 -15 -26 3 -60 38 -48 50 3 3 -1 6 -10
6 -9 0 -17 -8 -18 -17 0 -14 -3 -13 -11 5 -6 12 -15 22 -21 22 -5 0 -4 -7 3
-15 17 -20 5 -32 -15 -15 -20 17 -19 37 3 43 13 4 13 5 -4 6 -16 1 -21 7 -19
26 5 37 -6 67 -21 61 -7 -3 -15 0 -17 7 -3 8 -10 7 -23 -6 -11 -10 -13 -17 -6
-17 20 0 52 -33 52 -53 0 -11 -5 -17 -12 -15 -7 3 -24 -6 -37 -20 l-24 -24 23
7 c19 6 22 4 17 -9 -4 -9 -2 -16 3 -16 14 0 21 18 10 25 -5 3 -10 12 -10 18 0
7 11 0 24 -15 13 -14 42 -32 65 -39 41 -12 55 -29 25 -29 -9 0 -14 -6 -11 -12
2 -7 11 -13 19 -12 7 1 19 -10 25 -22 11 -23 1 -34 -12 -14 -12 19 -26 11 -15
-9 14 -27 13 -31 -11 -31 -17 0 -20 5 -17 29 2 22 -4 35 -23 50 -15 11 -30 17
-34 13 -4 -4 -5 2 -3 13 2 15 -3 20 -19 20 -25 0 -112 87 -94 93 6 2 9 8 6 12
-10 16 12 19 31 4 10 -9 14 -13 7 -10 -16 9 -26 -11 -15 -30 8 -14 11 -14 26
7 20 30 20 31 -4 59 -24 27 -25 40 -5 40 8 0 15 3 15 6 0 11 -28 33 -34 27 -3
-4 -6 -2 -6 4 0 6 7 13 15 17 8 3 15 10 15 15 0 6 -6 8 -12 6 -7 -3 -18 6 -25
20 -6 14 -7 25 -3 25 5 0 7 9 5 21 -2 12 0 19 7 17 13 -5 20 -38 7 -38 -4 0
-6 -7 -2 -16 4 -10 13 -14 28 -10 15 4 31 -1 46 -15 13 -11 19 -18 12 -15 -6
4 -15 1 -19 -5 -5 -9 1 -10 20 -5 18 4 26 3 26 -7 0 -8 8 -21 18 -30 16 -15
19 -15 19 -2 0 8 -5 15 -11 15 -6 0 -16 10 -21 23 -6 12 -28 31 -50 42 -26 13
-40 27 -40 40 0 11 -11 25 -25 32 -23 11 -26 10 -32 -10 -3 -12 -6 -16 -7 -9
-1 6 -5 12 -10 12 -6 0 -6 -12 0 -32 5 -18 9 -36 9 -40 0 -12 -28 -9 -36 4 -5
8 -2 9 9 5 21 -8 21 -8 0 34 -21 43 -33 51 -50 33 -11 -11 -19 -12 -36 -2 -31
16 -48 40 -43 61 2 9 0 17 -5 17 -16 0 -10 26 11 45 11 10 20 13 20 7 0 -6 -4
-13 -9 -16 -13 -9 -1 -46 15 -46 7 0 16 4 19 10 3 6 -1 7 -9 4 -9 -3 -16 -1
-16 5 0 19 32 12 51 -11 11 -11 19 -16 19 -11 0 6 -7 16 -15 23 -19 16 -19 34
0 54 13 13 13 15 -5 21 -21 7 -26 31 -10 55 10 16 10 15 14 -32 1 -7 7 -17 14
-21 6 -4 12 -21 12 -37 0 -17 4 -30 10 -30 5 0 16 -12 23 -26 9 -17 17 -23 21
-15 4 6 1 11 -6 11 -10 0 -10 2 1 9 11 7 8 12 -12 25 -17 12 -23 23 -20 36 3
11 9 20 14 20 5 0 6 -7 3 -15 -3 -8 -2 -20 2 -26 5 -9 10 -7 15 7 7 17 8 17 8
2 1 -10 6 -18 11 -18 14 0 12 -28 -2 -32 -7 -3 3 -19 25 -42 20 -20 37 -40 37
-44 0 -9 55 -52 65 -52 3 0 1 9 -5 21 -6 11 -9 25 -6 32 3 9 5 9 5 0 1 -7 9
-13 18 -13 15 0 14 2 -3 15 -17 12 -20 12 -31 -2 -11 -14 -15 -12 -40 17 -33
39 -46 77 -30 83 7 2 -9 25 -35 51 -28 28 -45 53 -41 62 3 7 9 11 14 8 5 -3 7
-9 5 -13 -6 -9 43 -55 50 -48 3 3 -3 12 -12 21 -18 18 -16 29 4 18 10 -7 19
-36 21 -69 1 -7 6 -13 12 -13 5 0 8 4 4 9 -3 6 3 15 14 20 15 9 22 6 35 -14 9
-14 24 -25 34 -25 14 1 13 3 -5 13 -20 11 -23 15 -23 35 0 5 -16 14 -35 22
-47 19 -44 27 10 26 33 0 45 -4 46 -16 0 -13 1 -13 7 1 5 11 16 15 35 13 31
-3 33 1 12 22 -19 20 -21 41 -2 25 8 -6 18 -7 22 -3 5 4 5 1 1 -5 -5 -9 0 -13
16 -14 15 -1 17 -3 7 -6 -22 -5 -33 -43 -13 -43 8 0 14 -5 14 -11 0 -5 -4 -8
-8 -5 -5 3 -9 -1 -9 -9 0 -19 8 -19 33 0 10 8 14 15 8 15 -14 0 -26 40 -13 40
5 0 9 -4 9 -10 0 -5 10 -14 21 -21 21 -11 21 -10 5 12 -18 27 -21 52 -5 47 6
-2 9 -6 8 -8 -1 -3 3 -15 9 -27 8 -15 18 -20 29 -16 13 5 12 8 -8 16 l-24 10
25 6 c14 4 27 3 29 -2 2 -6 14 -25 26 -43 18 -26 24 -30 29 -18 8 21 8 26 -2
20 -4 -2 -13 4 -20 15 -11 17 -10 19 10 16 12 -2 24 -9 26 -15 2 -7 11 -12 20
-13 10 0 28 -14 42 -32 l25 -32 -27 18 c-32 20 -36 13 -10 -16 9 -11 11 -17 5
-13 -8 4 -13 2 -13 -6 0 -8 9 -14 19 -15 47 -4 18 95 -31 108 -13 3 -22 11
-20 18 1 7 -2 19 -8 26 -8 10 2 12 47 9 43 -3 54 -1 45 8 -7 7 -12 19 -12 27
1 14 2 14 13 0 7 -9 18 -14 25 -12 6 3 12 -3 12 -12 0 -9 4 -13 10 -10 6 3 10
1 10 -4 0 -6 5 -11 11 -11 5 0 7 5 3 11 -4 7 -9 26 -11 43 -2 17 -6 39 -9 50
-4 12 -2 16 5 12 14 -9 14 -4 -3 29 -11 22 -55 55 -72 55 -13 0 -1 -20 14 -25
20 -6 48 -55 33 -55 -5 0 -19 12 -30 28 -11 15 -21 21 -21 13 0 -11 -3 -11
-17 0 -12 9 -10 3 5 -18 13 -18 26 -32 30 -32 4 1 16 1 27 0 16 -1 17 -3 6
-10 -8 -5 -11 -16 -8 -25 11 -29 -59 25 -72 56 -16 35 -30 36 -23 2 3 -18 0
-30 -11 -36 -9 -4 -14 -15 -11 -23 4 -8 1 -15 -5 -15 -6 0 -16 20 -22 45 -6
25 -16 45 -21 45 -5 0 -7 8 -4 18 4 11 -7 31 -29 57 -20 21 -33 45 -31 52 3 6
-7 21 -22 32 -20 15 -23 20 -10 21 9 0 20 -5 23 -10 10 -16 28 -12 21 5 -3 8
0 15 7 16 7 0 2 5 -10 11 -13 6 -23 19 -23 30 0 10 -4 18 -10 18 -5 0 -7 7 -3
15 4 11 -4 19 -26 28 -32 12 -38 21 -21 32 10 6 -6 43 -25 57 -6 5 -5 8 4 8 7
0 11 6 8 13 -3 8 -1 20 4 28 7 11 11 11 17 1 5 -7 16 -10 25 -6 26 10 47 -14
47 -53 0 -30 -2 -34 -15 -23 -12 10 -15 10 -15 0 0 -7 -8 -19 -17 -26 -19 -14
-19 -14 45 -17 24 -1 41 2 38 8 -1 6 -11 9 -21 7 -17 -3 -17 -3 -1 13 9 10 25
15 36 12 13 -3 17 -1 13 10 -3 8 -11 12 -19 9 -7 -3 -18 2 -24 10 -10 11 -9
14 4 14 9 0 16 6 16 13 0 8 4 7 10 -3 9 -13 10 -13 11 0 0 8 6 2 13 -13 7 -16
19 -33 27 -38 12 -7 12 -10 1 -18 -10 -6 -7 -10 13 -15 21 -5 24 -10 15 -20
-8 -11 -8 -15 2 -19 11 -4 10 -6 0 -6 -7 -1 -11 -5 -7 -11 3 -5 12 -7 20 -3 8
3 15 0 15 -6 0 -5 -13 -9 -30 -8 -16 1 -30 8 -30 15 0 17 -17 15 -24 -3 -3 -8
-12 -15 -21 -15 -19 0 -19 -14 0 -30 12 -10 15 -10 15 4 0 18 18 21 40 5 12
-9 11 -10 -5 -6 -16 3 -21 -1 -23 -21 -2 -25 -2 -25 13 -6 8 10 14 15 13 9 -2
-5 1 -11 6 -12 5 -1 12 -7 16 -13 5 -8 9 -7 13 5 4 10 3 14 -4 9 -7 -4 -9 1
-7 12 3 16 12 19 53 17 48 -2 49 -2 17 8 -30 9 -33 13 -28 35 4 16 3 23 -3 20
-5 -4 -13 -1 -17 5 -3 6 -1 15 6 19 7 4 9 13 5 20 -5 9 -4 11 3 6 7 -4 12 -14
12 -22 0 -8 4 -14 10 -14 5 0 12 -11 16 -25 3 -14 10 -25 14 -25 15 0 31 29
28 50 -4 27 -72 54 -99 39 -15 -8 -21 -4 -34 21 -20 39 -19 45 7 45 28 0 35
21 8 28 -11 3 -20 1 -20 -5 0 -5 -5 -6 -12 -2 -7 5 -9 2 -4 -7 4 -8 -1 -4 -10
8 -12 17 -20 20 -34 13 -15 -8 -17 -5 -17 16 0 18 3 22 12 14 6 -5 15 -7 19
-3 4 4 10 3 14 -3 11 -17 62 -27 62 -12 1 8 6 6 14 -4 13 -18 32 -26 22 -10
-6 10 22 13 44 5 19 -8 28 -10 41 -12 5 0 8 -5 5 -10 -3 -5 9 -9 28 -8 24 1
32 5 29 15 -3 7 -12 11 -19 8 -8 -3 -19 4 -24 15 -8 15 -17 18 -33 13 -19 -6
-20 -5 -8 9 7 9 17 14 22 11 5 -3 9 2 9 10 0 9 5 16 10 16 6 0 10 -5 10 -11 0
-8 4 -8 14 0 10 9 17 6 30 -13 9 -14 16 -34 16 -46 0 -13 7 -20 20 -20 11 0
20 6 20 14 0 8 10 14 23 13 12 0 39 7 60 17 34 15 37 15 37 0 0 -10 -6 -14
-14 -11 -24 10 -27 -6 -3 -18 29 -15 52 -8 36 11 -7 8 -9 18 -5 22 4 4 16 -3
26 -16 11 -13 25 -22 32 -21 30 4 49 -2 45 -13 -2 -7 -10 -12 -16 -10 -6 1
-11 -2 -11 -8 0 -9 23 -8 93 5 27 5 37 12 37 26 0 11 5 19 10 19 6 0 10 -4 10
-9 0 -5 16 -5 37 -1 29 7 46 4 82 -14 25 -12 55 -21 66 -19 17 3 18 2 5 -7
-12 -9 -10 -10 10 -4 35 9 36 11 9 33 -13 11 -18 20 -11 21 6 0 12 -4 12 -10
0 -5 5 -10 10 -10 20 0 10 41 -13 51 -23 10 -37 59 -16 59 5 0 7 5 4 10 -3 6
4 10 16 10 16 0 20 3 13 10 -7 7 -19 8 -37 1 -29 -11 -32 -9 -18 17 5 10 5 27
0 41 -8 21 -14 23 -54 18 -25 -3 -45 -2 -45 3 0 5 37 11 83 13 45 1 -49 4
-209 5 -220 2 -293 -1 -304 -10 -12 -11 -12 -10 -1 5 12 16 9 17 -42 15 -30
-2 -53 -6 -50 -10 2 -5 11 -8 19 -8 8 0 12 -5 9 -10 -4 -6 -11 -8 -16 -5 -5 4
-9 1 -9 -5 0 -8 -9 -10 -26 -6 -19 5 -24 4 -18 -5 5 -9 2 -10 -10 -6 -10 4
-25 7 -33 7 -11 0 -14 7 -9 25 l6 25 -437 0 c-241 0 -539 3 -662 7 l-224 6 7
-459 c3 -252 7 -591 7 -753 -1 -161 3 -301 7 -310 5 -9 6 -68 3 -132 -5 -101
-4 -116 9 -111 9 3 11 2 5 -4 -6 -5 -91 -7 -195 -3 -271 8 -3028 10 -3164 3
-93 -6 -116 -10 -116 -22 0 -8 8 -21 18 -28 12 -10 5 -9 -28 2 -56 18 -80 46
-80 90 0 19 -5 34 -11 34 -6 0 -8 -8 -4 -19 4 -14 0 -21 -12 -24 -17 -4 -17
-5 0 -6 21 -1 23 -31 2 -31 -8 0 -15 -7 -15 -16 0 -8 -5 -12 -11 -9 -7 5 -5
13 6 25 11 12 13 20 5 25 -8 5 -8 10 0 20 8 9 8 15 0 20 -6 3 -8 10 -5 15 3 5
-3 11 -12 13 -15 4 -15 5 2 6 12 0 26 6 33 13 9 9 12 9 12 -3 1 -9 4 -8 12 5
8 15 8 21 0 24 -7 2 -10 7 -8 10 6 10 -56 8 -71 -1 -9 -6 -13 -2 -13 13 0 12
-9 24 -22 30 l-23 9 23 2 c12 1 28 2 35 3 6 0 13 7 13 14 3 25 5 27 14 12 6
-10 10 -11 10 -2 0 6 7 12 15 12 8 0 15 7 15 15 0 8 -4 15 -10 15 -5 0 -10 5
-10 10 0 19 21 10 30 -12 7 -18 9 -10 8 32 0 36 -3 46 -7 30 -8 -32 -37 -38
-44 -9 -4 16 -3 19 6 10 16 -16 30 -14 23 5 -3 8 -3 28 1 42 l7 27 7 -25 c4
-16 8 6 9 60 2 47 4 96 5 110 6 77 8 467 2 477 -4 6 -3 13 2 15 5 2 12 166 16
371 l8 367 -811 0 -811 0 1 -57z m5938 12 c-10 -12 -10 -15 4 -15 9 0 16 7 16
15 0 18 31 20 48 3 7 -7 12 -19 12 -27 0 -8 8 -23 18 -34 17 -19 16 -19 -23
-2 -22 9 -46 19 -52 22 -19 7 -16 -8 4 -22 22 -16 25 -66 3 -62 -8 1 -20 9
-27 17 -9 12 -8 16 10 20 20 6 19 7 -12 23 -42 21 -47 21 -31 2 7 -9 10 -18 6
-22 -3 -3 2 -15 11 -26 10 -10 17 -22 17 -26 -1 -3 3 -5 8 -3 14 4 39 -18 32
-29 -3 -5 -10 -9 -15 -9 -6 0 -7 4 -4 10 3 5 0 8 -7 5 -7 -3 -18 -1 -24 3 -21
14 -65 94 -60 108 3 8 1 25 -4 39 -9 24 -8 25 36 25 40 0 45 -2 34 -15z m200
6 c0 -5 -10 -7 -22 -5 l-23 5 23 -10 c12 -6 28 -8 36 -5 8 3 17 1 21 -5 3 -6
15 -11 26 -11 11 0 18 -4 15 -8 -3 -5 8 -9 24 -10 40 -1 49 -8 43 -32 -3 -11
-10 -17 -16 -13 -7 4 -8 0 -3 -13 4 -10 9 -26 10 -34 2 -8 8 -15 14 -15 6 0
14 -3 18 -7 12 -12 -14 -9 -49 5 -18 8 -41 11 -52 7 -11 -4 -26 -5 -34 -2 -9
4 -12 1 -7 -7 5 -7 14 -10 22 -7 8 3 14 -1 14 -8 0 -7 7 -19 15 -26 17 -14 20
-30 5 -30 -5 0 -10 7 -10 15 0 17 -9 19 -29 6 -9 -6 -26 -2 -50 11 -43 24 -59
38 -44 38 7 0 14 -4 18 -10 3 -5 12 -7 20 -3 8 3 15 0 15 -6 0 -6 8 -11 18
-11 15 1 16 1 1 10 -9 5 -20 22 -24 37 -4 18 -9 23 -14 15 -6 -10 -11 -9 -21
4 -20 24 -21 46 -3 74 14 21 14 23 1 13 -19 -17 -31 -4 -16 16 10 13 10 14 -2
4 -17 -15 -34 -17 -25 -3 3 6 1 10 -4 10 -6 0 -11 3 -11 8 0 4 23 8 50 9 28 2
50 -1 50 -6z m-5270 -42 c-11 -19 -10 -21 4 -16 11 4 15 3 11 -4 -4 -5 1 -22
10 -36 17 -25 17 -27 -1 -40 -10 -7 -12 -13 -6 -13 7 0 12 -6 12 -14 0 -8 5
-16 12 -18 8 -3 8 -9 0 -24 -11 -18 -11 -18 -12 5 0 17 -4 22 -16 17 -21 -8
-44 11 -45 38 0 11 -3 15 -6 8 -3 -7 -2 -29 2 -48 4 -25 10 -34 21 -30 19 7
18 -8 -2 -24 -8 -8 -14 -9 -13 -4 2 14 -13 54 -20 54 -4 0 -5 -15 -3 -32 5
-30 3 -32 -12 -19 -9 7 -16 10 -16 6 0 -4 -7 -2 -15 5 -8 7 -25 10 -40 6 -14
-4 -25 -2 -25 3 0 5 -9 11 -20 14 -11 3 -20 1 -20 -4 0 -5 -6 -9 -14 -9 -8 0
-17 -8 -20 -17 -6 -14 -8 -14 -22 5 -8 12 -24 22 -35 22 -10 0 -19 5 -19 10 0
6 4 10 10 10 5 0 7 6 4 14 -3 7 6 26 20 42 19 21 25 25 26 13 0 -9 -8 -20 -17
-23 -14 -6 -15 -9 -4 -16 18 -10 85 -3 89 10 2 6 8 8 13 4 5 -3 9 -1 9 5 0 18
-21 23 -33 8 -14 -17 -47 -30 -47 -18 0 5 9 11 20 14 11 3 20 13 20 22 0 14 6
16 28 11 15 -4 32 -7 39 -8 6 -1 9 -7 6 -15 -4 -9 0 -11 11 -7 9 3 16 10 16
15 0 5 9 4 20 -3 25 -16 38 -3 22 22 -7 11 -8 20 -3 20 5 0 13 -9 16 -20 8
-24 21 -26 29 -3 6 14 8 14 22 -3 15 -18 15 -17 1 6 -8 14 -22 24 -31 22 -13
-2 -12 3 5 33 23 38 39 42 19 4z m1179 -1998 l23 -20 -36 -7 c-36 -6 -47 -19
-23 -27 6 -2 1 -2 -13 0 -24 4 -24 4 -6 -16 21 -23 14 -61 -12 -61 -13 0 -13
-2 4 -15 12 -9 14 -14 6 -15 -7 0 -10 -4 -7 -10 3 -5 2 -10 -4 -10 -10 0 -9
-19 2 -37 5 -8 3 -13 -7 -13 -9 0 -16 5 -16 11 0 5 -3 8 -7 6 -5 -2 -18 6 -31
19 -12 13 -18 24 -12 24 5 0 10 9 10 20 0 14 -7 20 -22 20 -17 0 -19 -3 -10
-9 11 -7 11 -9 -2 -14 -9 -4 -16 -2 -16 3 0 6 -11 10 -25 10 -14 0 -25 4 -25
9 0 10 -39 27 -53 23 -5 -1 -6 2 -2 8 3 5 0 10 -7 10 -7 0 -19 9 -26 20 -10
17 -10 20 3 20 8 0 15 -6 15 -13 0 -12 69 -55 78 -49 3 2 9 -2 14 -10 7 -9 9
-7 5 8 -3 17 0 20 18 16 17 -3 25 2 30 19 5 14 3 25 -4 27 -19 6 -12 22 16 33
19 7 35 6 57 -3 21 -8 31 -9 33 -1 2 6 14 9 26 6 20 -4 21 -3 5 10 -10 8 -15
17 -11 20 8 9 7 10 32 -12z m-559 -109 c29 -18 29 -19 9 -28 -20 -9 -20 -10 6
-39 21 -25 27 -27 35 -15 7 11 2 17 -18 26 l-27 12 31 1 c31 1 55 -24 32 -31
-7 -3 -1 -14 12 -26 24 -22 22 -44 -2 -25 -7 6 -24 14 -38 18 l-25 8 22 -19
c16 -14 21 -25 17 -41 -4 -13 -10 -21 -14 -18 -5 3 -6 14 -3 25 4 15 0 20 -16
20 -14 0 -19 5 -15 15 4 8 1 15 -5 15 -6 0 -14 0 -18 0 -5 0 -8 -8 -8 -17 1
-10 -4 -21 -9 -25 -6 -4 -7 -10 -3 -14 3 -4 12 -2 20 4 21 17 41 -2 33 -32 -4
-16 -2 -26 4 -26 6 0 8 5 5 10 -3 6 1 10 9 10 9 0 16 -4 16 -10 0 -5 7 -7 15
-4 12 5 13 9 4 20 -16 20 -3 30 15 12 9 -10 13 -29 11 -52 -3 -36 -3 -36 36
-36 41 0 49 9 25 29 -11 9 -15 9 -18 0 -2 -7 -10 -9 -16 -5 -27 16 -9 26 46
24 54 -3 57 -4 54 -27 -1 -13 3 -30 9 -38 7 -7 9 -16 6 -20 -7 -7 10 -43 21
-43 16 0 7 45 -10 58 -18 13 -16 32 3 32 6 0 8 -4 5 -9 -3 -4 6 -6 20 -3 23 4
24 3 14 -23 -6 -15 -8 -30 -6 -33 2 -4 -2 -15 -9 -25 -12 -17 -14 -16 -43 8
-16 14 -34 25 -39 25 -5 0 -19 9 -32 21 -24 23 -54 19 -45 -6 3 -8 1 -15 -5
-15 -7 0 -14 7 -17 15 -4 8 -17 15 -30 15 -13 0 -33 6 -44 13 -17 10 -22 9
-30 -3 -5 -8 -10 -10 -10 -5 0 6 5 16 12 23 7 7 8 12 3 13 -52 6 -87 4 -92 -4
-3 -5 0 -8 7 -5 17 5 87 -58 76 -69 -4 -4 -12 0 -17 10 -6 9 -15 17 -20 17 -6
0 -7 -4 -4 -10 3 -5 -10 0 -29 13 -19 12 -35 30 -36 39 0 9 -8 22 -17 27 -17
10 -17 10 0 11 9 0 16 3 16 8 -4 25 2 33 22 27 15 -5 19 -4 15 4 -4 6 -2 11 3
11 6 0 11 -4 11 -10 0 -5 7 -10 16 -10 23 0 11 24 -14 28 -12 2 -22 8 -22 13
0 6 4 7 10 4 5 -3 3 9 -4 27 -7 18 -11 38 -9 45 2 6 -4 13 -14 16 -15 4 -14 5
3 6 12 0 25 8 28 16 4 13 10 14 26 5 25 -13 51 -2 26 12 -15 8 -23 28 -11 28
2 0 18 -8 35 -18z m3488 -261 c1 -1 3 0 5 1 7 5 48 -25 57 -42 9 -16 8 -18 -5
-14 -8 4 -15 1 -15 -5 0 -6 9 -11 20 -11 18 0 18 -2 6 -32 -12 -28 -12 -35 6
-58 11 -15 16 -33 12 -43 -13 -34 -30 -13 -25 30 1 6 -3 14 -9 18 -5 3 -10 14
-10 23 -1 24 -37 69 -47 58 -4 -5 -2 -11 5 -13 22 -8 46 -81 33 -102 -5 -8
-13 -5 -26 9 -16 18 -17 23 -5 30 13 8 13 10 0 11 -8 1 -22 1 -32 0 -21 -2
-27 7 -30 52 -1 21 -6 37 -10 37 -4 0 -8 5 -8 12 0 6 3 8 7 5 11 -12 34 14 24
27 -7 8 -2 11 17 10 15 -1 28 -3 30 -3z"/>
<path d="M6422 1884 c10 -11 19 -31 20 -45 2 -13 8 -27 13 -31 6 -5 5 -11 -3
-16 -10 -7 -10 -11 3 -22 8 -7 15 -19 15 -26 0 -18 -26 -18 -33 0 -6 16 -69
15 -75 -2 -2 -6 7 -16 19 -22 16 -9 18 -14 9 -20 -9 -6 -7 -10 7 -14 15 -5 20
-15 19 -35 0 -16 -5 -27 -10 -23 -5 3 -7 -2 -3 -12 6 -14 4 -15 -16 -5 -18 9
-20 9 -9 -2 17 -19 15 -34 -3 -19 -9 7 -13 20 -10 29 3 10 -3 21 -15 29 -24
15 -24 12 -5 -33 14 -34 13 -35 -5 -25 -11 6 -20 18 -20 26 0 10 -8 7 -25 -12
-21 -23 -25 -44 -9 -44 3 0 3 4 -1 9 -8 15 15 25 28 12 6 -6 24 -11 39 -11 15
0 28 -4 28 -8 0 -5 10 -14 23 -20 21 -10 21 -11 -5 -9 -16 1 -28 5 -28 9 0 4
-4 8 -9 8 -5 0 -4 -14 2 -32 9 -24 9 -32 -1 -35 -6 -3 -10 -9 -7 -13 3 -5 11
-7 18 -4 14 5 17 -43 4 -64 -5 -7 -2 -14 7 -18 9 -3 16 -10 16 -15 0 -4 -10
-5 -22 0 -13 5 -23 17 -23 27 0 11 -8 27 -17 38 -16 18 -17 18 -40 -4 -13 -13
-18 -20 -11 -16 6 3 19 3 29 -1 15 -6 14 -7 -6 -15 -13 -5 -24 -7 -24 -6 -29
49 -39 59 -49 49 -9 -9 -9 -14 0 -19 6 -4 10 -20 9 -35 -3 -21 1 -27 16 -27
11 0 16 5 13 10 -4 6 6 10 22 10 20 0 24 -3 14 -9 -11 -7 -9 -11 9 -21 21 -11
22 -10 17 9 -4 18 -3 20 8 11 11 -9 36 -15 78 -19 4 -1 7 -10 7 -21 0 -11 5
-20 11 -20 6 0 8 9 4 20 -10 31 14 24 27 -7 6 -16 12 -31 12 -35 2 -12 16 -21
16 -10 0 18 15 14 41 -11 26 -26 80 -48 113 -46 15 1 11 4 -11 10 -18 5 -33
14 -33 20 0 6 -8 8 -18 5 -13 -4 -36 11 -78 53 -33 32 -67 61 -75 64 -9 4 -7
5 6 6 21 0 67 -17 50 -19 -5 0 6 -8 25 -16 25 -11 31 -17 21 -23 -13 -8 -7
-12 108 -65 13 -6 26 -17 29 -26 8 -22 29 -40 36 -33 3 4 13 -2 20 -13 8 -10
17 -16 20 -13 4 3 -4 17 -17 31 -13 14 -31 41 -41 62 -9 20 -21 36 -26 36 -14
0 -12 -14 3 -29 10 -10 9 -11 -5 -6 -10 4 -18 11 -18 16 0 5 -9 9 -19 9 -21 0
-65 53 -54 64 4 3 -2 13 -13 20 -24 18 -17 26 17 19 20 -4 25 -10 22 -23 -7
-26 24 -69 46 -63 13 3 17 11 13 29 -2 14 0 24 7 24 6 0 11 -4 11 -10 0 -5 5
-10 11 -10 5 0 7 5 4 10 -10 16 7 12 27 -7 22 -20 36 -10 18 13 -8 9 -23 14
-36 11 -13 -2 -29 0 -36 4 -9 6 -6 9 10 9 12 0 22 4 22 9 0 5 -10 13 -22 17
-13 4 -33 18 -46 32 -13 13 -26 21 -30 17 -4 -4 0 -12 9 -18 25 -19 1 -37 -33
-25 -33 12 -37 34 -7 43 25 8 20 29 -9 33 -12 2 -22 8 -22 13 0 9 33 14 80 11
24 -1 24 0 6 13 -20 15 -20 15 0 16 10 1 23 1 27 0 5 -1 7 7 5 16 -3 19 2 23
28 23 13 0 15 -7 11 -30 -7 -34 0 -38 18 -13 11 15 15 15 29 4 9 -7 13 -17 10
-22 -3 -5 4 -9 16 -9 12 0 30 -5 41 -11 20 -10 20 -9 5 20 -9 16 -26 37 -38
47 -17 12 -18 15 -5 10 10 -3 23 -6 28 -6 5 0 9 -7 9 -15 0 -8 7 -15 16 -15 8
0 12 5 9 10 -3 6 -1 10 4 10 6 0 11 -7 11 -15 0 -9 11 -26 25 -39 31 -29 31
-36 3 -36 -12 0 -18 3 -15 6 9 9 -11 44 -25 44 -6 0 -6 -6 3 -16 10 -13 10
-17 -2 -25 -12 -8 -12 -10 1 -19 8 -5 24 -7 35 -5 11 3 14 2 7 -1 -10 -5 -10
-9 -1 -20 10 -12 8 -13 -7 -7 -11 4 -6 -5 12 -20 18 -15 38 -27 45 -27 11 0
11 -3 -1 -10 -12 -8 -9 -10 13 -10 24 0 26 2 17 19 -14 27 -13 36 3 23 8 -7
18 -7 27 -2 12 7 12 10 -3 14 -9 4 -25 9 -34 13 -10 3 -26 5 -35 4 -10 -1 -18
3 -18 9 0 7 13 10 32 8 43 -4 48 27 7 50 -16 10 -32 25 -35 35 -3 9 -10 17
-15 17 -6 0 -7 4 -4 10 3 5 0 7 -8 4 -8 -3 -18 -1 -21 4 -9 15 3 40 21 44 16
3 -8 19 -49 32 -19 6 -25 42 -9 48 5 2 3 12 -5 22 -7 11 -17 17 -20 13 -4 -4
-2 -13 5 -21 9 -11 8 -15 -5 -20 -22 -9 -24 -8 -18 9 3 8 -1 24 -10 37 -9 12
-16 17 -16 11 0 -7 5 -15 10 -18 15 -9 2 -25 -15 -19 -7 3 -23 -4 -34 -15 -17
-17 -18 -21 -5 -21 9 0 14 -5 12 -12 -8 -23 -25 -18 -56 13 l-32 32 9 -31 c5
-17 6 -33 3 -37 -4 -4 1 -13 11 -20 18 -13 18 -14 -2 -25 -12 -6 -19 -15 -16
-20 3 -5 1 -11 -4 -14 -5 -4 -13 -1 -17 5 -4 8 -9 7 -16 -2 -7 -11 -12 -9 -25
9 -8 12 -20 22 -26 22 -7 0 -7 -4 1 -12 18 -18 15 -25 -10 -23 -19 2 -22 7
-20 29 2 20 -2 26 -17 26 -11 0 -22 9 -26 20 -3 11 -11 20 -16 20 -6 0 -7 -5
-3 -12 4 -7 3 -8 -4 -4 -6 4 -9 13 -6 21 3 7 -4 18 -16 25 -17 9 -19 14 -9 26
15 18 33 18 70 -2 39 -20 50 -11 12 10 -22 12 -24 15 -9 16 20 0 20 0 0 16
-10 8 -13 12 -5 8 9 -5 12 -3 7 5 -4 6 -12 9 -17 5 -5 -3 -9 7 -7 23 2 32 -22
83 -49 104 -17 13 -17 13 -1 -7z"/>
<path d="M307 1304 c-11 -12 -8 -26 5 -18 7 4 8 3 4 -4 -5 -9 -13 -9 -27 -2
-10 6 -19 8 -19 4 0 -3 -7 -1 -15 6 -10 8 -15 9 -15 2 0 -6 -10 -21 -22 -33
l-23 -23 27 17 c37 23 41 21 22 -7 -10 -17 -21 -23 -32 -19 -15 6 -15 5 -3
-10 12 -15 11 -17 -10 -17 -13 0 -37 7 -53 15 -37 20 -46 12 -12 -10 16 -11
46 -17 79 -17 28 0 58 -5 65 -11 9 -7 16 -7 24 1 7 7 17 8 29 1 13 -7 20 -5
28 8 6 10 11 14 11 8 0 -5 5 -3 10 5 8 12 10 12 10 -5 0 -16 2 -17 9 -5 6 8 8
17 5 21 -2 4 3 10 11 13 12 4 13 10 6 24 -6 11 -6 24 0 34 7 13 5 17 -8 17
-10 0 -36 3 -58 6 -22 4 -44 3 -48 -1z"/>
<path d="M6600 1200 c13 -9 13 -10 0 -10 -9 0 -11 -3 -4 -8 17 -11 24 -40 11
-46 -7 -2 -4 -5 6 -5 9 -1 17 -5 17 -9 0 -5 17 -13 37 -18 44 -11 61 -40 19
-32 -40 8 -40 -6 0 -54 52 -63 52 -62 69 -48 8 7 15 8 15 2 0 -5 9 -12 20 -15
21 -5 28 7 10 16 -6 3 -5 4 1 3 7 -1 18 -11 26 -22 13 -20 12 -20 -49 -11 -66
10 -91 23 -85 41 6 19 -22 37 -50 34 -29 -4 -25 -8 24 -24 15 -4 15 -7 3 -14
-8 -5 -21 -5 -31 1 -24 13 -29 11 -29 -7 0 -30 41 -56 55 -34 3 5 0 7 -9 4 -9
-3 -19 3 -26 16 -10 20 -10 21 8 11 11 -6 22 -8 25 -5 3 3 16 -6 30 -20 15
-14 22 -26 16 -26 -6 0 -7 -5 -4 -11 5 -6 13 -2 23 12 13 19 17 20 26 7 15
-20 27 -22 37 -7 6 10 18 4 46 -24 35 -35 38 -37 50 -21 11 15 11 20 -2 26 -8
5 -19 17 -25 28 -9 16 -6 18 22 17 21 -1 36 -9 43 -22 7 -15 18 -19 43 -17 43
4 40 16 -8 32 -22 7 -45 19 -51 27 -14 16 -30 17 -26 2 1 -6 -8 -12 -20 -14
-14 -1 -23 4 -23 12 0 7 -4 13 -10 13 -5 0 -10 5 -10 10 0 14 91 4 101 -11 5
-8 8 -8 11 1 2 8 12 5 30 -9 32 -26 42 -27 30 -3 -5 9 -7 22 -5 29 3 8 -10 10
-44 7 -44 -4 -50 -2 -71 26 -19 24 -20 30 -8 30 9 0 16 4 16 8 0 5 -13 8 -28
7 -16 -1 -40 3 -53 8 -23 9 -23 9 -4 17 11 4 28 3 38 -2 10 -5 24 -5 36 2 24
12 34 13 27 1 -3 -5 6 -12 20 -15 15 -4 24 -10 20 -13 -3 -3 12 -14 34 -24 22
-10 40 -23 40 -30 0 -8 4 -8 13 -2 6 6 27 15 45 21 l33 11 -21 -28 c-21 -31
-26 -46 -11 -36 5 3 12 1 16 -5 7 -12 -39 -25 -55 -15 -8 5 -6 13 6 26 10 12
13 19 5 19 -6 0 -14 -7 -17 -15 -4 -8 -11 -12 -16 -9 -7 4 -7 0 0 -12 6 -11
10 -23 10 -29 0 -5 6 -11 13 -14 7 -2 9 1 5 8 -4 6 -3 11 2 11 14 0 23 -28 11
-36 -5 -3 -16 -3 -24 0 -23 8 -18 0 11 -19 15 -9 23 -12 19 -5 -8 13 11 12 75
-4 23 -6 23 -6 3 3 -21 10 -63 46 -63 55 0 7 49 0 57 -8 4 -4 1 -11 -6 -15
-10 -6 -4 -11 20 -16 19 -4 40 -12 47 -17 8 -8 12 -6 12 5 0 8 -13 20 -30 27
-16 7 -31 16 -31 21 -1 5 -2 14 -3 19 0 6 -7 15 -15 20 -8 4 -15 18 -16 29 -1
17 2 20 19 15 29 -9 44 -24 17 -17 -27 7 -28 -11 -1 -30 11 -8 17 -17 13 -20
-3 -4 3 -7 15 -7 11 0 23 -6 25 -12 3 -7 6 -3 6 10 1 12 -3 22 -7 22 -4 0 -8
9 -8 19 0 11 3 18 7 15 4 -2 7 16 6 41 -1 41 -3 44 -22 39 -27 -9 -33 -16 -17
-21 6 -3 12 -9 12 -15 0 -6 -9 -3 -20 7 l-21 19 23 13 23 12 -25 1 c-15 0 -33
10 -44 25 -10 14 -26 25 -35 25 -11 0 -8 -7 12 -25 30 -29 35 -41 11 -27 -9 5
-24 8 -33 7 -9 -1 -11 0 -4 2 9 3 9 10 1 29 -12 27 -35 27 -30 1 2 -12 -2 -15
-15 -11 -10 3 -5 -5 12 -18 16 -13 34 -24 40 -24 5 -1 16 -2 23 -3 10 -1 10
-4 0 -14 -18 -20 -93 3 -93 29 0 15 -8 19 -40 19 -22 0 -55 8 -72 18 -35 19
-45 13 -15 -9 16 -12 15 -13 -5 -14 -34 0 -73 21 -73 41 0 10 -5 21 -12 25 -8
5 -9 2 -5 -9 4 -10 1 -17 -5 -17 -9 0 -9 -3 0 -12 20 -20 14 -29 -7 -11 -11 9
-18 20 -16 24 3 4 -2 10 -11 13 -12 5 -14 1 -8 -17 4 -12 14 -27 23 -34 14
-10 13 -12 -6 -10 -12 0 -20 4 -17 8 2 4 -3 12 -11 19 -8 7 -12 16 -9 21 3 5
2 10 -3 10 -4 1 -24 3 -43 5 -38 5 -66 24 -34 24 16 0 17 2 4 10 -8 5 -22 10
-30 10 -13 0 -13 -1 0 -10z"/>
<path d="M5386 1055 c-3 -8 0 -17 6 -21 7 -4 6 -9 -2 -14 -16 -10 -2 -33 15
-26 7 2 18 -1 24 -7 9 -9 11 -8 6 4 -4 10 0 19 9 22 10 4 13 1 9 -9 -3 -8 1
-14 11 -14 9 0 16 -5 16 -11 0 -5 -4 -7 -10 -4 -5 3 -10 1 -10 -4 0 -15 27
-14 32 0 3 9 15 9 43 3 32 -8 40 -14 39 -32 -1 -17 2 -20 11 -12 9 7 16 6 25
-5 14 -17 30 -20 30 -4 0 5 -3 8 -7 6 -5 -3 -17 7 -28 22 -12 17 -13 21 -3 13
8 -7 24 -10 34 -6 16 5 17 4 4 -6 -13 -10 -12 -11 3 -6 10 3 21 6 24 6 3 0 0
7 -7 15 -11 13 -10 14 4 9 11 -4 16 -1 16 10 0 9 -5 16 -12 16 -6 0 -8 3 -4 7
4 5 13 0 21 -10 9 -13 18 -15 35 -9 20 7 21 10 7 15 -10 4 -17 11 -17 16 0 6
7 8 15 5 20 -8 19 10 -2 27 -15 12 -16 12 -8 -1 8 -13 7 -13 -8 -1 -15 12 -17
11 -17 -4 0 -11 -5 -15 -16 -11 -8 3 -12 2 -9 -4 3 -6 -1 -10 -10 -10 -11 0
-15 -5 -12 -15 4 -8 2 -17 -3 -20 -6 -4 -10 4 -10 16 0 16 -3 19 -12 11 -17
-13 -81 -7 -86 8 -3 7 -12 6 -30 -6 -24 -16 -25 -15 -18 1 5 14 2 16 -16 12
-13 -2 -32 -8 -42 -12 -16 -7 -18 -5 -14 11 6 24 -17 51 -26 29z"/>
<path d="M6834 815 c0 -20 7 -27 31 -34 29 -7 29 -8 6 -15 -23 -8 -23 -8 8
-27 18 -11 29 -24 26 -29 -3 -6 -1 -10 5 -10 7 0 10 -6 7 -14 -3 -8 1 -20 9
-26 8 -7 14 -21 14 -31 0 -12 7 -19 20 -19 11 0 20 -5 20 -11 0 -7 10 -9 28
-4 26 6 26 6 7 -9 -20 -14 -20 -15 5 -24 14 -5 36 -8 50 -7 14 1 32 3 40 4 10
1 9 5 -6 16 -12 8 -31 12 -43 10 -12 -2 -19 0 -17 4 6 9 -42 34 -52 27 -4 -2
-16 2 -27 10 -17 13 -18 16 -5 24 8 5 12 10 8 11 -5 1 -12 3 -18 4 -5 1 -15 3
-21 4 -5 0 -8 5 -4 11 3 5 12 7 20 4 9 -4 13 1 12 15 -1 13 -8 21 -19 21 -9 0
-20 4 -23 10 -3 6 1 7 10 4 11 -5 14 -2 9 10 -5 12 -2 15 12 9 10 -4 15 -2 11
3 -3 5 3 10 13 10 10 0 16 -6 13 -13 -3 -7 0 -13 7 -13 6 0 8 5 5 10 -3 6 -2
10 4 10 5 0 13 -4 16 -10 9 -14 25 -12 23 3 -3 13 14 14 51 2 35 -11 17 11
-19 23 -20 7 -30 8 -30 1 0 -6 -5 -7 -10 -4 -6 4 -7 11 -4 17 4 7 2 8 -5 4 -9
-6 -9 -11 1 -24 11 -14 10 -15 -5 -9 -10 4 -21 7 -23 7 -3 0 0 9 6 20 9 16 8
18 -5 14 -8 -3 -12 -10 -9 -15 10 -17 -13 -9 -31 11 -19 21 -16 23 25 21 20
-2 22 0 10 8 -19 14 -47 14 -52 1 -2 -7 -15 -7 -38 0 -54 16 -66 13 -66 -15z"/>
<path d="M6173 652 c-8 -5 -9 -13 -3 -22 8 -13 10 -12 10 3 0 29 15 19 17 -13
2 -27 0 -29 -16 -20 -10 5 -21 16 -25 25 -3 8 -11 15 -17 15 -7 0 -5 -10 5
-27 14 -23 11 -22 -15 7 -17 19 -28 29 -24 22 4 -7 0 -21 -9 -30 -10 -12 -12
-22 -5 -32 8 -13 10 -13 18 0 5 8 7 19 3 25 -3 5 2 4 10 -3 9 -8 14 -20 11
-29 -5 -12 -1 -14 16 -8 12 3 21 3 20 -2 -3 -12 18 -60 29 -67 13 -8 43 4 37
14 -8 13 27 22 39 10 8 -8 5 -9 -9 -5 -18 6 -18 5 -2 -5 9 -6 22 -8 27 -5 13
8 8 -18 -5 -27 -6 -5 -5 -8 3 -8 7 0 10 -4 7 -10 -9 -15 4 -30 21 -23 13 5 13
7 2 14 -10 7 -8 9 6 9 20 0 20 0 0 15 -10 8 -14 15 -8 15 6 0 17 -7 24 -15 14
-16 40 -20 40 -6 0 5 -6 11 -12 14 -8 2 -9 8 -4 13 5 5 11 4 13 -3 2 -7 10
-10 17 -7 8 3 21 -3 31 -12 9 -10 25 -18 35 -19 10 -1 25 -7 34 -14 14 -11 16
-11 16 3 0 9 8 16 17 16 26 0 12 8 -25 13 -18 3 -40 11 -48 18 -8 7 -38 14
-67 16 -29 2 -53 8 -55 13 -2 6 -10 10 -17 10 -8 0 -17 5 -20 10 -4 7 2 9 19
4 16 -4 26 -2 26 5 0 6 -8 11 -18 11 -20 0 -55 37 -47 49 2 5 -6 11 -20 13
-14 3 -25 1 -25 -3 0 -5 5 -9 10 -9 6 0 10 -4 10 -10 0 -24 -30 -7 -38 22 -8
34 -20 42 -39 30z"/>
<path d="M6508 643 c-26 -7 -22 -29 9 -51 16 -11 25 -23 22 -27 -8 -7 -59 15
-59 27 0 4 -7 8 -16 8 -14 0 -14 -3 -4 -15 15 -18 7 -19 -23 -4 -21 12 -21 12
-4 -14 l17 -26 -33 13 c-34 14 -57 11 -57 -7 0 -5 3 -8 6 -4 4 3 20 -1 36 -9
16 -8 38 -12 50 -8 15 4 18 3 13 -6 -5 -8 -3 -11 6 -8 8 3 26 -4 42 -14 15
-11 27 -15 27 -10 0 16 -37 52 -54 52 -9 0 -16 4 -16 8 0 4 12 7 28 6 41 -2
44 -3 37 -14 -3 -5 -4 -10 -1 -10 3 0 10 9 16 20 8 15 6 23 -12 40 -21 19 -21
21 -3 14 11 -4 25 -12 30 -19 6 -6 19 -15 29 -19 20 -7 20 -7 0 15 -10 12 -14
19 -7 16 6 -4 16 -1 20 8 8 13 12 13 31 -5 11 -11 30 -20 41 -20 11 0 21 -5
23 -11 3 -9 9 -9 25 -1 12 7 23 8 25 3 2 -6 22 -12 46 -15 38 -4 41 -3 27 10
-8 8 -23 14 -32 13 -29 -3 -83 13 -77 22 3 5 -1 9 -9 9 -8 0 -22 9 -32 20 -18
20 -41 18 -28 -3 5 -8 2 -8 -9 0 -12 11 -19 9 -38 -7 -13 -11 -24 -20 -26 -20
-12 0 -54 25 -54 32 0 10 -2 10 38 -1 20 -6 32 -6 32 0 0 5 -9 9 -19 9 -11 0
-25 2 -33 4 -7 2 -21 2 -30 -1z"/>
<path d="M5887 459 c-4 -16 -11 -19 -34 -14 -21 5 -24 4 -13 -4 8 -6 23 -11
33 -11 9 0 17 -4 17 -10 0 -5 -7 -7 -15 -4 -8 4 -15 1 -15 -6 0 -9 -6 -8 -18
3 -23 21 -49 22 -49 2 0 -10 6 -13 19 -9 13 4 18 0 18 -14 0 -11 6 -23 13 -25
9 -4 9 -8 -2 -15 -11 -8 -10 -12 5 -21 11 -6 14 -11 8 -11 -21 0 -11 -30 10
-30 17 0 18 2 6 10 -12 8 -10 10 10 10 21 0 22 2 10 11 -16 12 -9 10 30 -5 8
-3 21 -2 29 3 12 8 12 12 2 25 -8 9 -10 16 -6 16 4 0 1 8 -6 17 -12 14 -12 16
0 8 11 -6 13 -2 7 21 -6 23 -5 27 5 17 15 -15 29 -17 29 -5 0 5 -11 14 -25 20
-32 15 -38 15 -30 2 3 -5 -1 -10 -11 -10 -11 0 -15 6 -11 20 3 11 2 22 -3 25
-4 3 -10 -4 -13 -16z"/>
<path d="M2345 381 c3 -2 0 -10 -6 -17 -8 -10 -1 -11 32 -7 38 5 42 4 36 -12
-5 -13 -3 -16 8 -12 8 4 17 2 20 -3 4 -6 1 -10 -5 -10 -6 0 -8 -10 -4 -26 6
-24 5 -25 -14 -13 -11 7 -19 16 -16 20 2 4 -5 5 -15 2 -13 -3 -21 2 -26 16 -3
12 -13 21 -21 21 -13 0 -12 -5 3 -30 9 -16 22 -30 27 -30 5 0 6 -3 3 -7 -4 -3
-17 2 -29 13 -13 10 -18 13 -12 5 13 -14 7 -54 -7 -45 -5 3 -6 -2 -3 -10 5
-14 8 -14 21 -1 18 18 33 19 33 3 1 -8 6 -6 14 5 18 23 26 21 26 -6 0 -16 9
-28 26 -36 25 -11 26 -10 20 13 -4 15 -1 26 7 29 9 4 9 6 0 6 -21 2 -14 21 7
21 11 0 20 6 20 13 0 6 5 4 11 -6 8 -13 7 -22 -1 -32 -9 -11 -7 -13 12 -9 20
4 20 3 -4 -9 -31 -14 -23 -45 8 -33 18 6 18 5 0 -9 -10 -8 -23 -12 -27 -9 -14
8 -10 -10 6 -32 8 -11 15 -14 15 -6 0 6 8 12 18 12 13 0 14 -2 4 -9 -10 -6
-10 -10 3 -21 13 -11 15 -9 15 12 0 13 -6 30 -12 37 -11 10 -7 10 17 0 17 -7
36 -20 43 -28 10 -13 12 -10 12 14 0 27 0 28 20 10 11 -10 20 -14 20 -8 0 20
97 6 119 -16 25 -25 29 -25 72 -7 30 12 35 12 46 -3 11 -14 12 -14 13 7 0 12
-6 22 -12 22 -9 0 -8 4 2 11 12 8 9 9 -9 4 -19 -6 -23 -4 -18 8 4 12 2 14 -10
10 -9 -4 -19 1 -25 10 -12 22 -28 22 -29 0 0 -16 -1 -16 -8 1 -5 13 -10 16
-14 8 -8 -12 -47 -12 -47 0 0 4 -5 8 -11 8 -5 0 -8 -4 -5 -9 8 -13 -82 -7 -96
7 -9 9 -6 13 12 20 15 6 19 11 12 16 -7 4 -12 18 -12 31 0 13 -5 27 -12 31 -8
5 -9 -2 -5 -26 6 -27 4 -31 -9 -26 -14 5 -15 4 -5 -8 9 -11 8 -17 -4 -30 -18
-18 -48 -8 -59 19 -3 9 -2 14 3 11 5 -3 12 1 15 10 4 11 2 15 -7 11 -8 -3 -14
1 -14 8 0 8 3 14 6 13 18 -2 33 3 28 9 -11 10 -56 12 -62 2 -4 -5 -11 -9 -16
-9 -12 0 -79 66 -79 79 0 5 -16 9 -35 8 -19 -1 -32 -3 -30 -6z"/>
<path d="M3560 260 c-11 -7 -8 -11 15 -21 17 -6 37 -11 47 -11 9 0 24 -8 34
-19 17 -19 7 -28 -11 -10 -6 5 -21 12 -34 16 -18 5 -22 4 -15 -6 4 -7 -6 -4
-22 7 -47 33 -55 37 -52 23 2 -9 -7 -13 -24 -13 -16 1 -28 -3 -28 -7 0 -5 4
-9 9 -9 5 0 22 -5 38 -12 39 -16 53 -18 53 -7 0 5 11 4 25 -1 14 -5 31 -7 38
-4 8 3 19 -1 25 -9 9 -10 2 -13 -38 -11 -28 1 -50 0 -50 -2 0 -2 15 -11 33
-20 29 -16 31 -16 18 -1 -9 11 -10 17 -2 17 6 0 11 -5 11 -11 0 -6 6 -9 14 -6
8 3 17 3 20 -1 12 -11 107 -8 117 4 14 17 -18 41 -34 25 -9 -10 -9 -11 3 -8 8
2 12 2 8 0 -11 -7 -23 -4 -23 5 0 16 -39 47 -59 47 -12 0 -21 7 -21 15 0 10
-11 15 -30 16 -49 1 -57 3 -50 14 8 12 4 12 -15 0z"/>
<path d="M3707 263 c-16 -26 11 -51 47 -44 5 1 3 -6 -5 -15 -13 -16 -12 -16 9
-5 17 9 22 9 20 0 -2 -6 3 -14 11 -17 8 -3 11 0 7 7 -12 18 1 13 28 -12 17
-16 22 -27 15 -34 -6 -6 -6 -18 0 -36 8 -19 15 -24 31 -20 12 3 19 11 17 18
-3 6 1 12 8 12 7 0 11 -6 8 -12 -5 -14 24 -28 38 -19 15 9 10 20 -16 34 -13 7
-24 16 -23 19 2 19 -3 24 -11 12 -8 -12 -12 -12 -25 -2 -19 16 -22 36 -3 25 7
-5 6 0 -3 11 -14 17 -13 18 3 12 10 -4 24 -7 30 -7 7 0 6 -4 -3 -10 -13 -8
-13 -10 2 -10 9 0 23 -9 31 -20 10 -14 20 -18 32 -14 15 6 16 9 4 18 -8 6 -20
22 -27 35 -11 19 -11 22 0 16 7 -4 5 1 -5 11 -15 16 -19 17 -27 4 -5 -8 -12
-11 -16 -7 -4 3 -1 13 6 22 18 21 7 28 -31 20 -22 -5 -28 -10 -18 -15 7 -5 17
-6 21 -4 4 3 8 0 8 -6 0 -13 -41 -3 -51 12 -3 5 -16 5 -31 -1 -37 -14 -62 -9
-68 14 -4 13 -8 16 -13 8z"/>
<path d="M237 163 c-4 -3 1 -11 10 -18 10 -7 14 -19 10 -29 -6 -15 -9 -15 -37
-1 -16 8 -30 13 -30 11 0 -3 14 -12 30 -21 17 -9 30 -22 30 -30 0 -18 -1 -18
-36 0 -35 18 -76 19 -92 3 -10 -10 -15 -10 -23 2 -8 12 -9 10 -4 -7 6 -21 4
-22 -27 -16 -18 3 -35 10 -38 14 -3 4 -12 4 -20 -1 -13 -9 -13 -10 0 -10 12 0
12 -2 2 -9 -20 -12 -10 -45 14 -49 11 -2 27 4 34 13 16 19 31 20 24 0 -5 -12
2 -15 29 -15 22 0 37 6 41 15 7 19 26 19 26 0 0 -19 9 -19 32 2 17 15 18 15
18 -1 0 -15 12 -16 95 -15 52 1 95 6 95 10 0 5 -6 6 -14 3 -9 -4 -15 5 -18 25
-2 17 -2 32 1 34 3 2 1 2 -6 1 -21 -5 -73 27 -72 44 1 15 2 15 6 0 2 -10 9
-18 14 -18 14 0 11 30 -5 45 -12 12 -15 11 -20 -10 -3 -13 -2 -35 4 -49 8 -22
7 -26 -9 -26 -15 0 -18 -5 -14 -22 4 -22 4 -22 -11 -4 -11 14 -13 23 -5 32 7
9 5 15 -8 23 -16 9 -16 10 -1 11 26 0 29 15 8 37 -10 12 -16 24 -13 27 4 3 2
6 -4 6 -5 0 -13 -3 -16 -7z"/>
<path d="M6750 163 c0 -6 5 -15 10 -18 16 -10 11 -25 -6 -18 -14 5 -14 3 -2
-18 7 -13 20 -33 28 -43 14 -18 13 -19 -3 -13 -10 4 -21 7 -23 7 -2 0 -4 6 -4
14 0 8 -5 18 -12 22 -8 5 -9 2 -5 -9 3 -10 2 -17 -4 -17 -6 0 -7 -5 -4 -10 3
-6 3 -10 -2 -10 -4 0 -9 -11 -9 -24 -2 -24 0 -24 71 -24 53 0 75 4 79 14 3 7
1 16 -3 19 -11 6 -2 45 11 45 5 0 6 -5 2 -12 -5 -7 -3 -8 7 -3 12 7 12 6 1 -7
-11 -14 -10 -18 5 -27 17 -10 17 -10 0 -11 -10 0 -15 -4 -12 -10 3 -5 15 -10
26 -10 11 0 17 4 14 10 -3 5 6 12 20 16 19 5 30 1 41 -12 14 -18 14 -18 4 4
-8 16 -19 22 -45 22 -19 0 -35 5 -35 10 0 6 6 10 13 9 42 -5 33 5 -21 23 -36
12 -58 24 -51 28 6 4 7 10 2 13 -14 8 -37 -9 -29 -22 4 -6 3 -11 -3 -11 -5 0
-12 8 -15 18 -9 24 -46 69 -46 55z"/>
<path d="M2460 134 c0 -3 5 -14 10 -25 8 -13 7 -19 0 -19 -6 0 -4 -7 4 -16 20
-20 21 -38 1 -31 -8 4 -17 1 -21 -6 -4 -7 -3 -9 1 -4 5 4 19 -3 32 -15 19 -18
23 -19 17 -5 -5 15 -3 16 20 7 17 -6 26 -6 26 0 0 6 11 8 24 4 13 -3 27 -1 30
5 5 7 1 8 -10 4 -12 -4 -15 -2 -12 8 3 8 1 22 -4 32 -6 12 -5 17 4 17 25 0 58
-12 58 -21 0 -5 -3 -8 -7 -7 -8 3 -13 -5 -13 -23 0 -6 9 -8 20 -4 14 4 20 2
18 -7 -2 -8 5 -12 19 -10 12 2 24 -2 28 -8 3 -5 19 -10 36 -10 25 0 29 4 29
28 0 21 2 24 10 12 9 -13 12 -13 24 2 17 23 26 23 26 -2 0 -13 -7 -20 -20 -20
-11 0 -20 -4 -20 -9 0 -5 16 -9 36 -8 20 1 32 3 25 5 -6 2 -11 8 -11 13 0 4 8
6 18 2 14 -5 13 -3 -3 10 -20 16 -20 16 4 17 l25 0 -22 20 c-22 21 -37 27 -27
10 4 -6 -5 -10 -19 -10 -32 0 -32 6 -3 32 l22 20 -26 -15 c-15 -9 -39 -14 -53
-11 -22 4 -25 1 -23 -16 2 -11 8 -25 14 -31 6 -6 9 -18 6 -25 -4 -11 -8 -11
-20 1 -9 10 -23 13 -40 9 -18 -5 -24 -3 -19 5 4 6 1 11 -9 11 -9 0 -13 4 -10
10 3 5 1 19 -5 30 -9 17 -14 19 -26 9 -11 -9 -14 -8 -14 5 0 9 -4 16 -10 16
-5 0 -10 -5 -10 -11 0 -8 -4 -8 -14 0 -11 9 -15 7 -19 -10 -3 -12 -2 -31 4
-41 6 -12 6 -18 -1 -18 -5 0 -10 5 -10 10 0 6 -5 10 -11 10 -5 0 -7 -4 -4 -10
3 -5 1 -10 -5 -10 -6 0 -10 8 -8 18 2 9 -3 24 -12 32 -9 8 -19 23 -23 33 -6
15 -27 25 -27 11z"/>
</g>
</svg>
