<?xml version="1.0" standalone="no"?>
<!DOCTYPE svg PUBLIC "-//W3C//DTD SVG 20010904//EN"
 "http://www.w3.org/TR/2001/REC-SVG-20010904/DTD/svg10.dtd">
<svg version="1.0" xmlns="http://www.w3.org/2000/svg"
 width="720.000000pt" height="960.000000pt" viewBox="0 0 720.000000 960.000000"
 preserveAspectRatio="xMidYMid meet">
<metadata>
Created by potrace 1.16, written by Peter Selinger 2001-2019
</metadata>
<g transform="translate(0.000000,960.000000) scale(0.100000,-0.100000)"
fill="#000000" stroke="none">
<path d="M1597 8140 c-77 -24 -159 -80 -198 -133 -45 -61 -96 -170 -81 -175
17 -5 15 -17 -8 -54 -20 -32 -21 -32 -14 -5 13 55 -5 24 -46 -80 -24 -60 -76
-177 -117 -261 -41 -84 -71 -157 -68 -163 7 -10 -44 -141 -56 -147 -4 -2 -26
-49 -49 -105 -24 -56 -54 -129 -69 -162 -14 -33 -24 -67 -23 -77 2 -9 -10 -43
-26 -75 -16 -32 -53 -116 -82 -188 -29 -71 -60 -138 -68 -148 -15 -17 -9 -38
7 -21 4 5 35 74 69 154 33 80 72 172 85 205 34 81 162 392 200 485 17 41 38
94 48 117 40 92 137 322 159 376 12 32 24 56 26 54 3 -2 -11 -42 -30 -88 -54
-134 -244 -604 -293 -724 -141 -346 -185 -454 -323 -790 -84 -203 -171 -417
-195 -475 -23 -58 -82 -199 -130 -315 -48 -115 -139 -333 -201 -484 l-114
-273 0 -311 c0 -285 1 -310 16 -289 8 12 20 22 25 22 5 0 31 21 57 46 25 25
65 55 89 66 24 11 46 24 49 29 3 5 12 9 21 9 9 0 24 7 33 15 9 8 25 16 36 18
10 2 26 7 34 10 49 19 91 27 101 21 7 -4 9 -3 6 3 -4 6 10 13 35 17 23 4 45
12 49 17 3 6 25 12 48 12 22 1 41 5 41 10 0 13 30 8 30 -5 1 -8 6 -5 15 6 7
10 19 15 25 11 6 -4 18 -1 26 6 8 6 32 13 53 15 21 1 55 7 76 13 21 6 42 8 48
4 5 -3 13 1 18 8 6 10 9 11 9 2 0 -7 7 -13 15 -13 8 0 15 7 15 15 0 8 5 15 11
15 6 0 9 -7 5 -15 -3 -8 -1 -15 4 -15 6 0 10 7 10 15 0 8 3 14 8 14 4 -1 9 0
12 1 3 1 35 3 71 4 37 1 73 6 80 12 8 6 40 10 71 10 32 -1 53 1 48 2 -6 2 -10
8 -10 13 0 6 8 6 19 -1 14 -7 22 -7 26 1 4 6 13 8 21 5 7 -3 16 -1 19 5 4 5
10 7 15 4 5 -3 19 -1 31 6 15 8 19 8 15 0 -5 -7 2 -11 17 -11 14 0 27 6 30 14
6 14 34 18 119 17 21 0 26 4 21 16 -5 13 -3 14 15 4 17 -9 22 -9 22 1 0 9 3 9
12 0 7 -7 20 -12 31 -12 14 0 17 5 13 23 -3 12 -3 16 0 9 4 -8 10 -10 17 -4
14 11 57 -2 57 -17 0 -6 7 -8 16 -4 15 5 15 7 0 15 -20 11 -21 29 -1 21 9 -3
25 3 35 12 19 17 20 17 20 0 0 -11 5 -15 16 -11 9 3 18 6 20 6 3 0 2 5 -1 10
-3 6 -1 10 4 10 6 0 11 -4 11 -10 0 -5 7 -10 15 -10 9 0 12 6 8 18 -3 9 -3 14
2 10 4 -4 19 1 32 12 19 14 30 17 43 10 13 -7 20 -6 24 5 4 11 14 14 33 10 16
-3 22 -2 16 1 -19 8 -16 23 5 23 9 -1 28 3 41 7 17 5 22 4 17 -4 -4 -7 -3 -12
2 -12 6 0 13 7 16 16 3 9 13 14 21 10 8 -3 17 -1 20 4 4 6 0 10 -7 10 -8 1 -6
6 6 15 12 9 23 11 31 5 15 -12 39 4 30 21 -4 8 2 4 15 -7 18 -18 20 -25 11
-42 -6 -11 -8 -28 -4 -37 5 -15 3 -16 -15 -6 -28 15 -28 0 0 -25 12 -10 18
-14 15 -7 -12 20 9 23 25 3 15 -17 15 -19 -4 -23 -11 -3 -25 -4 -32 -1 -16 6
-47 60 -39 68 3 3 2 6 -4 6 -6 0 -14 -7 -17 -16 -3 -8 -2 -12 4 -9 6 3 10 0
10 -9 0 -8 6 -17 13 -19 9 -4 8 -8 -3 -16 -10 -7 -11 -11 -2 -11 18 0 15 -35
-6 -53 -21 -19 -32 -22 -32 -8 0 5 9 11 20 14 20 5 29 37 10 37 -5 0 -10 -5
-10 -11 0 -5 -5 -7 -10 -4 -15 9 -42 -15 -36 -32 3 -8 1 -11 -4 -8 -15 10 -12
32 6 39 9 3 14 13 11 20 -6 16 16 40 26 29 4 -3 7 -1 7 5 0 7 -4 12 -9 12 -16
0 -41 -31 -35 -42 4 -7 2 -8 -4 -4 -16 10 -15 22 4 40 20 20 6 20 -34 0 -34
-17 -44 -30 -14 -20 11 4 8 -1 -7 -12 -16 -13 -20 -22 -12 -26 6 -4 11 -2 11
3 0 17 17 13 24 -5 3 -8 2 -12 -4 -9 -14 9 -50 -13 -50 -30 0 -17 26 -21 32
-5 2 6 11 4 23 -5 16 -14 17 -16 3 -11 -10 3 -20 1 -23 -4 -11 -17 -33 -11
-40 11 -9 26 -36 21 -51 -9 -16 -32 -34 -50 -34 -34 0 7 5 12 10 12 6 0 10 7
10 15 0 8 -4 15 -10 15 -5 0 -10 -4 -10 -10 0 -5 -7 -10 -16 -10 -14 0 -15 -2
-3 -17 12 -15 12 -16 -3 -10 -20 7 -43 -17 -33 -35 4 -7 0 -5 -8 4 -15 19 -29
14 -20 -8 3 -8 0 -14 -5 -14 -15 0 -24 17 -13 24 4 3 8 17 9 30 0 25 -22 41
-39 30 -5 -3 -9 -2 -8 3 3 18 -2 33 -11 33 -6 0 -6 -9 0 -25 11 -30 -1 -39
-26 -20 -22 17 -34 19 -34 5 0 -5 11 -12 25 -16 20 -5 24 -11 19 -28 -4 -17 1
-25 20 -34 27 -12 29 -16 18 -44 -5 -13 -11 -15 -22 -8 -13 8 -13 11 -1 19 7
5 10 14 7 20 -9 14 -53 15 -61 1 -5 -9 6 -14 26 -12 3 1 6 -6 6 -14 0 -20 -8
-18 -40 11 -30 29 -35 40 -11 31 10 -4 14 -1 11 6 -2 7 -12 13 -23 13 -10 0
-25 4 -31 8 -8 5 -13 3 -13 -4 0 -7 -7 -4 -15 7 -11 14 -14 15 -9 2 6 -19 -28
-34 -48 -22 -8 5 -7 0 2 -11 14 -17 13 -18 -2 -12 -10 3 -18 2 -18 -3 0 -21
49 -14 67 8 12 16 14 16 26 1 6 -9 18 -14 26 -11 8 2 11 0 8 -5 -9 -14 -47
-23 -47 -12 0 6 -8 5 -20 -1 -11 -6 -17 -16 -14 -25 4 -8 2 -15 -4 -15 -5 0
-12 6 -15 14 -3 7 -17 14 -32 14 -15 -1 -34 7 -43 16 -9 9 -11 16 -5 16 6 0
13 -5 15 -11 2 -7 8 -6 16 3 10 13 8 15 -16 14 -15 -1 -26 -4 -24 -8 1 -5 2
-17 2 -27 0 -15 6 -19 25 -17 28 4 53 -18 34 -29 -6 -4 -15 -1 -20 6 -6 11 -9
8 -9 -8 0 -12 -4 -24 -9 -27 -5 -4 -7 3 -4 14 4 15 0 20 -15 20 -11 0 -22 -5
-24 -11 -2 -6 -16 -12 -31 -12 -29 -2 -35 -12 -14 -21 6 -3 3 -4 -8 -3 -12 1
-20 -4 -20 -13 0 -9 7 -14 19 -12 10 2 15 -1 11 -7 -5 -8 -32 -9 -52 -2 -1 1
3 16 9 34 13 37 28 50 44 36 7 -6 17 -2 28 10 16 18 16 19 -1 17 -12 -1 -17 5
-15 17 3 16 1 16 -35 0 -21 -10 -39 -21 -41 -24 -1 -3 -19 -4 -38 -2 -34 3
-35 3 -19 -13 14 -14 18 -15 25 -3 5 7 12 10 16 6 4 -4 13 -2 20 4 8 6 14 6
18 0 4 -5 2 -12 -4 -16 -6 -4 -8 -11 -5 -16 4 -5 1 -9 -4 -9 -6 0 -11 5 -11
11 0 5 -5 7 -11 4 -6 -5 -4 -12 8 -21 11 -8 13 -13 6 -14 -7 0 -13 -6 -13 -14
0 -10 -7 -12 -22 -8 -12 3 -17 7 -10 10 6 2 12 10 12 18 0 13 -3 13 -21 0 -12
-8 -28 -12 -35 -9 -8 3 -14 -1 -14 -11 0 -9 6 -13 14 -10 8 3 17 1 21 -5 3 -6
-1 -11 -9 -11 -19 0 -20 -11 -3 -29 10 -11 9 -12 -1 -7 -7 4 -19 2 -27 -4 -12
-10 -18 -10 -30 0 -8 7 -15 17 -15 23 0 7 4 7 12 -1 15 -15 31 -16 22 0 -4 7
-3 8 4 4 17 -10 15 6 -4 32 -8 12 -10 22 -5 22 6 0 11 4 11 10 0 5 -7 7 -16 3
-8 -3 -13 -11 -10 -19 3 -7 -2 -18 -10 -24 -8 -7 -14 -19 -14 -26 0 -8 -3 -14
-7 -15 -5 0 -16 -2 -25 -4 -10 -2 -18 1 -18 6 0 5 -16 9 -35 9 -24 0 -35 5
-35 14 0 8 -6 17 -12 19 -10 4 -9 8 2 16 8 6 11 11 5 11 -5 -1 -19 -7 -30 -16
-17 -13 -20 -13 -25 2 -5 14 -7 14 -20 -3 -8 -10 -10 -15 -6 -11 12 11 39 -29
30 -44 -5 -7 -3 -8 5 -3 7 4 11 16 8 26 -3 12 0 19 10 19 9 0 13 -6 10 -14 -3
-8 5 -19 19 -26 13 -8 24 -17 24 -22 0 -13 -12 -9 -24 7 -8 10 -15 12 -26 5
-10 -6 -11 -10 -2 -10 6 0 12 -7 12 -16 0 -8 4 -13 9 -9 6 3 15 -3 20 -14 8
-14 8 -20 -1 -23 -13 -5 -48 26 -48 42 0 17 -30 11 -36 -7 -3 -10 -9 -26 -14
-35 -7 -12 -5 -18 8 -21 16 -4 16 -5 0 -6 -23 -1 -32 17 -18 34 7 8 9 15 5 15
-5 0 0 9 10 20 10 11 15 23 11 27 -4 4 -11 1 -15 -6 -7 -11 -9 -11 -14 0 -3 9
-8 5 -15 -12 -13 -32 -42 -47 -35 -18 3 10 0 19 -6 19 -10 0 -15 -13 -12 -32
0 -4 -17 -6 -39 -3 -38 5 -39 4 -46 -30 -3 -19 -10 -37 -14 -40 -5 -3 -6 3 -3
14 3 10 0 22 -7 26 -12 8 -40 -12 -40 -29 0 -6 4 -4 10 4 5 8 12 11 17 7 9
-10 -18 -28 -30 -20 -5 3 -7 16 -4 30 4 20 1 24 -13 20 -12 -3 -20 2 -23 15
-4 16 -3 17 9 7 15 -12 17 -5 5 24 -6 16 -12 13 -48 -22 -23 -23 -46 -41 -52
-41 -10 0 -16 22 -11 45 3 14 -11 -1 -25 -27 -8 -17 -19 -23 -43 -21 -27 1
-32 -2 -27 -17 3 -10 1 -21 -5 -25 -5 -3 -10 -1 -10 4 0 6 -4 11 -10 11 -5 0
-10 -7 -10 -15 0 -8 5 -15 12 -15 6 0 9 -2 7 -5 -3 -2 -15 -2 -27 2 -17 4 -20
9 -12 18 6 7 8 21 4 31 -4 14 -3 16 4 5 11 -15 36 -6 27 10 -10 15 -31 10 -61
-16 -31 -26 -44 -31 -44 -16 0 15 -60 25 -73 12 -15 -15 -27 -14 -27 4 0 8 -4
15 -9 15 -4 0 -7 -13 -5 -30 4 -34 -10 -48 -25 -23 -7 13 -10 14 -11 4 0 -8
-3 -11 -7 -8 -3 4 -12 -1 -20 -11 -12 -16 -14 -16 -28 2 -13 17 -15 17 -15 4
0 -9 7 -24 16 -32 8 -9 11 -16 5 -16 -6 0 -16 -11 -23 -25 -9 -17 -17 -22 -27
-16 -11 7 -8 13 13 26 25 17 26 19 10 36 -9 10 -20 16 -25 14 -4 -3 -10 -1
-14 5 -3 5 -1 10 4 10 6 0 11 4 11 10 0 17 -28 -1 -33 -21 -3 -13 -11 -17 -21
-13 -11 4 -16 1 -16 -10 0 -19 5 -20 30 -6 15 8 18 6 16 -14 -1 -20 -4 -22
-28 -15 -15 4 -32 10 -38 14 -17 11 -11 -15 10 -42 26 -33 25 -38 -7 -40 -22
-1 -24 1 -10 9 15 8 15 11 3 24 -20 19 -26 18 -26 -6 0 -11 -5 -20 -11 -20 -6
0 -9 -6 -6 -13 3 -7 -2 -21 -9 -32 -13 -18 -14 -16 -8 15 4 26 3 31 -5 20 -8
-12 -13 -12 -23 -2 -15 15 -24 15 -28 0 -1 -7 -4 -133 -7 -279 l-4 -267 23 -5
c25 -5 159 -40 543 -142 515 -136 1211 -318 1295 -339 75 -18 203 -24 275 -13
32 5 45 4 35 -2 -24 -15 -166 -31 -228 -26 -42 3 -49 2 -27 -4 17 -5 60 -9 96
-10 204 -3 374 99 471 284 34 66 93 233 85 242 -8 8 -24 -24 -47 -92 -22 -67
-76 -185 -84 -185 -3 0 10 33 29 73 18 39 88 257 155 482 181 611 194 653 260
875 122 409 174 584 327 1100 85 289 174 590 198 670 24 80 89 300 145 490 56
190 104 347 106 349 9 9 3 -16 -40 -162 -24 -84 -79 -271 -121 -417 -95 -326
-184 -632 -355 -1210 -73 -245 -150 -506 -171 -580 -22 -74 -101 -337 -176
-585 -74 -247 -140 -466 -145 -485 -5 -19 -25 -84 -43 -145 -18 -60 -34 -114
-35 -120 -4 -17 0 -39 5 -33 5 4 340 1130 576 1933 67 231 128 425 134 430 7
6 26 60 43 120 17 61 52 180 77 265 24 85 45 166 45 180 0 21 88 334 240 850
22 76 25 96 14 98 -18 4 -17 22 1 46 15 20 15 20 16 0 3 -52 38 99 38 166 2
131 -50 223 -166 297 -67 43 -233 99 -244 82 -4 -7 -14 -9 -24 -6 -9 4 -13 11
-10 17 3 5 4 10 1 10 -3 0 -319 83 -703 184 -384 101 -722 189 -751 195 -79
17 -198 13 -265 -9z m414 -149 c-25 -16 20 -18 68 -4 43 13 81 10 81 -6 0 -5
11 -6 25 -3 14 2 25 1 24 -4 -1 -5 -1 -16 0 -24 1 -12 5 -11 16 4 13 18 18 18
57 6 24 -7 48 -16 53 -19 6 -3 21 -6 35 -7 14 -1 38 -7 54 -13 22 -9 26 -14
17 -25 -6 -7 -8 -16 -4 -19 11 -11 -11 -7 -36 7 -17 9 -36 11 -69 4 -31 -5
-48 -5 -52 3 -4 6 -9 2 -13 -10 -3 -12 -11 -20 -19 -19 -8 2 -15 -11 -19 -37
l-6 -40 -8 32 c-7 31 -26 43 -70 43 -17 0 -17 -2 -5 -10 13 -8 13 -10 -2 -10
-10 0 -20 10 -23 23 -5 17 -13 23 -33 22 -15 -1 -35 2 -44 7 -10 5 -18 3 -21
-5 -4 -9 -7 -9 -15 1 -5 7 -19 14 -30 15 -12 1 -22 4 -22 7 0 4 -13 7 -30 7
-16 0 -30 -4 -30 -8 0 -13 -35 -4 -41 11 -7 16 7 30 30 30 11 0 9 -4 -5 -16
-17 -14 -17 -15 -1 -10 10 3 23 6 28 6 6 0 8 4 4 9 -3 5 -1 12 5 16 5 3 10 2
10 -2 0 -5 14 -14 30 -20 17 -6 30 -8 30 -4 0 5 10 12 22 18 14 6 18 12 11 16
-6 4 -18 0 -26 -8 -14 -14 -37 -21 -37 -11 0 2 -3 12 -7 21 -5 14 -2 16 14 11
12 -4 25 -1 33 9 7 8 18 15 24 15 6 0 5 -4 -3 -9z m-526 -51 c-4 -12 -2 -20 5
-20 13 0 3 -41 -12 -51 -5 -3 -3 -9 6 -12 16 -6 18 -47 3 -47 -5 0 -4 -7 3
-15 10 -12 10 -18 0 -30 -10 -12 -10 -15 1 -15 10 0 11 -2 2 -8 -20 -12 -31
-172 -17 -227 3 -11 9 -30 15 -42 26 -64 42 -105 43 -114 1 -8 95 -128 119
-151 9 -10 16 -18 14 -18 -7 0 82 -95 157 -168 44 -42 97 -94 118 -114 20 -21
41 -38 45 -38 4 0 16 -9 28 -20 37 -37 143 -134 196 -180 29 -25 69 -62 90
-82 21 -21 41 -38 44 -38 3 0 46 -42 96 -92 50 -51 102 -105 116 -119 14 -15
26 -38 26 -53 0 -14 3 -23 8 -20 9 5 39 -18 39 -30 0 -3 -7 -6 -15 -6 -9 0
-18 -7 -21 -15 -5 -11 -10 -13 -19 -5 -6 5 -16 6 -20 2 -5 -4 -5 1 -2 11 9 23
15 44 9 34 -2 -4 -10 -3 -17 3 -9 8 -15 8 -20 0 -3 -5 -1 -10 4 -10 6 0 3 -8
-6 -18 -23 -24 -39 -11 -23 18 10 18 9 21 -2 17 -7 -2 -12 -10 -10 -16 3 -16
-13 -13 -29 5 -11 13 -10 15 6 12 10 -1 20 2 22 8 6 17 -29 27 -39 12 -4 -7
-8 -11 -9 -8 -2 6 -9 49 -11 67 -1 8 -7 9 -20 2 -16 -8 -21 -20 -20 -39 0 -3
-12 -6 -26 -6 -24 -2 -25 -1 -7 8 28 13 47 55 28 62 -8 3 -11 1 -8 -5 7 -11
-12 -39 -26 -39 -5 0 -9 8 -9 18 0 14 2 15 10 2 7 -10 10 -11 10 -2 0 7 -7 15
-15 18 -8 4 -15 13 -15 22 0 13 -3 12 -16 -4 -15 -18 -15 -18 -9 11 6 28 5 29
-12 14 -28 -25 -47 -34 -38 -19 4 7 2 16 -6 21 -21 13 -27 11 -25 -7 0 -9 -4
-19 -10 -21 -15 -5 -9 48 6 57 8 5 6 11 -5 20 -13 11 -19 10 -35 -5 -20 -18
-21 -18 -35 1 -19 25 -19 34 2 34 12 0 14 3 6 11 -7 7 -17 8 -25 3 -18 -12
-38 -14 -38 -4 0 4 -11 10 -25 12 -17 4 -25 1 -25 -8 0 -8 -5 -14 -11 -14 -7
0 -10 12 -7 30 4 23 1 30 -12 30 -21 0 -31 10 -24 22 3 5 12 4 20 -3 11 -9 14
-8 14 7 0 14 -8 19 -33 21 -56 3 -72 8 -84 23 -7 8 -13 10 -13 5 0 -6 -12 -11
-27 -10 -16 0 -27 6 -26 13 4 16 -48 11 -54 -5 -6 -14 -23 -8 -23 8 0 6 4 8 9
4 17 -10 22 13 6 28 -13 13 -13 17 2 29 15 11 16 11 10 -4 -3 -10 -2 -20 3
-23 19 -12 17 12 -3 45 -23 36 -67 51 -67 22 0 -9 7 -13 20 -9 27 7 36 -11 16
-31 -15 -15 -16 -15 -16 1 0 9 -8 18 -17 19 -10 0 -23 2 -30 2 -18 2 -28 16
-11 16 9 0 18 7 22 15 3 8 0 15 -6 15 -6 0 -5 7 3 18 13 15 12 16 -4 3 -15
-12 -20 -11 -35 3 -10 9 -21 14 -23 11 -3 -2 -19 -5 -37 -7 -18 -1 -32 -6 -32
-10 0 -16 -20 -7 -31 13 -7 13 -7 19 -1 15 6 -3 13 -2 17 4 3 5 14 10 23 10
15 0 15 -2 2 -10 -12 -8 -11 -10 8 -10 12 0 22 2 22 4 0 2 3 13 6 23 5 15 4
15 -5 3 -6 -9 -11 -10 -11 -3 0 11 -16 12 -35 2 -22 -12 -73 -9 -100 5 -17 9
-36 16 -42 16 -17 0 -17 -17 -1 -22 15 -5 -30 -67 -49 -67 -13 -1 -44 25 -59
51 -8 11 -15 11 -44 -4 -28 -15 -31 -18 -13 -18 12 0 25 -5 28 -10 3 -6 17 -7
31 -4 18 5 24 2 24 -11 0 -12 -5 -15 -19 -10 -11 3 -23 1 -27 -6 -4 -7 -2 -10
7 -7 8 3 20 -2 27 -11 10 -12 15 -13 18 -3 3 6 10 12 16 12 6 0 4 -8 -4 -17
-9 -10 -13 -24 -11 -30 3 -7 0 -13 -6 -13 -6 0 -11 7 -11 15 0 13 -4 12 -21
-3 -12 -12 -28 -18 -41 -14 -20 5 -20 5 3 23 19 15 21 19 7 19 -9 0 -24 -10
-33 -22 -13 -20 -13 -23 -1 -26 20 -4 29 -32 11 -32 -20 0 -19 -9 3 -33 17
-19 16 -19 -5 -6 -18 11 -25 11 -35 1 -11 -11 -10 -12 5 -7 20 8 23 -5 5 -24
-10 -11 -10 -13 0 -7 6 4 12 2 12 -4 0 -6 14 -2 30 10 17 12 30 17 30 11 0 -6
7 -11 16 -11 14 0 14 3 4 15 -7 8 -9 15 -6 15 4 0 14 -7 22 -15 12 -12 12 -15
2 -15 -9 0 -10 -2 -2 -8 9 -5 8 -11 -2 -20 -13 -12 -18 -8 -15 10 1 11 -22 5
-31 -7 -12 -15 -9 -25 6 -25 7 0 16 -9 19 -20 3 -11 1 -20 -4 -20 -5 0 -9 8
-10 18 0 9 -4 4 -9 -11 -5 -16 -6 -35 -4 -42 4 -10 -1 -12 -17 -8 -15 4 -20 3
-15 -6 8 -12 42 -11 64 2 6 5 12 6 12 3 0 -2 3 -13 6 -23 5 -14 4 -15 -4 -4
-9 12 -13 13 -27 1 -9 -7 -14 -19 -11 -27 3 -7 1 -13 -4 -13 -6 0 -10 -4 -10
-10 0 -5 6 -9 13 -7 8 1 11 -13 10 -51 -2 -32 1 -50 7 -47 6 3 10 13 10 21 0
8 5 14 10 14 6 0 8 -12 5 -27 -3 -16 -2 -22 1 -15 5 10 9 10 22 0 9 -7 13 -8
9 -2 -4 7 0 17 8 24 13 11 14 9 7 -11 -5 -13 -18 -26 -28 -29 -11 -3 -19 -11
-18 -17 1 -7 2 -17 3 -23 0 -5 8 -10 17 -10 12 0 14 3 6 13 -8 10 -5 16 11 27
19 11 20 11 10 -2 -10 -11 -9 -19 4 -38 16 -22 16 -23 -2 -17 -16 7 -16 5 -4
-10 7 -10 9 -15 5 -11 -5 4 -15 0 -22 -10 -18 -23 -17 -37 1 -22 17 14 31 8
21 -9 -4 -5 -18 -8 -31 -5 -23 4 -25 2 -25 -37 l0 -41 18 23 19 22 5 -21 c4
-12 1 -25 -4 -29 -7 -3 -8 -1 -4 5 4 7 3 12 -3 12 -5 0 -13 -5 -16 -10 -5 -8
-11 -7 -21 1 -12 10 -13 9 -8 -6 5 -11 3 -16 -2 -12 -5 3 -10 -3 -10 -14 0
-10 3 -19 7 -19 4 0 5 -9 2 -21 -6 -23 -19 -15 -25 15 -3 18 -4 17 -15 -6 -10
-22 -9 -25 4 -24 9 0 18 -5 20 -12 3 -7 -1 -13 -8 -11 -25 3 -39 -1 -39 -11 0
-5 7 -7 15 -4 14 6 21 -13 15 -41 -1 -5 2 -7 5 -3 4 4 16 3 26 -2 12 -7 19 -6
22 3 2 6 8 9 12 4 15 -13 -11 -30 -31 -19 -24 12 -44 5 -38 -13 3 -7 1 -16 -5
-20 -6 -3 -11 -17 -11 -30 0 -18 -5 -23 -20 -20 -13 3 -20 -2 -20 -12 0 -9 6
-13 14 -10 8 3 17 0 19 -7 4 -9 0 -12 -12 -9 -10 2 -25 -2 -33 -10 -10 -10
-20 -12 -29 -6 -22 14 -36 10 -17 -5 10 -7 15 -16 11 -19 -3 -4 2 -9 11 -13 9
-3 13 -10 10 -15 -3 -5 -12 -2 -20 6 -18 18 -38 20 -28 3 5 -7 9 -19 10 -28 1
-8 3 -21 5 -29 2 -7 -4 -15 -14 -16 -12 -2 -17 1 -13 10 3 9 0 12 -9 9 -7 -3
-15 -15 -18 -26 -3 -11 -10 -17 -15 -14 -6 4 -8 -3 -5 -16 3 -14 1 -18 -4 -11
-6 8 -14 8 -32 -1 -20 -11 -21 -14 -6 -20 9 -3 22 -3 28 1 7 4 6 -1 -2 -11
-11 -13 -16 -14 -22 -4 -5 7 -9 8 -9 2 0 -5 5 -15 12 -22 9 -9 8 -12 -5 -12
-9 0 -16 -5 -15 -11 2 -6 -3 -14 -11 -17 -10 -3 -12 0 -8 11 3 9 -1 21 -10 29
-14 11 -16 10 -10 -13 5 -19 3 -29 -8 -33 -8 -3 -15 -1 -15 4 0 6 -10 10 -22
10 l-22 0 22 -15 c16 -12 27 -13 41 -6 14 8 20 7 24 -4 4 -9 1 -12 -9 -8 -7 3
-14 -1 -14 -8 0 -7 -3 -9 -6 -6 -10 10 -44 -12 -44 -29 0 -8 -4 -13 -9 -10 -5
3 -11 -1 -15 -9 -3 -9 -12 -12 -21 -8 -11 4 -16 1 -14 -8 1 -8 -3 -25 -9 -39
-7 -16 -11 -19 -11 -9 -1 9 -9 19 -19 21 -21 6 -48 -42 -37 -64 4 -7 -3 -3
-14 10 -11 13 -26 20 -32 16 -8 -5 -7 -9 5 -16 9 -5 16 -14 16 -20 0 -9 -3 -9
-12 0 -8 8 -16 6 -29 -9 -10 -12 -23 -18 -28 -14 -6 3 -11 -1 -11 -9 0 -9 5
-16 10 -16 6 0 10 -8 9 -17 0 -11 -3 -13 -6 -5 -2 6 -9 10 -14 6 -5 -3 -9 4
-9 16 0 12 -5 18 -10 15 -6 -4 -8 -11 -5 -16 3 -5 -1 -6 -9 -3 -11 4 -16 0
-16 -15 0 -12 -5 -21 -11 -21 -5 0 -8 -4 -5 -9 3 -5 -2 -8 -12 -7 -11 1 -16
-5 -14 -17 3 -17 2 -17 -17 0 -25 21 -27 27 -6 19 8 -3 15 -1 15 3 0 5 -6 11
-14 14 -15 6 -40 -48 -30 -64 3 -5 1 -9 -5 -9 -5 0 -11 3 -14 8 -2 4 -3 2 -1
-4 1 -6 -2 -17 -7 -25 -6 -10 -9 -10 -9 -1 0 17 -17 15 -24 -4 -4 -10 -2 -13
7 -8 7 5 6 1 -3 -10 -13 -17 -14 -17 -21 1 -4 10 -8 12 -8 5 -1 -7 -9 -12 -18
-10 -14 2 -17 -3 -15 -19 2 -13 -2 -23 -7 -23 -6 0 -11 7 -11 15 0 8 -5 15
-11 15 -5 0 -7 -4 -4 -10 10 -15 -5 -12 -22 5 -23 23 -28 10 -8 -21 l17 -27
-23 17 c-27 19 -43 21 -33 4 5 -7 2 -9 -9 -5 -14 5 -28 -11 -31 -36 -1 -4 -7
-11 -14 -16 -7 -4 -10 -16 -7 -27 4 -12 1 -10 -9 6 -8 14 -16 21 -16 15 -6
-49 -17 -66 -30 -45 -10 17 -61 -112 453 1145 236 578 497 1219 579 1425 83
206 162 398 175 425 34 68 73 112 58 65z m1040 -50 c3 -5 21 -10 39 -10 18 0
100 -19 182 -41 82 -23 169 -47 194 -53 29 -8 44 -17 42 -26 -2 -10 0 -11 11
-2 11 9 34 6 103 -13 49 -13 148 -40 219 -59 161 -43 212 -64 265 -112 75 -68
97 -147 74 -266 -13 -66 -60 -231 -72 -253 -3 -5 -7 -16 -8 -25 -1 -8 -10 -45
-20 -82 -14 -54 -21 -68 -36 -68 -11 0 -16 -5 -13 -10 4 -6 11 -8 16 -5 11 7
12 -5 1 -21 -8 -13 -94 -16 -86 -3 3 5 1 9 -4 9 -6 0 -8 10 -5 23 3 12 2 18
-2 14 -5 -4 -10 -21 -11 -37 -3 -34 19 -45 66 -35 19 4 30 3 30 -4 0 -6 -4
-11 -9 -11 -5 0 -9 -6 -8 -12 1 -39 -5 -66 -19 -84 -14 -18 -15 -18 -8 6 6 20
4 23 -7 14 -11 -8 -20 -4 -38 14 -15 16 -18 23 -7 19 11 -4 16 -1 16 9 0 10
-6 14 -15 11 -22 -9 -28 10 -8 23 13 8 14 10 3 9 -35 -3 -49 2 -44 15 3 9 -3
17 -15 21 -12 3 -21 13 -21 21 0 8 -5 14 -11 14 -6 0 -17 7 -25 15 -9 8 -12
15 -7 15 5 0 14 -5 21 -12 9 -9 12 -9 12 1 0 7 4 10 9 6 5 -3 13 0 17 6 5 9 1
10 -14 7 -26 -7 -61 15 -42 27 7 4 16 2 20 -5 10 -16 30 -4 30 17 0 11 -6 14
-25 9 -19 -5 -25 -2 -25 10 0 12 6 15 21 11 15 -4 19 -2 15 8 -7 19 13 30 27
16 6 -6 18 -11 27 -10 11 0 11 2 -3 8 -10 4 -17 10 -15 13 2 4 -6 14 -17 21
-16 13 -17 17 -6 31 14 16 4 22 -14 8 -13 -9 -45 -59 -45 -69 0 -4 5 0 11 10
5 9 18 17 27 16 12 0 13 -2 3 -6 -7 -3 -22 -14 -33 -25 -10 -10 -24 -16 -29
-12 -6 4 -15 0 -20 -7 -7 -11 -9 -10 -9 4 0 9 5 17 10 17 6 0 10 7 10 16 0 9
5 12 12 8 7 -5 8 -3 3 6 -5 8 -1 18 10 26 10 8 15 17 12 21 -4 3 -13 -2 -21
-12 -7 -10 -18 -15 -25 -11 -6 4 -19 2 -27 -5 -11 -9 -18 -9 -26 -1 -7 7 -8
12 -3 12 5 0 1 6 -9 13 -14 10 -16 18 -9 31 8 15 11 13 23 -11 8 -15 15 -30
16 -31 1 -2 18 4 38 13 36 17 47 35 24 35 -8 1 -6 6 5 14 23 18 22 29 -3 16
-17 -9 -19 -8 -13 7 5 15 3 16 -8 6 -17 -16 -43 -17 -33 -1 4 7 3 8 -5 4 -6
-4 -9 -12 -6 -17 4 -5 -1 -9 -9 -9 -8 0 -18 5 -21 10 -3 6 -1 10 4 10 6 0 11
7 11 16 0 11 6 15 19 11 13 -3 21 1 24 14 4 15 1 17 -25 12 -30 -6 -30 -6 -12
15 10 12 21 18 24 14 7 -9 36 -9 46 1 4 4 -4 7 -18 7 -14 0 -28 7 -32 15 -3 8
-10 15 -16 15 -6 0 -9 -4 -6 -8 3 -5 -1 -19 -8 -33 -7 -13 -11 -30 -8 -37 2
-7 -5 -12 -17 -12 -12 0 -21 5 -21 10 0 6 4 10 9 10 5 0 12 7 15 15 3 10 1 15
-7 13 -13 -3 -17 3 -17 23 0 6 6 9 14 6 10 -4 12 0 8 16 -2 12 -9 28 -15 35
-7 8 -4 12 8 12 17 0 17 1 1 19 -11 12 -24 17 -34 13 -10 -3 -12 -7 -4 -10 7
-2 12 -8 12 -13 0 -6 -4 -8 -9 -5 -4 3 -17 -1 -27 -9 -18 -15 -18 -15 6 -12
14 2 19 2 13 0 -12 -4 -17 -17 -14 -35 0 -5 -4 -8 -9 -8 -6 0 -13 14 -17 30
-4 25 -8 28 -20 19 -7 -7 -16 -9 -20 -5 -3 3 -1 6 6 6 8 0 11 7 7 15 -3 8 -1
16 4 16 6 1 14 2 20 3 5 0 15 7 22 14 10 10 9 12 -5 12 -9 0 -17 5 -17 11 0 5
-5 7 -12 3 -6 -4 -8 -3 -5 3 4 6 -2 13 -13 16 -15 4 -20 0 -20 -14 0 -24 -22
-15 -36 15 -13 28 -5 32 58 31 21 0 36 4 34 10 -2 6 -15 9 -29 7 -14 -1 -28 2
-32 8 -5 8 -11 8 -21 -1 -11 -9 -15 -8 -20 5 -3 9 -11 13 -16 10 -6 -4 -8 2
-6 12 2 11 11 19 20 19 9 0 20 4 24 8 4 4 14 7 23 7 14 -1 13 -3 -2 -14 -10
-8 -15 -16 -10 -19 5 -3 16 1 26 8 17 12 16 14 -9 32 -25 19 -26 21 -13 56 7
20 16 37 21 37 4 0 6 13 5 29 -3 41 -23 27 -23 -16 0 -25 -7 -41 -23 -54 -28
-23 -41 -24 -41 -4 0 8 -5 15 -12 15 -6 0 -8 -3 -5 -7 4 -3 -3 -11 -15 -17
-12 -6 -23 -17 -26 -25 -3 -9 0 -11 8 -6 7 4 28 11 47 15 27 7 33 5 29 -5 -3
-8 0 -16 7 -19 7 -3 6 -5 -3 -4 -22 2 -51 -13 -44 -23 11 -18 -16 -8 -36 13
-27 29 -26 36 16 72 22 20 36 42 38 61 2 17 4 33 5 38 0 4 9 7 19 8 14 0 14 2
-3 8 -11 5 -23 7 -27 4 -5 -2 -8 0 -8 4 0 13 -61 41 -105 48 -22 4 -44 10 -50
15 -5 4 -27 10 -48 14 -21 4 -36 10 -33 14 2 4 -17 8 -43 9 -63 4 -203 45
-209 62 -3 10 0 12 11 8 9 -3 19 -2 22 3 8 13 32 13 40 0z"/>
<path d="M4178 7454 c-11 -26 -21 -52 -22 -58 -1 -6 -5 -17 -10 -24 -17 -28
-145 -484 -149 -534 -1 -9 -5 -14 -9 -12 -8 5 -13 -32 -10 -69 1 -10 -2 -16
-7 -13 -13 8 -20 -30 -14 -70 4 -25 1 -35 -10 -39 -8 -4 -13 -14 -10 -23 6
-23 -41 -184 -51 -175 -4 4 -4 0 -1 -9 6 -14 -47 -241 -65 -278 -4 -8 -35
-127 -69 -265 -83 -337 -84 -338 -100 -351 -8 -6 -13 -31 -13 -65 -1 -31 -4
-46 -7 -35 -5 14 -12 0 -25 -48 -10 -37 -16 -70 -12 -73 3 -4 6 3 6 15 0 11 4
23 9 27 5 3 1 -27 -10 -67 -25 -88 -31 -104 -24 -59 3 19 3 32 -1 29 -11 -11
-26 -82 -29 -132 -2 -33 -8 -52 -19 -58 -9 -5 -16 -19 -16 -31 0 -18 2 -19 10
-7 8 11 9 7 4 -15 -12 -50 -25 -75 -19 -35 3 23 2 30 -4 21 -5 -8 -9 -37 -9
-65 0 -28 -5 -62 -11 -76 -9 -21 -10 -18 -5 20 7 48 -3 52 -12 5 -3 -16 -9
-36 -14 -46 -16 -29 -11 -46 7 -24 l15 20 -4 -20 c-20 -80 -60 -220 -64 -224
-8 -8 -4 30 5 47 10 21 24 109 16 100 -8 -7 -45 -158 -44 -178 0 -10 3 -9 10
5 l9 20 -4 -20 c-7 -35 -84 -306 -126 -445 -38 -125 -53 -180 -95 -333 -8 -32
-20 -67 -25 -78 -6 -10 -8 -19 -5 -19 3 0 0 -10 -7 -22 -6 -13 -13 -27 -14
-33 -2 -5 -14 -50 -27 -100 -14 -49 -34 -125 -45 -168 -24 -87 -30 -100 -42
-92 -10 6 -25 -34 -16 -42 3 -4 6 1 6 10 0 10 5 17 11 17 6 0 8 -7 5 -16 -3
-9 -6 -18 -6 -20 0 -2 -6 -4 -14 -4 -16 0 -30 -49 -28 -95 2 -24 0 -27 -9 -15
-9 12 -10 11 -6 -7 3 -13 1 -23 -3 -23 -4 0 -6 -10 -3 -22 4 -19 3 -20 -7 -8
-9 12 -11 10 -7 -12 2 -17 0 -25 -6 -21 -6 4 -8 0 -4 -10 3 -9 1 -19 -4 -23
-6 -3 -9 -15 -6 -25 3 -12 1 -17 -6 -12 -6 4 -8 0 -4 -10 4 -10 2 -17 -4 -17
-6 0 -9 -9 -6 -20 3 -11 1 -23 -5 -26 -5 -3 -7 -12 -4 -20 3 -8 0 -14 -7 -14
-8 0 -6 -4 3 -10 13 -8 13 -10 -2 -10 -9 0 -17 -8 -16 -17 0 -23 -8 -57 -20
-80 -5 -10 -19 -56 -32 -103 -28 -105 -82 -285 -122 -405 -16 -49 -31 -101
-32 -115 -2 -17 -2 -18 1 -2 7 35 20 26 27 -19 4 -26 2 -46 -5 -55 -15 -19
-12 -18 133 11 68 14 139 28 158 31 19 2 46 7 60 10 14 3 36 8 49 10 13 3 37
14 52 25 20 14 29 16 32 7 3 -7 6 -4 6 7 1 12 5 25 10 30 5 6 11 21 13 35 2
17 9 24 19 22 9 -1 19 4 23 13 3 8 2 15 -2 15 -14 0 -11 44 4 61 10 11 13 26
9 39 -4 13 0 31 10 46 9 14 14 33 10 42 -3 9 -3 13 2 9 6 -7 16 23 36 110 2 7
6 15 9 19 4 3 4 12 1 20 -3 8 -1 14 4 14 5 0 9 8 10 18 3 40 9 57 21 65 7 5
12 28 12 55 0 30 3 42 9 33 6 -9 10 -4 13 18 2 17 1 31 -4 31 -5 0 -4 9 2 20
6 11 13 34 15 50 2 16 6 37 9 47 3 10 7 29 10 43 2 14 11 44 20 68 8 23 13 42
9 42 -3 0 1 8 8 17 10 11 10 14 2 9 -7 -4 -13 -3 -13 3 0 5 5 13 10 16 6 3 10
21 10 39 0 17 5 37 10 42 6 6 12 25 13 42 1 18 6 32 11 32 4 0 5 8 2 17 -4 10
-4 14 0 10 10 -10 35 62 32 93 -1 14 2 31 7 39 5 10 4 16 -3 19 -6 2 -8 10 -5
18 3 7 9 12 13 9 5 -3 7 6 4 21 -3 17 2 34 12 45 10 11 14 22 11 26 -4 3 -2
12 4 20 9 9 8 13 0 13 -6 0 -11 5 -11 11 0 5 5 7 10 4 6 -3 10 3 10 15 0 13 4
19 12 14 8 -5 9 4 5 32 -7 40 10 105 31 126 17 17 15 31 -3 24 -8 -3 -15 -1
-15 4 0 6 4 10 8 10 5 0 9 6 9 13 1 18 12 85 22 135 4 23 6 42 3 42 -2 0 0 6
6 13 6 6 13 29 17 50 4 21 14 41 21 44 8 3 11 9 8 14 -3 5 -10 7 -15 4 -5 -4
-8 6 -8 22 1 18 3 21 6 10 4 -14 8 -16 19 -6 11 9 12 15 3 25 -9 11 -8 18 1
29 6 8 9 19 5 25 -3 5 0 10 7 10 10 0 10 2 -1 9 -11 7 -11 9 0 14 9 3 7 6 -6
7 -19 1 -19 1 -1 15 14 11 17 22 13 45 -5 22 -3 32 8 37 13 5 13 7 -2 20 -10
8 -12 12 -5 8 6 -3 12 -1 12 5 0 7 10 20 22 30 19 15 21 21 11 43 -9 20 -9 27
0 30 9 3 9 8 -2 20 -9 11 -10 17 -2 17 7 0 10 15 8 40 -2 22 0 40 5 40 4 0 8
5 8 11 0 5 -4 7 -10 4 -5 -3 -10 -1 -10 4 0 6 5 11 11 11 6 0 8 9 4 20 -4 12
-2 20 5 20 7 0 9 8 5 22 -6 17 -4 20 9 15 10 -4 14 -3 11 2 -3 5 -1 12 4 16
10 5 8 27 -5 68 -6 20 -6 20 10 4 10 -9 18 -17 19 -17 1 0 2 23 1 50 -1 28 2
50 7 50 4 0 13 9 19 21 9 15 8 24 -2 37 -9 11 -9 14 -1 8 10 -5 11 -1 4 16 -6
16 -4 26 7 34 12 9 12 13 2 19 -9 5 -11 4 -6 -3 4 -7 2 -12 -3 -12 -15 0 -14
43 1 58 16 16 31 15 22 0 -5 -9 -2 -9 9 1 19 15 23 36 5 25 -7 -5 -8 -3 -4 5
5 7 15 10 24 6 9 -3 13 -3 9 1 -4 4 -2 13 4 20 9 10 7 15 -5 20 -9 3 -13 11
-9 17 3 6 1 7 -6 3 -9 -6 -9 -11 -1 -21 7 -8 7 -16 2 -19 -6 -3 -13 1 -16 10
-10 26 -7 44 8 44 21 0 48 -30 42 -46 -3 -7 1 -17 9 -21 11 -6 12 -17 5 -49
-5 -23 -8 -51 -5 -63 2 -12 0 -19 -4 -16 -7 4 -11 -24 -12 -95 -1 -8 -3 -22
-6 -30 -7 -16 -7 -21 -23 -220 -13 -174 -56 -508 -106 -830 -3 -19 -12 -77
-20 -128 -37 -238 -64 -449 -74 -582 -6 -80 -13 -152 -15 -160 -3 -8 -11 -51
-19 -95 -8 -44 -31 -150 -51 -235 -20 -85 -41 -171 -45 -190 -12 -51 -15 -61
-55 -215 -69 -261 -168 -671 -205 -845 -10 -52 -31 -144 -46 -205 -37 -159
-53 -224 -64 -275 -5 -25 -16 -72 -24 -105 -27 -114 -96 -431 -122 -555 -14
-69 -32 -137 -39 -153 -8 -15 -9 -25 -4 -22 10 7 12 -6 3 -29 -3 -9 -10 -13
-15 -10 -5 3 -9 1 -9 -5 0 -5 5 -13 10 -16 8 -5 8 -11 1 -19 -18 -21 -1 -26
89 -26 l86 0 12 90 c7 49 19 118 27 152 24 101 53 232 85 383 30 139 118 494
147 590 13 44 26 89 28 99 7 30 35 119 45 141 24 55 40 99 40 113 0 16 59 144
70 152 4 3 13 22 21 43 7 20 16 37 20 37 4 0 10 16 13 35 4 19 11 35 16 35 6
0 9 3 8 7 -3 11 41 125 54 140 5 7 31 15 56 19 l47 8 -93 16 c-142 26 -137 17
-107 235 14 99 37 261 50 360 13 99 33 241 44 315 11 74 27 189 36 255 14 106
46 336 60 435 3 19 27 190 55 380 27 190 74 525 105 745 31 220 110 776 176
1235 210 1462 200 1380 174 1380 -13 0 -16 -8 -14 -40 4 -52 -6 -59 -27 -18
-9 18 -30 45 -45 61 -16 15 -29 31 -29 36 0 11 -50 61 -62 61 -5 0 -18 -21
-30 -46z"/>
<path d="M4506 7455 c-3 -8 -10 -55 -16 -103 -6 -48 -19 -143 -30 -212 -38
-250 -51 -334 -125 -845 -42 -286 -87 -601 -100 -700 -35 -256 -85 -620 -149
-1070 -54 -382 -102 -726 -152 -1095 -14 -102 -40 -297 -59 -435 -70 -508
-105 -781 -105 -807 0 -21 5 -28 19 -28 11 0 26 -2 34 -5 10 -4 14 4 15 32 1
21 13 110 27 197 13 88 29 218 35 290 14 183 18 215 26 228 4 6 9 48 10 92 2
45 7 108 13 141 11 71 21 146 26 198 2 20 6 45 9 55 6 22 11 56 35 247 30 242
34 277 36 315 1 19 5 46 8 60 4 14 8 48 10 75 1 28 5 55 9 60 3 6 6 21 6 35 0
14 5 54 12 89 6 34 9 66 6 69 -3 3 -2 10 3 16 5 6 11 38 15 71 3 33 8 71 11
85 3 14 10 75 16 135 6 61 13 113 15 117 2 4 7 33 10 65 3 32 9 74 14 93 7 29
12 68 25 195 6 52 18 144 22 160 3 11 6 39 8 62 2 24 6 51 9 60 3 10 10 64 16
120 6 56 13 112 15 125 14 71 22 139 30 253 3 39 8 83 11 98 16 76 38 238 37
275 0 12 3 22 8 22 4 0 6 16 5 35 -2 19 0 35 3 35 3 0 6 15 7 33 0 39 10 111
24 192 5 33 13 83 16 110 4 28 13 58 21 67 11 12 13 25 8 45 -12 41 -13 73 -3
73 4 0 8 18 8 39 0 22 6 46 13 53 6 7 13 20 13 28 1 8 9 53 17 100 9 47 18
105 22 130 11 87 27 150 36 150 17 0 9 49 -11 63 -11 8 -17 17 -13 20 3 4 -1
7 -9 7 -9 0 -18 -7 -22 -15z"/>
<path d="M4829 7251 c-119 -38 -192 -115 -249 -262 -40 -104 -44 -127 -80
-409 -17 -135 -42 -324 -55 -420 -42 -302 -96 -732 -100 -804 -2 -38 -8 -72
-14 -75 -5 -3 -14 -51 -21 -106 -11 -97 -39 -299 -154 -1140 -101 -733 -147
-1069 -156 -1140 -24 -178 -7 -327 47 -427 37 -67 130 -153 205 -188 68 -32
223 -71 358 -90 47 -6 93 -16 102 -21 13 -7 18 -2 23 22 4 17 5 32 3 34 -2 2
-51 11 -108 20 -253 39 -345 68 -430 137 -57 45 -135 164 -150 229 -21 85 -6
255 65 779 87 645 104 774 112 843 3 31 10 57 15 57 5 0 6 5 3 11 -8 12 14
179 24 179 7 0 14 45 15 103 1 20 4 37 9 37 4 0 7 13 7 28 0 16 11 112 25 213
14 101 32 236 40 299 8 63 40 295 70 515 30 220 81 602 115 848 68 502 80 552
147 627 98 109 203 128 483 86 96 -15 423 -62 725 -106 769 -112 779 -114 871
-177 22 -14 32 -18 24 -8 -16 20 -87 57 -151 78 -51 18 -146 32 -1452 223
-196 28 -291 30 -368 5z"/>
<path d="M4950 7134 c-81 -35 -138 -107 -154 -195 -8 -44 34 -134 96 -204 30
-34 36 -44 19 -36 -44 24 -33 2 15 -29 58 -36 102 -50 169 -51 40 -1 45 -3 25
-9 -23 -7 -22 -8 11 -9 97 -3 205 73 232 164 36 124 -42 284 -171 353 -52 28
-69 32 -133 32 -43 -1 -89 -7 -109 -16z"/>
<path d="M5536 6745 c-111 -39 -201 -190 -168 -282 l10 -28 1 28 c1 24 6 18
37 -40 19 -37 45 -79 57 -92 l22 -25 -27 17 c-21 13 -26 14 -24 2 7 -48 119
-114 207 -122 105 -10 197 28 262 109 26 32 31 48 35 112 4 67 2 81 -25 138
-41 87 -86 136 -158 170 -68 32 -161 38 -229 13z"/>
<path d="M4886 6535 c-118 -42 -198 -177 -160 -272 25 -65 55 -116 88 -152
l31 -35 -30 19 -30 18 24 -26 c68 -74 226 -95 331 -43 42 21 49 22 30 7 -14
-11 -40 -28 -58 -37 -55 -26 -29 -27 34 -1 109 46 159 118 159 227 0 57 -5 73
-35 124 -45 76 -127 150 -186 170 -58 19 -145 20 -198 1z"/>
<path d="M7171 6132 c-1 -13 -5 -20 -11 -17 -5 3 -10 -3 -10 -15 0 -12 4 -19
9 -16 7 5 8 -33 2 -87 -1 -5 -5 -5 -11 -2 -6 4 -10 -7 -10 -27 0 -25 3 -29 10
-18 5 8 10 10 10 5 0 -6 -5 -16 -11 -22 -7 -7 -12 -60 -13 -141 0 -72 -3 -128
-7 -127 -3 2 -15 -177 -28 -398 -23 -405 -38 -669 -111 -1892 -65 -1076 -78
-1306 -91 -1552 -8 -145 -16 -233 -23 -233 -9 0 -150 21 -366 55 -52 8 -131
19 -175 25 -44 6 -181 26 -305 45 -268 42 -494 77 -685 106 -77 11 -194 29
-260 39 -288 45 -326 50 -352 49 -21 -1 -23 -3 -8 -6 11 -2 27 -7 35 -10 8 -4
22 -8 30 -9 36 -5 203 -42 245 -54 17 -5 53 -11 80 -15 28 -3 67 -10 89 -15
21 -5 44 -6 51 -4 7 3 16 0 20 -5 3 -6 10 -9 15 -6 4 3 25 -2 45 -11 34 -14
38 -14 50 2 12 17 13 16 26 -4 8 -12 21 -22 31 -22 9 0 19 -4 22 -9 3 -5 14
-7 24 -5 9 3 29 -6 44 -21 15 -14 32 -25 38 -25 6 0 8 -5 4 -12 -4 -6 8 -2 27
10 28 17 47 21 93 17 32 -2 64 -9 72 -16 8 -6 17 -9 20 -6 3 3 29 -7 57 -21
29 -14 56 -25 61 -24 17 5 46 -10 46 -24 0 -13 2 -13 16 1 10 9 20 13 23 8 3
-5 21 -10 40 -11 19 -1 39 -6 45 -9 12 -8 37 -12 86 -14 19 0 41 -6 48 -11 6
-6 12 -7 12 -2 0 5 5 2 10 -6 6 -10 10 -11 10 -3 0 19 50 12 83 -10 15 -10 27
-14 27 -8 0 5 13 9 30 9 16 -1 28 -4 26 -7 -2 -3 11 -7 30 -9 39 -2 87 -29 78
-43 -3 -5 0 -9 5 -9 6 0 11 7 11 15 0 8 9 15 20 15 11 0 20 4 20 9 0 4 12 6
28 4 60 -9 135 -8 139 3 2 6 23 11 46 12 73 2 136 13 145 25 10 13 26 67 24
80 -1 4 3 7 10 7 6 0 9 3 5 6 -3 4 1 20 9 36 25 48 26 62 30 288 3 193 9 329
19 445 7 75 24 300 30 385 13 211 18 256 27 267 5 7 7 17 3 23 -10 16 -6 193
10 490 3 58 8 164 11 235 8 190 12 270 18 365 3 47 7 191 11 320 3 129 8 273
10 320 3 47 8 157 10 245 3 88 7 203 9 255 6 125 18 504 21 655 1 66 -1 129
-6 140 -7 19 -8 19 -8 -3z"/>
<path d="M5518 6125 c-114 -64 -8 -243 114 -192 72 30 87 116 29 171 -36 35
-102 44 -143 21z"/>
<path d="M6916 6028 c-3 -35 -11 -135 -16 -223 -6 -88 -14 -216 -20 -285 -5
-69 -12 -179 -16 -245 -3 -66 -11 -126 -17 -134 -7 -8 -7 -12 -2 -9 7 4 8 -30
4 -100 -4 -59 -10 -159 -13 -222 -4 -63 -9 -128 -11 -145 -2 -16 -6 -82 -10
-145 -11 -226 -35 -576 -42 -620 -3 -25 -8 -56 -10 -70 -4 -35 -38 -581 -58
-925 -9 -159 -18 -297 -21 -304 -3 -8 -7 -65 -10 -125 -11 -260 -109 -412
-299 -462 -69 -19 -124 -17 -283 7 -173 25 -174 26 -162 47 15 28 61 143 76
192 25 82 16 118 -40 160 -18 14 -19 14 -8 -7 7 -12 12 -39 12 -60 0 -44 -66
-343 -77 -354 -4 -4 -31 -4 -59 1 -28 5 -73 11 -100 14 -27 3 -76 10 -109 16
-68 11 -111 13 -102 4 3 -3 19 -7 34 -9 15 -1 53 -7 83 -13 30 -6 104 -20 164
-32 60 -12 123 -20 140 -17 17 3 92 -2 166 -10 195 -22 308 -15 390 24 79 38
141 97 175 169 45 96 57 194 70 619 3 94 8 208 10 255 3 47 9 184 15 305 5
121 12 238 15 260 2 22 7 101 10 175 7 154 23 456 30 545 2 33 7 121 10 195 3
74 8 149 10 165 2 17 7 82 10 145 3 63 8 142 10 175 8 100 24 349 35 540 6 99
12 190 15 203 2 12 6 81 9 153 3 71 9 148 12 169 4 25 3 40 -4 40 -5 0 -12
-28 -16 -62z"/>
<path d="M5455 1570 c-3 -5 -3 -10 1 -10 4 0 -1 -9 -10 -19 -10 -11 -15 -25
-11 -31 3 -6 1 -9 -7 -8 -7 2 -13 -4 -13 -12 0 -8 -6 -21 -12 -28 -7 -7 -13
-22 -13 -32 0 -10 -7 -20 -15 -24 -8 -3 -15 -13 -15 -23 -1 -21 -36 -96 -66
-138 -12 -17 -25 -41 -29 -55 -8 -27 -88 -180 -115 -220 -15 -23 -89 -163
-114 -217 -6 -13 -14 -23 -18 -23 -5 0 -8 -6 -8 -14 0 -17 -31 -88 -105 -236
-31 -63 -58 -125 -61 -137 -8 -41 -23 -73 -34 -73 -7 0 -9 -8 -5 -19 3 -11 -1
-25 -10 -34 -8 -9 -15 -24 -15 -34 0 -10 -7 -29 -16 -41 -8 -12 -22 -46 -31
-74 -8 -29 -20 -56 -27 -60 -6 -4 23 -8 65 -8 l76 0 21 68 c12 37 26 83 31
102 5 19 21 66 35 105 14 38 26 76 26 83 0 7 11 38 25 68 14 30 25 59 25 64 0
6 4 18 10 28 17 31 60 141 60 155 0 17 94 202 146 287 34 55 98 186 124 255
26 66 35 91 35 95 0 3 4 10 8 17 10 15 55 154 61 186 2 14 9 35 16 46 11 21
-3 31 -15 11z"/>
<path d="M6350 1135 c-6 -8 -9 -18 -7 -22 3 -5 -1 -35 -8 -66 -11 -48 -11 -56
0 -47 9 8 14 7 18 -3 6 -16 -26 -57 -45 -57 -10 0 -9 -3 2 -10 10 -6 17 -5 23
5 4 8 13 15 19 15 9 0 9 -3 0 -12 -9 -9 -9 -15 1 -27 10 -12 9 -13 -3 -6 -27
17 -40 14 -40 -8 -1 -23 -32 -67 -48 -67 -15 0 -21 -61 -6 -67 7 -2 10 -11 7
-19 -3 -8 -9 -11 -14 -8 -5 3 -9 -2 -9 -10 0 -9 -4 -16 -8 -16 -11 0 -32 -61
-25 -73 3 -6 1 -7 -5 -3 -8 5 -12 -4 -12 -28 0 -36 -4 -39 -45 -38 -17 1 -17
0 -2 -4 9 -3 17 -14 17 -25 0 -16 -5 -18 -27 -14 -23 5 -25 4 -10 -5 21 -13
22 -27 2 -27 -8 0 -12 4 -9 9 3 4 -11 -1 -30 -13 -20 -12 -34 -25 -31 -29 3
-5 -4 -14 -16 -20 -15 -9 -18 -15 -10 -23 15 -15 14 -24 -4 -31 -8 -3 -24 4
-35 17 -18 18 -22 20 -30 7 -15 -23 -11 -37 4 -17 12 15 14 16 20 2 3 -8 1
-15 -5 -15 -6 0 -9 -7 -5 -15 3 -8 2 -14 -2 -14 -20 3 -45 -2 -39 -8 4 -3 -1
-12 -11 -19 -10 -8 -12 -13 -4 -14 17 0 15 -17 -2 -17 -8 0 -15 3 -14 6 3 26
-5 32 -14 11 -6 -14 -11 -28 -10 -32 1 -3 -6 -12 -15 -20 -12 -9 -15 -9 -9 0
4 7 2 12 -6 12 -8 0 -9 3 -3 8 6 4 11 14 13 22 3 11 -2 10 -17 -4 -11 -10 -18
-22 -16 -26 3 -4 -4 -19 -15 -32 -11 -14 -16 -29 -12 -33 4 -5 1 -5 -5 -1 -7
4 -23 0 -35 -8 -12 -9 -33 -16 -46 -16 -30 0 -50 -20 -44 -44 4 -13 1 -17 -7
-12 -16 10 -43 -25 -31 -39 5 -6 5 -17 0 -25 -6 -8 -10 -11 -10 -6 0 4 -11 1
-25 -8 -23 -15 -24 -15 -18 1 4 10 2 14 -4 10 -7 -5 -9 0 -6 12 3 10 0 22 -6
25 -7 5 -9 0 -5 -11 5 -15 4 -15 -4 -3 -6 8 -7 19 -3 25 5 5 3 24 -3 40 -8 22
-18 30 -36 31 -14 1 -34 5 -44 10 -14 5 -17 4 -12 -4 4 -7 14 -12 22 -12 8 0
14 -8 14 -17 0 -13 -3 -14 -12 -5 -7 7 -19 12 -27 12 -11 0 -10 -4 5 -15 18
-13 18 -14 -4 -8 -19 4 -23 11 -19 29 6 32 -7 30 -28 -3 -16 -23 -16 -25 -1
-20 9 4 16 2 16 -3 0 -13 -49 -44 -57 -36 -3 3 -2 6 3 6 5 0 11 10 11 22 1 13
-1 18 -5 13 -10 -14 -32 -17 -32 -4 0 27 -20 -6 -21 -34 l-1 -32 -11 30 c-13
32 -37 45 -37 20 0 -8 7 -15 15 -15 8 0 15 -4 15 -10 0 -5 -7 -7 -15 -4 -12 5
-13 2 -8 -12 6 -17 5 -17 -8 -4 -9 9 -19 22 -23 30 -3 8 -4 4 -2 -9 3 -13 0
-35 -6 -50 l-11 -26 -7 25 c-7 21 -12 17 -9 -6 0 -4 -5 -11 -13 -15 -9 -6 -6
-9 12 -9 20 0 22 -2 10 -10 -10 -6 335 -10 983 -10 l997 0 0 365 c0 362 0 364
-22 385 -29 26 -48 25 -77 -5 -19 -21 -23 -33 -18 -66 5 -39 5 -40 -10 -19
-14 20 -16 20 -27 4 -7 -9 -18 -14 -24 -10 -8 5 -10 1 -5 -10 4 -12 3 -15 -5
-10 -11 7 -17 -6 -12 -29 1 -5 -4 -4 -11 3 -17 16 -46 15 -52 -2 -4 -10 1 -12
16 -9 16 4 14 0 -8 -12 -16 -9 -37 -23 -46 -31 -14 -12 -15 -11 -11 17 3 22 7
27 13 18 5 -8 9 -9 9 -3 0 20 -12 23 -36 7 -13 -8 -21 -20 -17 -27 3 -6 2 -8
-2 -3 -5 4 -18 1 -30 -7 -20 -13 -21 -12 -20 5 2 27 33 62 50 55 9 -3 12 0 8
10 -6 16 -23 19 -23 5 0 -6 -9 -9 -20 -8 -11 1 -20 8 -20 17 0 13 -2 13 -10 0
-6 -9 -5 -19 3 -28 9 -11 7 -13 -8 -11 -11 2 -26 0 -34 -5 -10 -6 -12 -5 -7 2
10 16 -10 49 -34 57 -29 9 -25 20 8 22 23 1 24 1 7 -7 -19 -8 -19 -9 1 -9 13
-1 24 7 27 18 6 26 -1 33 -23 21 -25 -13 -47 12 -25 30 13 11 13 14 0 27 -16
16 -10 38 7 27 7 -4 8 -2 4 5 -4 6 0 14 9 17 14 6 14 8 -1 19 -9 6 -14 17 -10
23 3 6 -2 16 -13 21 -17 9 -19 7 -19 -31 -1 -22 -6 -46 -11 -51 -6 -6 -11 -28
-11 -48 0 -21 -4 -41 -10 -44 -5 -3 -10 -12 -10 -20 0 -8 -5 -26 -12 -42 -11
-26 -14 -40 -17 -78 0 -8 -5 -15 -10 -15 -10 0 -27 39 -23 53 4 16 -9 6 -16
-13 -4 -11 -7 28 -6 87 1 59 -1 99 -6 88 -5 -15 -9 -6 -15 35 -9 67 -13 74
-31 59 -8 -6 -17 -9 -20 -6 -3 3 3 10 14 16 13 7 18 17 15 30 -6 25 -30 34
-37 15 -3 -8 -11 -14 -18 -14 -9 0 -8 3 2 10 12 8 11 10 -7 10 -15 0 -23 6
-23 18 0 13 2 14 9 3 5 -7 14 -12 21 -9 9 3 9 8 -3 20 -15 15 -15 17 -1 22 13
5 14 9 4 22 -9 10 -16 12 -24 4 -21 -21 -26 -9 -11 26 17 42 18 47 6 40 -5 -3
-14 1 -20 8 -8 9 -8 17 -2 20 5 3 12 0 15 -6 2 -7 4 -4 3 7 -3 28 -18 25 -44
-6 -27 -31 -29 -44 -8 -35 8 3 15 1 15 -4 0 -6 -7 -10 -15 -10 -9 0 -13 -7 -9
-17 2 -10 -1 -8 -7 4 -6 12 -8 30 -4 40 6 16 14 93 9 93 -1 0 -7 -7 -14 -15z"/>
<path d="M4015 510 c5 -15 3 -18 -8 -14 -12 4 -14 -10 -13 -76 1 -44 0 -83 -3
-86 -11 -11 -11 -127 0 -140 9 -11 9 -14 0 -14 -8 0 -11 -14 -9 -38 2 -24 -2
-42 -12 -50 -8 -8 -10 -11 -3 -8 7 4 11 -1 10 -13 0 -11 -4 -18 -8 -15 -4 2
-7 -9 -7 -26 1 -30 2 -30 50 -29 27 1 45 5 40 8 -6 3 -9 52 -9 107 1 72 -3
107 -12 118 -10 12 -11 19 -2 30 7 8 11 55 10 122 -1 117 -5 144 -20 144 -6 0
-8 -9 -4 -20z"/>
</g>
</svg>
