<?xml version="1.0" standalone="no"?>
<!DOCTYPE svg PUBLIC "-//W3C//DTD SVG 20010904//EN"
 "http://www.w3.org/TR/2001/REC-SVG-20010904/DTD/svg10.dtd">
<svg version="1.0" xmlns="http://www.w3.org/2000/svg"
 width="1024.000000pt" height="768.000000pt" viewBox="0 0 1024.000000 768.000000"
 preserveAspectRatio="xMidYMid meet">
<metadata>
Created by potrace 1.16, written by Peter Selinger 2001-2019
</metadata>
<g transform="translate(0.000000,768.000000) scale(0.100000,-0.100000)"
fill="#000000" stroke="none">
<path d="M1360 7667 c0 -10 44 -139 65 -189 8 -19 35 -25 35 -8 0 6 5 10 10
10 7 0 7 -6 0 -20 -8 -14 -8 -20 0 -20 6 0 8 -6 4 -12 -4 -7 1 -6 10 3 16 15
16 20 3 60 -8 24 -22 77 -32 117 l-17 72 -39 0 c-25 0 -39 -5 -39 -13z"/>
<path d="M3170 7674 c0 -6 43 -87 90 -169 12 -22 31 -47 41 -56 10 -9 16 -19
12 -23 -3 -3 -1 -6 6 -6 7 0 9 -6 6 -12 -4 -7 0 -5 9 6 8 10 19 15 25 12 18
-11 3 34 -28 88 -17 28 -43 77 -58 109 -26 55 -29 57 -65 57 -21 0 -38 -3 -38
-6z"/>
<path d="M4860 7676 c0 -3 10 -29 23 -58 20 -45 27 -65 42 -120 2 -5 4 -10 5
-13 1 -3 3 -8 4 -12 4 -19 28 -54 33 -49 4 3 13 0 21 -7 13 -10 14 -5 8 41 -4
28 -19 89 -34 135 -28 82 -28 82 -65 85 -20 2 -37 1 -37 -2z"/>
<path d="M5860 7634 c-11 -26 -20 -48 -20 -51 0 -2 -10 -25 -22 -51 -24 -53
-34 -107 -17 -96 6 3 8 12 5 19 -2 7 4 15 15 18 16 4 17 2 8 -14 -5 -10 -6
-19 -2 -19 4 0 0 -5 -9 -11 -10 -5 -18 -15 -18 -20 0 -6 4 -8 9 -5 5 4 11 1
13 -5 3 -9 84 165 125 269 4 8 -6 12 -30 12 -33 0 -38 -4 -57 -46z"/>
<path d="M6675 7628 c-17 -59 -19 -84 -6 -92 25 -16 371 -131 470 -157 95 -24
120 -28 147 -19 62 21 131 141 142 248 l8 72 -373 0 -372 0 -16 -52z"/>
<path d="M9420 6906 c0 -15 7 -29 15 -32 10 -4 12 -12 7 -22 -7 -15 -8 -37 -2
-44 6 -8 4 -56 -2 -52 -4 3 -8 0 -8 -5 0 -6 3 -11 8 -11 4 0 7 -15 8 -32 0
-18 4 -42 9 -52 6 -14 5 -17 -4 -11 -11 6 -11 3 0 -16 15 -28 15 -29 -2 -40
-10 -6 -10 -11 2 -25 11 -13 11 -18 1 -21 -6 -3 -9 -9 -6 -15 4 -5 7 -50 8
-99 0 -49 4 -89 8 -89 5 0 8 -5 8 -11 0 -5 -5 -7 -12 -3 -7 5 -8 3 -3 -5 7
-12 10 -55 20 -281 3 -58 8 -159 11 -225 3 -66 6 -159 7 -207 0 -49 3 -88 6
-88 3 0 7 -48 7 -108 1 -98 9 -313 19 -487 2 -38 6 -144 9 -235 3 -91 9 -212
13 -270 4 -58 6 -135 5 -172 -2 -38 1 -68 5 -68 4 0 8 -48 9 -107 2 -259 5
-342 13 -347 5 -4 7 -44 4 -91 -4 -61 -2 -85 6 -85 7 0 9 5 5 12 -4 6 -3 8 4
4 7 -4 6 -16 -6 -36 -14 -25 -15 -31 -3 -42 11 -11 13 -11 6 1 -5 9 -4 12 2 8
16 -10 23 -56 8 -50 -9 3 -13 -11 -13 -47 0 -47 2 -50 22 -45 21 6 21 6 2 -9
-12 -10 -15 -16 -7 -16 7 0 11 -6 8 -12 -2 -7 3 -18 11 -24 12 -9 12 -13 2
-19 -9 -6 -11 -4 -5 6 5 8 4 11 0 6 -13 -11 -13 -48 -1 -53 7 -3 11 -26 11
-54 -1 -37 3 -50 13 -50 12 0 12 -3 1 -16 -10 -13 -10 -17 2 -25 8 -5 11 -9 6
-9 -4 0 0 -16 8 -36 11 -28 12 -40 4 -50 -9 -11 -8 -14 1 -14 8 0 11 -3 8 -6
-3 -3 5 -16 18 -29 24 -24 32 -55 15 -55 -6 0 -13 5 -17 12 -5 7 -3 8 6 3 8
-5 11 -3 8 5 -7 23 -27 23 -23 1 2 -12 6 -25 9 -30 4 -5 0 -12 -6 -15 -7 -4
-4 -5 8 -2 18 3 21 -1 18 -27 -2 -17 -1 -27 2 -24 9 9 44 -11 44 -26 0 -8 -4
-7 -11 3 -9 12 -10 12 -5 -3 3 -10 6 -20 6 -23 0 -2 7 -1 15 3 12 4 15 0 11
-21 -3 -16 0 -25 7 -23 7 1 11 -4 9 -11 -1 -9 2 -11 10 -6 14 9 51 14 43 6 -3
-3 3 -11 12 -17 15 -11 14 -13 -10 -12 -18 0 -27 5 -27 15 0 8 -3 12 -7 9 -3
-4 -1 -18 6 -31 10 -18 20 -23 47 -21 29 1 33 -1 30 -19 -2 -12 4 -28 12 -36
9 -8 17 -13 17 -11 0 2 10 1 23 -3 14 -5 29 -3 38 5 12 10 13 9 8 -6 -5 -13
-4 -16 4 -11 7 4 17 4 23 0 6 -3 58 -8 115 -10 l104 -3 0 2179 0 2180 -127 0
c-71 0 -255 3 -410 7 l-283 6 0 -27z"/>
<path d="M1885 6390 c-3 -5 -26 -6 -51 -3 -39 5 -48 2 -61 -17 -15 -21 -17
-21 -28 -6 -11 14 -12 13 -12 -9 0 -14 2 -25 6 -25 3 0 7 -11 7 -25 1 -14 14
-37 28 -50 15 -14 22 -25 15 -25 -8 0 -6 -7 4 -18 10 -10 14 -22 10 -27 -5 -4
2 -5 15 -2 13 3 22 1 22 -6 0 -8 4 -7 9 2 6 9 11 10 15 2 4 -6 19 -11 34 -11
16 0 22 -3 15 -8 -9 -6 -14 -122 -18 -452 -3 -245 -8 -560 -11 -700 -3 -140
-5 -265 -5 -277 1 -13 1 -29 0 -35 0 -7 -2 -107 -4 -223 -2 -115 -4 -212 -5
-215 -1 -3 -1 -9 0 -15 4 -19 2 -80 -3 -95 -3 -8 -5 -133 -4 -277 1 -145 0
-263 -3 -263 -3 0 -6 -87 -8 -192 -1 -106 -6 -362 -10 -568 -9 -488 -9 -1024
0 -1075 17 -98 43 -138 111 -170 36 -17 72 -18 605 -11 311 4 568 9 571 10 4
2 182 7 396 11 215 4 394 9 399 12 5 4 96 5 203 5 123 -1 193 2 193 8 0 6 77
8 222 4 154 -3 223 -2 228 6 4 6 48 12 101 14 52 2 96 5 99 6 3 1 10 1 15 0
40 -8 75 -8 80 0 4 6 10 8 14 5 5 -2 23 0 40 5 28 8 31 7 21 -5 -7 -8 -15 -13
-19 -11 -3 2 -15 0 -26 -5 -12 -4 26 -7 90 -6 107 1 108 1 35 7 -41 4 -67 8
-57 9 21 4 36 8 42 11 12 6 52 5 77 -1 15 -4 28 -3 30 2 2 6 17 10 33 9 17 0
65 -1 107 -1 54 -1 76 -5 72 -13 -3 -6 0 -4 8 4 15 17 82 24 71 7 -3 -6 -1 -7
5 -3 16 10 115 18 215 18 49 0 85 4 81 9 -3 5 2 9 10 9 9 0 16 -4 16 -8 0 -4
36 -8 80 -7 44 0 80 3 80 7 0 4 10 4 23 0 20 -7 42 -8 60 -2 19 6 33 6 50 -3
12 -5 23 -4 32 3 10 8 14 8 18 -2 4 -9 6 -9 6 2 1 10 13 16 39 17 l37 2 -30
-14 -30 -14 30 6 c17 4 38 6 48 5 9 0 17 5 17 11 0 7 4 6 10 -3 6 -9 10 -10
10 -3 0 12 54 12 66 0 13 -12 36 -7 50 11 13 16 14 16 7 -3 -6 -18 -5 -18 10
-6 9 7 17 10 17 5 0 -5 5 -2 10 6 8 12 10 12 10 1 0 -8 7 -11 20 -8 11 3 20 0
20 -6 0 -8 3 -7 9 1 11 17 12 18 37 4 16 -8 25 -8 41 3 12 9 24 10 34 4 20
-13 31 -11 24 4 -4 6 1 3 9 -7 16 -20 16 -20 17 0 0 10 3 14 5 7 5 -10 75 -10
93 1 4 3 13 1 21 -4 9 -5 20 -4 29 3 12 10 14 9 8 -5 -5 -13 -1 -15 21 -11 15
3 54 5 86 5 39 0 54 3 45 9 -9 5 -10 9 -2 9 6 0 15 -5 18 -10 9 -14 37 -9 53
10 8 8 11 9 7 2 -9 -17 19 -26 43 -13 13 7 22 7 30 -1 9 -9 12 -9 12 2 0 11 3
11 12 2 14 -14 32 -16 23 -2 -3 6 1 7 9 4 10 -4 16 -1 17 7 0 8 4 5 9 -6 6
-13 9 -15 9 -5 1 12 3 12 9 2 7 -10 14 -10 37 2 18 9 33 12 40 6 6 -5 23 -7
38 -6 15 2 27 0 27 -4 0 -11 59 -10 66 1 3 5 11 6 17 2 16 -10 47 -11 47 -2 0
4 15 5 34 2 19 -2 44 1 55 7 17 9 22 8 27 -5 3 -8 10 -12 15 -9 6 3 38 7 72 8
35 1 68 6 74 9 7 4 14 3 18 -2 3 -5 14 -8 25 -5 11 2 30 6 41 9 12 2 24 7 27
10 3 3 14 -2 24 -12 10 -9 18 -11 18 -5 0 11 39 10 58 -2 7 -4 12 -1 12 8 0 8
5 18 12 22 7 5 9 2 5 -9 -4 -11 -2 -14 9 -10 7 3 14 9 14 13 0 13 39 19 44 6
2 -6 5 0 6 14 1 23 2 23 10 5 5 -11 9 -14 9 -7 1 6 7 12 15 12 8 0 21 9 29 20
l14 21 6 -22 c8 -29 23 -17 22 18 0 17 -6 27 -14 25 -7 -1 -10 2 -6 8 5 8 11
8 20 0 9 -8 14 -7 18 4 4 9 2 18 -3 21 -6 4 -10 11 -10 16 0 6 5 7 12 3 8 -5
9 -2 5 9 -3 10 -2 17 4 17 6 0 8 4 5 9 -4 5 0 11 6 14 10 3 10 7 1 19 -7 8
-10 18 -6 21 12 13 -13 7 -27 -6 -12 -10 -12 -9 -2 4 19 26 23 57 7 55 -8 -1
-17 -5 -21 -9 -10 -9 -64 50 -60 65 1 7 1 9 -2 5 -2 -4 -10 -3 -18 4 -8 6 -32
12 -54 12 -22 0 -37 4 -34 8 3 5 -4 9 -15 9 -12 0 -21 -4 -21 -8 0 -4 -11 -8
-24 -8 -14 0 -22 4 -20 8 7 11 -4 10 -28 -3 -15 -8 -19 -8 -14 0 7 10 0 13
-21 10 -5 -1 -7 -6 -5 -12 2 -7 -1 -7 -10 0 -7 6 -29 13 -49 16 -20 2 -43 8
-49 12 -8 5 -11 4 -7 -2 4 -6 -6 -16 -23 -22 -23 -7 -29 -7 -24 1 5 8 1 9 -10
5 -10 -4 -27 -2 -38 4 -18 9 -20 9 -15 -4 7 -18 -17 -16 -52 3 -17 9 -20 8
-14 -6 4 -10 2 -15 -3 -11 -16 9 -116 19 -111 10 8 -13 -55 -13 -72 0 -12 9
-13 9 -8 0 6 -9 -2 -12 -25 -12 -18 1 -37 0 -43 -1 -5 -1 -12 -1 -15 0 -21 8
-40 6 -40 -3 0 -8 -3 -7 -9 2 -6 9 -11 10 -15 2 -4 -6 -15 -7 -29 -2 -12 5
-29 7 -37 5 -8 -1 -25 -5 -37 -8 -13 -3 -23 0 -23 5 0 6 -7 6 -17 1 -20 -11
-83 -10 -100 1 -6 4 -14 4 -17 -1 -3 -5 -21 -8 -41 -7 -19 0 -35 -3 -35 -8 0
-4 -4 -5 -10 -2 -5 3 -21 -2 -35 -11 -22 -14 -25 -14 -25 -1 0 8 -7 18 -16 21
-12 4 -15 2 -10 -9 4 -12 2 -13 -12 -6 -11 6 -24 6 -33 0 -7 -5 -21 -8 -29 -8
-10 0 -8 3 5 9 19 8 19 9 -2 9 -12 1 -27 -7 -32 -16 -10 -17 -10 -17 -11 2 0
14 -3 16 -11 8 -7 -7 -20 -8 -33 -4 -25 9 -37 8 -53 -2 -6 -4 -14 -3 -18 3 -9
14 -35 12 -30 -3 3 -7 -5 -13 -21 -14 -21 -1 -24 1 -13 9 10 7 8 9 -8 5 -13
-3 -25 -1 -28 3 -3 5 -14 8 -25 7 -10 -1 -17 -4 -14 -8 2 -4 -3 -10 -12 -13
-22 -8 -26 -8 -19 4 3 5 -1 10 -9 10 -9 0 -16 -4 -16 -10 0 -5 -5 -10 -11 -10
-5 0 -8 4 -5 9 3 5 -3 11 -14 14 -11 3 -18 2 -15 -2 2 -4 -12 -7 -33 -5 -20 1
-43 -3 -51 -10 -12 -8 -13 -8 -7 1 10 18 1 16 -18 -3 -9 -8 -16 -11 -16 -5 0
6 -7 8 -15 5 -8 -4 -15 -1 -15 5 0 9 -5 9 -21 0 -12 -6 -19 -7 -15 -1 3 5 -11
4 -32 -3 -26 -9 -39 -10 -44 -2 -4 7 -12 5 -23 -6 -19 -20 -26 -21 -22 -5 1 6
-6 14 -17 16 -11 2 -16 0 -12 -7 4 -6 0 -11 -9 -11 -10 0 -13 5 -9 13 5 7 0 6
-11 -3 -10 -8 -16 -10 -12 -3 12 19 -10 25 -27 7 -9 -8 -16 -11 -16 -6 0 5
-12 7 -26 4 -18 -3 -25 -1 -20 6 3 6 2 13 -4 17 -5 3 -10 1 -10 -5 0 -6 -4 -8
-10 -5 -5 3 -8 0 -5 -7 4 -9 -5 -13 -30 -13 -19 0 -35 3 -35 8 0 4 -8 7 -17 7
-15 0 -16 -2 -3 -10 9 -6 10 -10 3 -10 -7 0 -16 7 -21 16 -8 15 -10 15 -15 -1
-5 -10 -11 -13 -19 -8 -7 4 -35 9 -63 9 -27 1 -74 3 -103 6 -38 2 -51 0 -48
-9 3 -7 -1 -10 -10 -6 -7 3 -14 9 -14 14 0 5 -11 7 -24 3 -13 -3 -27 -1 -31 5
-4 8 -12 8 -26 1 -10 -6 -19 -8 -19 -5 0 3 -8 1 -18 -4 -14 -7 -25 -6 -40 5
-12 8 -22 11 -22 7 0 -9 -92 -9 -107 0 -4 2 -38 5 -75 5 -37 0 -72 3 -77 6 -5
4 -12 2 -16 -4 -4 -6 -11 -8 -16 -5 -5 4 -9 1 -9 -5 0 -7 -6 -8 -19 0 -27 14
-34 13 -28 -4 7 -17 -15 -15 -36 2 -8 7 -27 10 -43 7 -48 -9 -113 -12 -109 -5
2 4 -9 7 -26 8 -19 0 -27 -3 -23 -11 3 -7 -2 -3 -10 7 -9 11 -16 15 -16 9 0
-7 -12 -9 -32 -5 -18 3 -47 5 -65 5 -18 0 -30 3 -28 6 2 4 -4 7 -13 8 -9 1
-26 3 -37 6 -11 2 -27 1 -36 -4 -11 -6 -21 -4 -29 6 -10 12 -16 13 -26 4 -8
-6 -14 -8 -14 -3 0 5 -5 2 -10 -6 -6 -10 -10 -11 -10 -3 0 9 -7 10 -25 3 -21
-8 -25 -7 -25 8 -1 16 -1 16 -11 -1 -6 -10 -15 -14 -22 -10 -19 12 -36 12 -43
1 -4 -6 -10 -5 -15 3 -7 11 -9 11 -9 1 0 -7 -5 -10 -10 -7 -6 4 -7 12 -3 18 5
9 3 9 -8 1 -16 -13 -68 -12 -88 1 -10 5 -16 4 -19 -3 -2 -6 -11 -3 -23 9 -10
10 -27 19 -36 19 -34 1 -95 87 -89 126 2 10 0 24 -4 29 -5 6 -1 26 7 45 9 19
15 38 15 42 -1 5 5 8 13 8 13 0 14 7 8 38 -4 20 -8 82 -8 138 0 96 2 104 37
176 24 48 55 91 88 122 65 60 166 109 231 110 27 1 49 4 49 9 0 4 73 7 162 7
179 0 209 -7 49 -12 -64 -2 -106 -8 -113 -15 -5 -6 -16 -9 -24 -6 -8 3 -14 0
-14 -7 0 -7 -6 -10 -14 -7 -8 3 -16 -2 -19 -15 -3 -11 -10 -17 -16 -14 -5 4
-12 2 -16 -3 -3 -6 -12 -8 -20 -4 -8 3 -15 0 -15 -6 0 -6 -6 -11 -12 -11 -7 0
-24 -12 -37 -25 -13 -14 -29 -25 -37 -25 -8 0 -14 -7 -14 -15 0 -8 -4 -15 -8
-15 -12 0 -97 -87 -98 -100 -1 -5 -2 -14 -3 -20 0 -5 -8 -10 -16 -10 -8 0 -15
-8 -15 -17 0 -9 -3 -14 -6 -10 -8 7 -28 -12 -37 -35 -3 -10 -11 -18 -17 -18
-6 0 -8 -4 -5 -10 3 -5 1 -10 -4 -10 -6 0 -11 -7 -11 -16 0 -8 -4 -13 -9 -10
-17 11 -29 -40 -21 -90 19 -118 99 -221 215 -276 l70 -33 375 -1 c206 -1 645
3 975 7 330 4 1037 13 1570 19 534 6 988 13 1010 16 40 4 41 4 52 -36 5 -22 7
-43 2 -45 -4 -3 -4 -19 1 -35 5 -19 5 -28 -1 -25 -11 8 -12 -6 0 -24 7 -11 13
-11 32 3 13 9 18 16 11 16 -6 0 -12 12 -12 26 0 22 2 24 15 14 12 -10 13 -7 5
22 -12 40 -12 47 -2 30 5 -7 8 18 7 55 0 38 3 76 7 85 5 10 3 18 -3 20 -8 3
-8 11 2 26 9 15 10 25 4 30 -12 8 -14 72 -2 72 4 0 5 5 1 12 -4 6 -8 61 -10
122 -1 61 -3 116 -4 121 -1 6 -1 12 0 15 7 18 7 40 0 40 -11 0 -7 33 5 42 6 5
5 8 -2 8 -7 0 -13 5 -13 11 0 5 5 7 11 3 8 -4 8 -1 1 12 -13 26 -8 89 9 111
13 16 12 17 -3 4 -20 -15 -22 -9 -9 36 8 27 7 31 -7 26 -11 -5 -13 -3 -7 7 10
17 13 90 3 90 -4 0 -4 10 1 23 5 12 5 32 0 45 -5 12 -6 22 -2 22 3 0 0 7 -7
15 -10 12 -10 15 3 15 14 0 14 3 2 28 -8 15 -11 28 -5 30 5 2 6 10 3 17 -8 23
-9 105 0 105 4 0 1 13 -8 30 -14 27 -14 30 3 39 10 6 12 11 4 11 -7 0 -11 4
-8 9 3 5 2 30 -3 55 -8 42 -7 45 8 34 14 -12 14 -10 -1 13 -15 24 -15 27 0 44
9 10 11 15 5 11 -15 -9 -16 -8 -18 72 0 37 3 62 9 62 7 0 8 3 1 8 -6 4 -11 36
-11 72 -1 36 -4 79 -7 97 -2 18 -2 35 1 38 8 7 9 84 2 80 -3 -2 -6 27 -8 63
-3 61 -2 65 14 51 16 -13 16 -12 4 11 -8 14 -13 28 -12 32 1 4 -2 27 -7 53 -5
25 -5 48 0 51 4 2 4 15 -1 28 -5 13 -7 26 -5 28 2 2 6 16 9 31 2 14 8 32 12
38 4 7 3 9 -3 6 -6 -4 -13 2 -16 13 -3 11 -1 18 4 14 5 -3 6 2 3 10 -3 9 -9
14 -13 12 -3 -2 -6 9 -6 25 0 17 5 29 13 29 9 0 11 7 6 23 -5 12 -8 41 -7 64
1 24 -3 41 -7 38 -4 -3 -7 6 -6 20 0 14 6 23 12 21 16 -6 11 37 -5 50 -12 9
-11 13 5 22 18 10 18 11 1 18 -17 6 -18 24 -6 81 1 4 -1 16 -6 26 -4 10 -2 24
6 34 8 9 9 14 3 10 -8 -4 -11 7 -12 36 0 96 -10 422 -12 427 -1 3 -1 10 0 15
3 13 0 125 -4 150 -2 11 1 28 6 38 5 9 5 17 0 17 -9 0 -9 0 -14 160 -2 69 -8
132 -13 139 -5 10 -4 12 3 7 7 -4 12 -2 12 3 0 6 -5 11 -11 11 -5 0 -7 5 -4
10 4 6 1 18 -7 27 -9 12 -9 15 0 9 7 -4 12 -2 12 7 0 8 -6 14 -12 14 -7 -1
-74 2 -148 6 -198 10 -598 16 -1375 22 -762 6 -908 10 -914 26 -2 6 -14 22
-28 37 -20 22 -22 23 -14 5 6 -12 11 -29 11 -39 0 -15 -42 -16 -632 -9 -347 4
-639 8 -647 10 -12 2 -15 13 -14 41 l2 39 -24 -28 c-14 -15 -25 -33 -25 -40 0
-12 -242 -10 -970 6 -107 3 -303 5 -435 5 -228 1 -241 2 -252 21 -11 17 -10
22 5 30 9 6 12 11 5 11 -6 0 -15 -4 -18 -10 -8 -14 -26 -13 -22 1 1 6 -6 13
-15 14 -14 3 -16 0 -8 -15 5 -9 7 -20 4 -23 -3 -3 3 -3 14 0 20 5 40 -13 27
-25 -3 -3 -10 0 -14 7 -5 7 -10 9 -12 5 -2 -5 -22 -6 -44 -3 -35 5 -36 6 -10
8 17 2 24 5 18 8 -7 2 -13 9 -13 14 0 6 6 7 13 3 8 -6 8 -3 -1 9 -12 14 -11
20 5 41 22 31 44 42 37 18 -5 -13 -2 -13 11 3 16 19 17 19 11 -15 l-7 -35 15
33 c8 17 19 32 25 32 14 0 23 -18 12 -24 -5 -4 -11 -3 -14 1 -2 5 -3 3 -1 -3
1 -6 -3 -18 -9 -25 -7 -7 -3 -6 9 4 11 9 24 14 29 10 4 -5 5 -2 1 5 -4 7 -2
12 5 12 8 0 9 3 0 13 -9 11 -5 14 19 15 17 0 28 -4 24 -9 -3 -5 -10 -7 -15 -4
-5 3 -6 -1 -2 -10 4 -12 8 -13 13 -5 4 7 16 9 29 5 13 -4 21 -2 21 5 0 7 7 10
15 7 8 -4 17 -2 20 3 10 16 28 11 21 -5 -8 -21 0 -19 25 8 12 12 18 15 14 7
-6 -12 -5 -13 5 -3 11 10 16 9 27 -5 7 -9 13 -12 12 -7 -3 21 2 24 27 15 18
-7 23 -7 18 1 -4 8 1 9 17 4 35 -11 120 -15 114 -5 -3 5 8 5 25 0 16 -5 30 -5
30 -1 0 10 61 8 79 -3 9 -6 12 -5 7 2 -4 7 4 10 22 10 16 -1 34 2 40 6 6 3 13
3 16 -2 6 -9 47 -8 64 2 7 4 12 2 12 -4 0 -6 5 -8 10 -5 6 4 8 11 4 16 -3 5 0
8 7 7 7 -2 15 6 17 17 3 16 1 18 -9 8 -18 -18 -48 -16 -56 4 -6 15 -7 15 -13
-1 -6 -17 -8 -17 -22 -3 -15 15 -41 17 -54 4 -4 -4 -13 -2 -20 4 -9 7 -18 6
-32 -2 -14 -9 -24 -10 -34 -2 -7 5 -39 9 -70 9 -31 -1 -55 1 -53 5 5 7 -56 2
-63 -6 -3 -2 -13 0 -23 5 -12 7 -20 7 -24 0 -3 -5 -11 -10 -16 -10 -6 0 -8 3
-6 8 3 4 -8 7 -24 7 -16 0 -29 -3 -29 -7 0 -8 -42 -4 -58 6 -7 4 -12 2 -12 -5
0 -9 -3 -9 -14 0 -7 6 -20 9 -29 5 -8 -3 -18 -1 -21 4 -3 5 -18 8 -33 5 -16
-2 -54 -5 -85 -8 -32 -2 -63 -7 -70 -11 -10 -6 -10 -5 -1 7 9 12 4 14 -33 14
-24 0 -44 -3 -44 -8 0 -4 -8 -4 -17 1 -10 5 -24 7 -30 5 -7 -3 -13 1 -13 9 0
10 -3 9 -10 -2 -5 -8 -10 -10 -10 -3 0 13 -37 6 -59 -11 -11 -8 -13 -8 -8 1
11 18 -12 27 -30 11 -20 -16 -16 -16 -38 2 -11 8 -16 10 -12 4 4 -8 -2 -11
-17 -10 -13 0 -22 4 -20 7 2 4 -10 6 -26 5 -17 0 -30 -5 -30 -10 0 -4 -6 -3
-14 3 -8 6 -18 11 -22 10 -5 -1 -13 0 -19 1 -25 5 -157 0 -167 -6 -7 -4 -8 -2
-4 4 4 7 1 12 -9 12 -10 0 -13 -5 -9 -12 5 -7 3 -8 -6 -3 -19 12 -82 14 -102
3 -10 -5 -19 -4 -23 2 -3 5 -11 10 -16 10 -6 0 -8 -4 -5 -9 5 -8 -14 -8 -66 2
-15 3 -30 2 -33 -3z m4030 -929 c156 -19 264 -92 330 -223 19 -39 35 -80 34
-92 0 -15 -4 -11 -13 14 -7 19 -15 30 -17 23 -4 -12 -111 32 -117 49 -2 4 -9
8 -16 8 -8 0 -24 8 -37 19 -13 10 -42 24 -64 32 -22 7 -47 19 -56 26 -8 7 -21
13 -27 13 -7 0 -12 5 -12 11 0 7 -10 9 -25 5 -17 -4 -25 -2 -25 6 0 10 -2 10
-9 0 -7 -11 -9 -10 -14 3 -5 12 -11 14 -26 5 -13 -7 -22 -7 -26 0 -4 6 -11 7
-17 4 -7 -4 -8 -2 -4 4 7 11 -6 17 -28 13 -4 -1 -14 4 -22 10 -11 9 -14 9 -14
0 0 -7 -5 -9 -11 -6 -12 8 -49 15 -99 20 -79 7 -132 15 -142 21 -6 4 -14 1
-18 -7 -6 -9 -12 -10 -22 -2 -16 13 -93 25 -180 27 -37 1 -70 5 -74 8 -4 4
-16 3 -27 -3 -14 -8 -18 -8 -13 0 5 8 -6 10 -34 8 -23 -2 -43 0 -46 5 -7 11
780 10 871 -1z m389 -451 c39 -46 56 -147 44 -251 -7 -54 -26 -94 -67 -138
-17 -18 -31 -37 -31 -41 0 -5 -9 -12 -20 -15 -11 -4 -18 -10 -16 -14 3 -4 -5
-7 -17 -6 -12 1 -28 -4 -35 -12 -7 -7 -31 -12 -53 -11 -23 1 -44 -3 -47 -8 -7
-10 -262 -13 -262 -4 0 3 -27 6 -61 5 -33 0 -63 3 -65 7 -2 3 -27 6 -54 6 -28
1 -56 4 -62 8 -17 11 -48 12 -48 3 0 -10 -40 1 -66 18 -11 7 -34 15 -50 17
-16 3 -47 8 -69 12 -22 3 -48 6 -58 6 -10 -1 -15 4 -11 10 5 7 2 9 -8 5 -9 -3
-37 1 -64 9 -57 17 -67 17 -58 2 4 -7 3 -8 -4 -4 -6 4 -8 14 -5 23 5 12 2 15
-8 11 -42 -16 -58 -18 -64 -8 -5 8 -12 7 -23 -2 -13 -11 -14 -11 -7 2 7 12 6
13 -6 4 -10 -8 -21 -7 -38 2 -21 11 64 13 490 16 505 3 515 4 569 26 154 61
248 198 252 365 1 60 2 63 5 22 3 -27 10 -57 17 -65z m-1664 -361 c0 -4 10 -5
23 -3 20 4 20 4 2 -4 -11 -5 -26 -7 -32 -5 -7 3 -13 -1 -13 -8 0 -9 -3 -10
-11 -2 -8 8 -16 6 -29 -7 -13 -13 -28 -17 -45 -14 -15 3 -24 1 -21 -5 3 -5 -2
-15 -11 -22 -12 -10 -14 -10 -9 -1 4 6 2 12 -3 12 -6 0 -11 -4 -11 -10 0 -5
-7 -10 -16 -10 -8 0 -12 -5 -9 -10 4 -6 3 -10 -2 -9 -22 4 -43 -2 -38 -11 3
-5 -1 -10 -10 -10 -8 0 -18 -7 -21 -15 -3 -8 -15 -17 -26 -21 -11 -3 -17 -8
-14 -11 2 -3 -14 -23 -36 -44 -23 -21 -37 -39 -32 -39 5 0 1 -5 -8 -11 -10 -5
-18 -14 -18 -19 0 -6 -8 -18 -17 -28 -51 -53 -93 -102 -88 -102 4 0 -1 -7 -9
-16 -9 -8 -14 -19 -11 -24 3 -5 1 -11 -4 -14 -15 -9 -2 -66 27 -124 30 -62
110 -140 174 -170 92 -43 110 -44 1243 -39 968 3 1087 5 1150 20 174 42 290
143 344 300 25 71 42 222 41 347 -2 120 -2 113 14 98 9 -9 10 -15 3 -20 -7 -4
-7 -11 -1 -20 6 -7 11 -29 13 -48 1 -19 9 -62 18 -95 28 -108 35 -162 37 -277
0 -48 5 -84 10 -80 5 3 6 0 2 -7 -8 -13 -17 -55 -17 -83 0 -10 -4 -18 -8 -18
-5 0 -8 -12 -8 -27 0 -15 -6 -29 -12 -31 -6 -2 -9 -7 -6 -12 3 -4 -2 -13 -10
-20 -8 -7 -15 -19 -15 -26 0 -8 -4 -14 -9 -14 -5 0 -11 -10 -14 -22 -4 -12 -9
-19 -12 -16 -4 3 -20 -8 -36 -24 -16 -17 -29 -28 -29 -24 0 4 -6 1 -14 -7 -17
-17 -132 -48 -196 -54 -91 -7 -406 -9 -448 -3 -23 4 -44 5 -46 1 -3 -4 -28 -5
-58 -3 -77 4 -78 4 -78 14 0 5 -5 6 -12 2 -18 -11 -68 -13 -62 -2 4 6 -3 5
-15 -1 -12 -7 -26 -9 -32 -6 -5 4 -51 9 -102 12 -51 3 -117 8 -147 10 -30 2
-100 6 -155 10 -55 3 -110 6 -122 7 -13 0 -23 4 -23 7 0 3 -11 4 -25 1 -14 -2
-33 2 -42 9 -15 12 -16 12 -8 -1 7 -12 6 -13 -6 -3 -8 6 -24 10 -34 9 -11 -2
-28 1 -38 6 -12 6 -29 6 -46 0 -20 -7 -34 -6 -52 4 -31 17 -63 18 -53 2 5 -9
3 -9 -9 1 -9 7 -26 11 -37 8 -11 -3 -18 -1 -15 3 7 12 -34 17 -72 9 -18 -4
-33 -3 -33 1 0 4 -12 5 -26 2 -16 -3 -30 1 -35 9 -5 8 -9 10 -9 4 0 -10 -131
-11 -157 -1 -7 3 -24 1 -38 -4 -13 -5 -26 -6 -29 -2 -2 4 -26 7 -53 6 -26 0
-54 3 -60 9 -7 5 -13 6 -13 1 0 -5 -30 -8 -68 -7 -99 4 -155 3 -165 -4 -5 -3
-13 1 -18 8 -7 12 -9 11 -9 -1 0 -13 -1 -13 -10 0 -7 11 -12 12 -17 4 -8 -12
-65 -11 -94 0 -9 4 -27 8 -40 9 -13 1 -45 17 -71 34 -50 35 -71 78 -71 143 0
35 25 104 42 114 5 4 5 23 -1 48 -24 104 11 255 78 341 81 104 209 158 367
155 53 -2 97 -5 97 -9z m3265 -68 c-3 -5 -1 -12 3 -15 5 -3 8 -15 7 -28 -1
-13 2 -31 6 -40 6 -11 5 -18 -4 -22 -9 -3 -8 -8 4 -18 11 -9 14 -20 8 -35 -5
-15 -3 -25 7 -34 12 -10 12 -14 2 -20 -10 -6 -10 -11 -1 -20 9 -9 10 -16 2
-26 -8 -9 -8 -13 0 -13 6 0 11 -11 11 -24 0 -14 4 -27 10 -31 6 -3 6 -15 0
-29 -5 -13 -7 -26 -6 -27 2 -2 6 -17 10 -34 5 -23 4 -27 -5 -15 -9 12 -10 11
-4 -5 13 -39 22 -252 12 -300 -4 -16 -2 -36 2 -44 12 -18 2 -43 -13 -34 -6 4
-6 0 2 -9 7 -9 9 -19 4 -22 -5 -3 -8 -17 -7 -31 2 -14 -1 -25 -6 -25 -6 0 -8
-4 -4 -9 3 -5 1 -12 -5 -16 -6 -4 -8 -11 -5 -16 4 -5 1 -9 -5 -9 -7 0 -9 -12
-6 -30 4 -31 -8 -50 -18 -28 -3 7 -3 3 0 -9 3 -13 1 -23 -5 -23 -6 0 -11 -11
-11 -25 0 -14 -5 -25 -11 -25 -5 0 -7 -4 -4 -10 3 -5 1 -10 -4 -10 -6 0 -11
-9 -11 -19 0 -10 -7 -21 -15 -25 -8 -3 -15 -13 -15 -23 0 -10 -14 -33 -30 -51
-16 -19 -32 -42 -35 -53 -4 -10 -10 -19 -15 -19 -10 0 -75 -61 -75 -70 0 -12
-86 -90 -100 -90 -8 0 -15 -4 -15 -10 0 -5 -6 -10 -14 -10 -8 0 -16 -7 -20
-15 -3 -8 -12 -15 -21 -15 -8 0 -15 -4 -15 -9 0 -5 -9 -13 -20 -16 -11 -4 -18
-9 -16 -13 2 -4 -7 -8 -21 -9 -14 0 -28 -5 -32 -10 -8 -10 -48 -33 -60 -33 -5
0 -26 -8 -47 -17 -22 -9 -42 -17 -46 -17 -3 -1 -10 -4 -14 -8 -4 -5 -18 -8
-31 -8 -13 0 -21 -4 -18 -10 3 -5 0 -7 -8 -4 -7 2 -26 0 -41 -6 -19 -7 -25 -7
-21 1 4 5 -10 3 -30 -5 -20 -9 -40 -14 -44 -12 -4 3 -24 1 -44 -4 -23 -5 -37
-4 -37 2 0 5 -6 6 -12 1 -17 -11 -198 -10 -191 0 3 5 -12 5 -32 1 -22 -4 -36
-3 -32 2 3 5 -14 10 -36 11 -58 2 -109 9 -129 16 -42 16 -52 17 -59 6 -4 -7
-12 -8 -20 -3 -8 5 -35 9 -61 9 -26 0 -50 4 -54 7 -4 4 -15 3 -25 -2 -12 -7
-20 -7 -24 0 -4 7 -12 7 -24 0 -10 -5 -21 -7 -24 -4 -9 9 -97 10 -97 1 0 -5
-4 -6 -9 -2 -17 10 -71 13 -77 3 -3 -5 -12 -1 -20 9 -9 12 -13 13 -14 5 0 -7
-5 -10 -12 -6 -6 4 -35 7 -65 6 -29 0 -53 3 -53 6 0 4 -46 7 -103 7 -75 -1
-109 3 -127 15 -15 9 -21 10 -17 3 6 -9 -3 -11 -35 -8 -51 6 -83 11 -122 21
-19 5 -27 3 -22 -4 3 -6 -1 -9 -11 -7 -10 1 -17 8 -15 14 1 6 -2 11 -8 11 -5
0 -10 -8 -11 -17 0 -12 -2 -13 -6 -5 -4 10 -8 10 -18 2 -10 -9 -19 -6 -34 9
-24 24 -47 27 -54 9 -3 -10 -11 -10 -36 -1 -17 6 -29 8 -26 3 3 -5 1 -11 -5
-15 -5 -3 -10 0 -10 8 0 19 -38 16 -51 -3 -9 -13 -10 -12 -5 2 3 10 -1 18 -12
21 -9 3 249 5 573 6 1054 3 1221 20 1491 151 341 165 578 490 644 880 16 93
36 443 28 482 -6 31 -3 48 8 48 3 0 3 -4 -1 -9z m-4635 -718 c0 -23 4 -44 9
-47 5 -3 7 -22 4 -41 -3 -19 -1 -35 4 -35 4 0 8 -28 7 -63 0 -34 4 -68 10 -75
7 -9 6 -16 -3 -22 -9 -5 -10 -10 -2 -14 6 -4 11 -13 11 -19 0 -7 -4 -6 -10 3
-6 9 -10 10 -10 3 0 -6 6 -18 14 -25 8 -8 12 -28 10 -46 -2 -17 0 -34 5 -37
11 -6 2 -45 -10 -45 -5 0 -2 -11 6 -24 11 -16 13 -26 6 -31 -7 -4 -8 -13 -3
-23 5 -9 8 -69 8 -134 -1 -64 2 -114 7 -111 4 2 7 -1 7 -6 0 -6 -3 -11 -7 -11
-5 0 -8 -11 -8 -25 0 -14 3 -25 6 -25 3 0 4 -12 1 -26 -4 -20 -2 -25 8 -19 9
6 10 3 1 -13 -6 -12 -9 -35 -6 -51 3 -16 0 -33 -5 -36 -8 -5 -7 -11 1 -21 6
-7 8 -21 5 -30 -4 -9 -1 -23 5 -30 7 -8 7 -14 2 -14 -6 0 -10 -22 -9 -50 0
-27 5 -50 10 -50 5 0 3 -6 -3 -13 -6 -8 -8 -16 -5 -19 8 -9 12 -258 4 -258 -5
0 -11 -7 -14 -16 -3 -8 -2 -12 4 -9 6 4 7 -2 1 -17 -4 -13 -12 -21 -16 -18 -4
3 -14 -9 -23 -25 -27 -49 -65 -95 -78 -95 -7 0 -14 -5 -16 -11 -2 -7 -16 -13
-32 -13 -15 -1 -31 -8 -35 -15 -6 -9 -10 -10 -15 -2 -4 6 -12 9 -17 6 -18 -12
-49 -14 -55 -4 -4 6 -11 6 -19 -1 -10 -9 -16 -7 -24 8 -9 17 -3 24 39 51 86
56 156 161 179 270 15 71 30 700 31 1341 0 72 3 100 10 90 5 -8 10 -34 10 -57z
m-905 -413 c-1 -8 5 -26 14 -40 9 -13 16 -38 16 -55 0 -16 5 -29 11 -28 6 1
11 -5 11 -13 0 -7 -4 -14 -8 -14 -5 0 -7 -18 -4 -40 2 -26 0 -39 -8 -37 -6 1
-13 -8 -15 -20 -2 -15 2 -23 12 -23 11 0 13 -6 6 -29 -4 -16 -5 -32 -2 -36 9
-8 3 -75 -9 -96 -6 -13 -6 -25 1 -38 5 -11 6 -22 2 -25 -4 -2 -9 -42 -11 -88
-1 -45 -5 -85 -7 -87 -3 -3 -3 129 -2 292 2 163 0 297 -3 297 -4 0 -9 19 -12
43 -3 24 -9 52 -13 62 -7 17 -6 18 8 5 8 -8 14 -22 13 -30z"/>
<path d="M6916 6298 c5 -7 2 -9 -8 -6 -26 10 -41 -7 -22 -23 12 -9 15 -10 10
-1 -4 7 -1 12 9 12 12 0 15 -6 10 -21 -5 -16 -3 -20 6 -17 8 3 13 13 12 22 0
12 4 15 14 12 8 -3 18 -6 21 -6 4 0 1 -4 -6 -9 -11 -7 -10 -9 3 -14 9 -4 14
-3 10 2 -9 16 19 18 34 4 11 -12 15 -12 22 -1 6 8 12 9 17 3 11 -15 64 -14 58
1 -3 7 2 15 10 18 8 3 13 2 10 -3 -6 -10 10 -25 37 -34 11 -4 16 -3 12 3 -3 6
-3 15 1 22 5 7 11 5 21 -7 12 -17 13 -17 13 -2 0 22 26 22 39 0 5 -10 13 -14
18 -10 4 5 0 13 -10 18 -9 6 -15 15 -11 20 3 6 12 1 21 -11 9 -12 21 -19 30
-16 8 3 11 1 8 -5 -5 -7 10 -8 46 -3 41 5 50 4 44 -6 -6 -10 -4 -10 10 -2 10
5 30 7 44 3 36 -10 56 -7 54 7 -4 15 -4 15 45 -2 27 -10 44 -11 48 -5 4 6 11
6 20 -2 8 -6 25 -8 40 -5 19 5 24 4 18 -6 -4 -7 1 -5 12 4 16 13 22 14 36 4 9
-7 33 -11 52 -10 21 2 36 -1 36 -8 0 -6 10 -3 25 6 13 9 28 16 32 16 4 0 2 -4
-6 -9 -7 -5 -9 -11 -4 -14 6 -4 24 4 40 16 38 28 31 52 -14 52 -35 0 -40 -4
-23 -21 7 -7 6 -11 -5 -11 -8 0 -13 3 -10 5 11 11 -17 30 -36 25 -12 -4 -25 0
-30 8 -7 11 -9 9 -9 -8 0 -12 -4 -25 -10 -28 -6 -4 -7 1 -3 11 5 15 2 16 -24
11 -17 -3 -41 0 -56 8 -15 7 -29 10 -31 6 -4 -6 -51 -7 -51 -1 0 10 -48 3 -52
-7 -3 -7 -10 -13 -15 -13 -6 0 -8 6 -5 14 6 15 -29 16 -53 1 -8 -5 -11 -4 -7
2 4 7 -5 10 -23 9 -17 0 -28 -5 -26 -11 2 -5 9 -9 16 -7 11 2 11 0 0 -13 -12
-15 -15 -14 -27 10 -8 14 -18 23 -24 19 -6 -4 -5 -11 3 -21 8 -10 -1 -8 -25 6
-20 11 -37 16 -37 11 0 -6 -5 -10 -11 -10 -5 0 -7 5 -4 10 7 12 -54 8 -73 -4
-6 -3 -13 -3 -16 2 -4 7 -74 9 -101 2 -22 -5 -46 1 -40 10 3 6 2 10 -4 10 -5
0 -11 -5 -13 -11 -2 -7 -19 -13 -38 -15 -26 -3 -31 -1 -20 6 11 7 11 10 2 10
-7 0 -15 -7 -18 -15 -6 -14 -11 -13 -41 5 -19 11 -31 15 -27 8z"/>
<path d="M17 5906 c-15 -12 -17 -28 -15 -117 l3 -104 110 -1 c61 0 116 4 123
10 10 7 16 5 23 -5 7 -11 10 -10 15 8 4 13 10 20 15 17 5 -3 7 -9 4 -14 -2 -4
9 -7 25 -6 17 0 30 4 30 9 0 4 8 3 19 -2 10 -6 21 -8 24 -5 3 3 3 -5 0 -18 -3
-12 -3 -20 2 -16 4 4 14 0 22 -8 9 -8 18 -12 21 -9 4 3 0 10 -8 15 -26 17 13
12 48 -6 18 -8 36 -13 42 -9 5 3 10 2 10 -4 0 -6 6 -8 14 -5 9 3 13 14 9 27
-3 12 -5 30 -5 40 1 9 -3 17 -8 17 -5 0 -7 9 -5 20 2 11 0 20 -5 20 -5 0 -21
12 -37 28 -52 48 -71 61 -115 72 -24 6 -50 14 -58 17 -8 3 -35 7 -60 8 -70 4
-153 15 -158 20 -3 3 -11 0 -19 -6 -10 -9 -13 -8 -13 1 0 7 -7 10 -16 6 -8 -3
-12 -2 -9 4 9 14 -7 12 -28 -4z"/>
<path d="M0 3828 c0 -421 -7 -382 73 -392 21 -3 41 -7 45 -10 10 -6 53 -14
107 -21 22 -3 50 -10 63 -17 34 -18 52 4 26 33 -17 20 -17 22 -1 16 9 -4 17
-2 17 3 0 6 -7 10 -15 10 -8 0 -12 6 -10 13 2 6 6 24 9 39 4 22 1 26 -15 23
-19 -4 -19 -2 3 27 12 17 23 45 24 62 1 17 3 35 3 39 1 5 5 6 11 2 5 -3 7 -13
4 -23 -4 -12 -2 -12 7 3 17 26 20 43 8 51 -6 3 -5 12 2 20 10 12 8 16 -10 21
-12 3 -20 11 -17 18 2 7 -1 19 -7 26 -10 10 -8 10 6 0 9 -8 21 -11 24 -7 4 4
3 10 -2 14 -13 9 -19 46 -7 38 5 -3 9 1 9 8 0 7 -6 13 -14 13 -7 0 -13 -5 -13
-10 0 -6 -3 -7 -7 -4 -9 10 27 47 45 47 9 0 12 3 8 8 -8 7 -13 8 -41 11 -8 0
-15 6 -15 12 0 5 5 7 10 4 11 -7 14 13 11 58 -2 26 0 28 21 23 13 -3 17 -3 11
0 -8 3 -10 12 -5 22 5 9 7 23 6 30 -1 6 -2 17 -3 23 0 5 -7 7 -13 4 -7 -4 -6
-1 3 7 9 7 14 19 12 26 -3 8 1 10 14 5 13 -4 12 0 -6 16 -24 21 -39 57 -20 45
5 -3 7 -10 4 -15 -11 -17 11 -9 28 11 18 21 16 23 -20 20 -13 -1 -23 3 -23 9
0 6 -5 11 -11 11 -5 0 -7 -6 -3 -12 6 -10 4 -10 -7 -2 -14 10 -77 15 -246 18
l-83 1 0 -377z"/>
<path d="M0 3173 l0 -248 78 -32 c42 -18 95 -40 117 -50 22 -10 45 -18 50 -18
6 0 17 -5 25 -9 9 -6 7 -1 -4 13 -14 16 -22 18 -27 9 -6 -9 -10 -8 -15 5 -3 9
-15 17 -25 17 -11 0 -19 7 -19 16 0 8 3 13 8 11 4 -3 7 16 6 41 0 26 3 52 7
57 11 15 5 48 -9 53 -7 2 -12 10 -12 19 0 12 2 12 16 -2 15 -14 18 -14 33 0
26 22 31 19 26 -17 -5 -32 -5 -32 7 -8 7 14 17 28 23 32 6 5 2 8 -8 8 -12 0
-15 4 -11 12 11 18 14 58 4 58 -5 0 -11 -13 -15 -29 -5 -22 -12 -29 -27 -28
-20 1 -20 2 1 18 23 19 29 35 9 23 -7 -4 -10 -4 -6 1 4 4 2 15 -5 23 -10 13
-9 15 7 9 14 -6 17 -4 12 8 -3 9 -2 13 4 10 6 -3 10 4 10 17 l-1 23 -19 -24
c-11 -13 -20 -20 -20 -15 0 4 7 16 17 26 9 11 11 18 5 18 -7 0 -12 5 -12 12 0
6 9 3 20 -7 13 -12 20 -14 20 -5 0 10 3 10 14 1 12 -10 13 -8 9 9 -4 16 -2 19
13 14 15 -5 16 -4 8 5 -9 10 -17 10 -33 2 -15 -8 -21 -9 -21 -1 0 6 -5 8 -11
4 -8 -4 -8 0 0 15 15 27 4 27 -25 0 l-21 -20 5 26 c3 16 10 24 17 21 7 -2 18
1 24 7 6 6 11 7 11 1 0 -5 8 -10 19 -10 11 0 17 5 14 13 -3 7 -9 11 -13 8 -5
-3 -11 -1 -15 5 -3 5 -1 10 4 10 6 0 11 5 11 11 0 5 -5 7 -11 4 -6 -4 -16 1
-23 11 -8 10 -20 15 -29 11 -9 -3 -19 -2 -22 4 -4 5 -10 7 -15 4 -5 -3 -11 -1
-15 5 -4 6 -11 8 -16 5 -5 -4 -9 -2 -9 3 0 5 -6 9 -12 9 -7 0 -22 4 -32 9 -15
6 -17 4 -11 -7 5 -8 1 -7 -12 4 -11 9 -32 17 -46 17 l-27 0 0 -247z"/>
<path d="M0 1379 l0 -77 29 -7 c16 -3 35 -13 41 -20 8 -10 18 -12 29 -6 11 6
49 -2 116 -25 58 -20 113 -33 130 -31 40 6 55 -1 55 -24 0 -17 49 -52 74 -54
5 0 12 -9 17 -20 4 -11 8 30 8 98 l1 117 -21 -21 c-22 -22 -44 -21 -44 2 0 8
-7 14 -15 14 -8 0 -15 5 -15 12 0 6 -4 15 -9 20 -5 5 -6 3 -2 -4 4 -8 1 -13
-8 -13 -8 0 -16 -6 -19 -12 -2 -7 -8 -1 -12 14 -4 15 -16 28 -28 32 -21 5 -21
5 -3 -9 22 -16 10 -20 -14 -5 -9 6 -20 5 -29 -3 -12 -10 -14 -9 -8 5 3 10 1
20 -5 24 -7 5 -8 2 -3 -6 6 -9 1 -10 -16 -6 -22 7 -23 6 -6 -8 10 -8 14 -17 9
-20 -6 -3 -13 1 -16 10 -3 8 -10 12 -16 9 -6 -4 -7 1 -3 11 4 12 3 15 -5 10
-7 -4 -12 -3 -12 1 0 5 -7 18 -16 29 -8 10 -13 13 -9 7 3 -7 1 -13 -4 -13 -6
0 -11 5 -11 11 0 5 -4 7 -10 4 -5 -3 -10 1 -10 9 0 9 -4 16 -10 16 -5 0 -10
-4 -10 -9 0 -13 -27 -21 -45 -15 -8 4 -12 11 -8 17 4 6 -3 8 -21 3 -15 -4 -25
-3 -22 2 3 5 -1 9 -9 9 -12 0 -15 -17 -15 -78z"/>
<path d="M9890 289 c-285 -8 -1044 -36 -1210 -44 -133 -6 -318 -14 -505 -20
-88 -3 -279 -10 -425 -15 -146 -6 -298 -10 -337 -10 l-73 0 0 -100 0 -100
1450 0 1450 0 0 150 0 150 -37 -2 c-21 0 -162 -5 -313 -9z"/>
<path d="M5558 145 c-2 -2 -129 -6 -283 -9 -154 -3 -318 -8 -365 -10 -47 -2
-272 -7 -500 -10 -228 -4 -449 -8 -490 -11 -41 -2 -174 -7 -295 -10 -220 -6
-346 -13 -355 -22 -2 -2 2 -9 10 -14 13 -9 12 -10 -2 -5 -10 3 -20 1 -23 -5
-4 -5 -11 -6 -17 -3 -6 4 -8 3 -5 -3 3 -5 20 -8 37 -5 17 2 30 0 30 -6 0 -16
-18 -24 -25 -12 -8 14 -18 13 -41 -5 -17 -12 150 -14 1339 -15 1353 0 1358 0
1347 20 -6 11 -19 24 -30 30 -10 6 -27 24 -37 40 -21 37 -31 38 -43 4 l-10
-26 -21 26 c-11 14 -25 24 -30 21 -5 -4 -9 -1 -9 5 0 7 -12 9 -31 6 -22 -3
-29 -1 -26 8 4 11 -2 11 -31 0 -21 -6 -39 -9 -42 -5 -6 9 -47 21 -52 16z"/>
</g>
</svg>
