<?xml version="1.0" standalone="no"?>
<!DOCTYPE svg PUBLIC "-//W3C//DTD SVG 20010904//EN"
 "http://www.w3.org/TR/2001/REC-SVG-20010904/DTD/svg10.dtd">
<svg version="1.0" xmlns="http://www.w3.org/2000/svg"
 width="720.000000pt" height="960.000000pt" viewBox="0 0 720.000000 960.000000"
 preserveAspectRatio="xMidYMid meet">
<metadata>
Created by potrace 1.16, written by Peter Selinger 2001-2019
</metadata>
<g transform="translate(0.000000,960.000000) scale(0.100000,-0.100000)"
fill="#000000" stroke="none">
<path d="M0 7584 l0 -2016 28 18 c15 10 104 72 197 138 94 67 182 126 196 133
22 9 786 541 919 639 89 66 307 219 425 300 171 116 415 292 447 321 l26 25
139 -55 c146 -58 381 -144 758 -277 127 -45 246 -87 267 -95 35 -14 42 -12
365 104 364 132 434 159 446 170 5 5 -8 18 -27 29 -35 21 -41 40 -23 69 9 15
-23 54 -37 46 -6 -4 -5 0 2 9 7 8 9 24 5 33 -5 14 -3 16 7 10 10 -6 12 -4 7 9
-4 10 -7 22 -7 28 0 6 -7 8 -15 4 -8 -3 -15 0 -15 7 0 8 -3 8 -9 -2 -6 -9 -11
-10 -15 -2 -4 6 -4 16 -1 21 3 6 -1 13 -9 16 -9 3 -13 10 -10 15 2 5 0 18 -6
29 -12 22 -1 27 19 8 8 -7 6 -1 -4 15 -10 15 -26 27 -38 27 -11 0 -17 3 -14 7
4 3 2 12 -5 20 -9 11 -7 12 7 7 10 -4 21 -1 26 7 6 10 3 15 -12 19 -11 3 -21
10 -21 15 -1 6 -8 16 -17 23 -14 11 -14 11 4 7 11 -3 8 1 -8 8 -15 7 -24 17
-20 22 5 4 0 5 -9 2 -23 -8 -23 9 0 18 16 6 16 7 0 16 -22 12 -24 31 -3 22 12
-4 11 3 -6 31 -11 20 -25 34 -29 31 -21 -13 -43 66 -27 92 4 7 -1 14 -14 18
-17 6 -19 9 -8 16 11 8 10 13 -9 28 l-22 19 32 33 c18 18 28 30 22 26 -16 -10
-26 50 -13 75 10 18 9 20 -6 14 -16 -6 -16 -4 -4 11 8 10 9 14 2 10 -18 -11
-34 24 -21 47 8 14 7 17 -1 12 -16 -10 -26 23 -14 43 7 12 7 20 -2 28 -7 7
-15 10 -17 8 -2 -3 -5 14 -7 36 -1 28 4 48 16 62 10 11 13 18 8 15 -15 -9 -40
14 -40 37 0 11 -6 19 -13 17 -8 -1 -11 2 -7 8 3 6 10 8 15 5 5 -3 14 4 20 15
7 13 7 20 0 20 -5 0 -10 -5 -10 -11 0 -5 -5 -7 -10 -4 -6 4 -7 12 -3 18 12 20
11 48 -3 43 -9 -3 -11 1 -7 12 6 15 5 16 -13 2 -18 -14 -18 -14 -4 4 12 16 12
20 0 30 -8 6 -16 18 -18 26 -2 8 -10 20 -18 27 -10 7 -12 13 -5 18 8 4 8 12 1
24 -5 10 -6 21 -3 25 4 4 -3 9 -15 13 -20 5 -26 17 -25 51 1 6 -2 12 -6 12
-10 0 -1 59 10 66 19 11 9 45 -16 54 -14 5 -25 12 -25 15 0 4 4 4 9 0 14 -8
23 29 13 56 -10 29 -9 69 1 87 5 8 2 12 -8 12 -9 0 -13 5 -10 10 4 6 12 8 18
4 7 -3 2 3 -10 14 -20 18 -21 21 -7 33 14 11 14 13 0 21 -8 5 -13 16 -11 26 2
9 4 22 5 27 7 31 0 37 -23 22 -21 -14 -24 -13 -35 4 -9 15 -8 20 6 28 10 7 12
11 4 11 -7 0 -11 4 -7 9 3 5 0 13 -6 17 -7 4 -9 3 -5 -4 3 -6 2 -13 -3 -16
-16 -11 -22 11 -6 24 15 12 11 35 -5 25 -9 -6 -7 21 2 30 3 4 19 0 35 -8 28
-15 28 -15 28 17 0 33 -31 69 -52 61 -7 -2 -13 0 -13 5 0 5 -8 6 -17 3 -15 -6
-16 -5 -3 9 8 9 17 12 20 7 3 -4 12 -4 20 1 9 6 10 10 3 10 -6 0 -15 9 -18 21
-5 15 -10 17 -20 9 -20 -17 -26 35 -6 56 12 14 12 15 1 7 -24 -17 -60 -25 -60
-14 0 6 6 11 14 11 22 0 23 42 2 67 -10 12 -23 20 -28 17 -4 -3 -8 0 -8 5 0 6
-10 11 -22 12 -13 0 -17 3 -10 6 18 7 14 22 -5 18 -13 -2 -18 4 -18 20 0 18 3
21 13 13 8 -7 12 -7 12 0 0 6 -5 14 -10 17 -6 4 -7 11 -4 17 4 5 -4 5 -17 -2
-19 -10 -22 -10 -12 0 9 10 9 16 -2 26 -11 12 -290 14 -1704 14 l-1691 0 0
-2016z"/>
<path d="M5580 7099 c13 -24 18 -48 14 -61 -3 -11 0 -31 7 -44 7 -13 10 -27 6
-30 -3 -3 -34 -9 -69 -11 -35 -3 -64 -7 -66 -8 -2 -1 5 -10 14 -20 12 -12 27
-15 49 -12 19 3 46 -2 70 -14 22 -10 49 -18 61 -19 12 0 39 -12 60 -27 64 -43
152 -81 207 -88 30 -4 69 -19 92 -34 66 -44 64 -44 59 -12 -4 23 -1 31 16 36
27 9 37 50 16 70 -9 9 -16 22 -16 29 0 13 -55 65 -120 115 -23 18 -30 30 -28
50 3 25 1 26 -37 23 -132 -11 -145 -8 -236 46 -47 29 -93 52 -102 52 -16 0
-15 -4 3 -41z"/>
<path d="M2406 6819 c-50 -37 -73 -49 -90 -45 -16 4 -45 -12 -116 -65 -121
-89 -118 -86 -88 -100 19 -8 31 -8 48 1 33 18 38 2 6 -23 -25 -20 -26 -24 -13
-35 29 -25 84 -26 113 -3 14 11 31 18 37 14 5 -3 1 -13 -12 -22 l-22 -17 25
-27 c14 -15 35 -27 48 -28 13 0 50 -4 83 -9 45 -6 66 -4 82 6 20 13 31 11 100
-17 43 -17 120 -46 171 -65 87 -32 95 -33 125 -20 43 20 83 53 74 62 -4 4 -16
-1 -27 -11 -11 -10 -23 -15 -28 -11 -12 13 31 37 56 31 17 -4 25 0 34 20 13
29 16 26 -42 52 -79 36 -121 46 -133 34 -8 -8 -6 -11 6 -11 9 0 17 -5 17 -11
0 -6 -7 -8 -16 -5 -9 3 -23 6 -31 6 -14 0 -14 3 2 20 17 19 17 20 -11 30 -16
6 -48 18 -71 26 -23 9 -52 27 -64 40 -12 13 -30 24 -38 24 -14 0 -14 -2 -1
-10 8 -5 12 -12 9 -15 -10 -9 -39 6 -39 21 0 8 -7 14 -15 14 -27 0 -16 14 50
65 35 28 65 53 65 57 0 14 -61 39 -80 33 -26 -8 -60 3 -60 20 0 7 -7 16 -16
19 -40 15 -73 4 -138 -45z"/>
<path d="M7153 6200 c-10 -11 -23 -20 -30 -20 -7 0 -13 -7 -13 -15 0 -8 -9
-19 -20 -25 -11 -6 -20 -8 -20 -4 0 4 -8 1 -17 -7 -27 -22 -117 -61 -134 -58
-24 6 -79 -25 -79 -43 0 -17 97 -148 159 -214 16 -17 36 -43 46 -57 24 -38 49
-42 79 -14 19 18 23 26 14 35 -7 7 -17 12 -23 12 -21 0 -75 70 -75 98 0 37 28
60 62 51 19 -5 28 -3 32 7 3 8 11 14 19 14 9 0 12 9 9 31 -4 28 -3 31 17 24
22 -7 22 -5 20 99 -1 113 -10 128 -46 86z"/>
<path d="M6061 5986 c2 -2 54 -33 114 -70 61 -36 135 -84 165 -106 30 -22 80
-47 110 -56 30 -9 82 -27 115 -41 195 -82 393 -133 521 -133 113 0 114 1 114
69 l0 56 -133 2 c-269 3 -628 98 -919 244 -68 34 -100 47 -87 35z"/>
<path d="M7169 4972 c-46 -116 -100 -266 -105 -292 -3 -13 -9 -29 -13 -35 -5
-5 -19 -43 -31 -83 -13 -40 -27 -75 -31 -78 -5 -3 -9 -13 -9 -22 0 -9 -14 -54
-31 -101 -69 -193 -101 -277 -114 -301 -7 -14 -16 -42 -20 -63 -4 -20 -11 -40
-16 -43 -5 -3 -9 -12 -9 -20 0 -8 -9 -34 -20 -56 -11 -23 -20 -51 -20 -62 0
-12 -8 -35 -18 -51 -10 -17 -21 -41 -24 -55 -3 -14 -22 -70 -42 -125 -20 -55
-36 -107 -36 -115 0 -8 -6 -27 -14 -41 -7 -14 -28 -68 -46 -120 -17 -52 -36
-98 -41 -103 -5 -6 -9 -17 -9 -25 0 -9 -7 -29 -15 -45 -8 -15 -15 -37 -15 -47
0 -10 -4 -21 -10 -24 -5 -3 -10 -13 -10 -22 0 -8 -7 -31 -16 -51 -9 -21 -19
-46 -24 -57 -4 -11 -12 -31 -18 -45 -6 -14 -20 -56 -32 -95 -12 -38 -26 -78
-31 -87 -5 -10 -9 -27 -9 -38 0 -11 -4 -20 -8 -20 -4 0 -14 -21 -22 -47 -7
-27 -21 -62 -31 -79 -9 -17 -20 -46 -24 -64 -4 -19 -11 -41 -15 -50 -5 -8 -18
-42 -30 -75 -26 -70 -32 -87 -54 -137 -9 -20 -16 -39 -16 -43 0 -3 -11 -31
-25 -61 -14 -30 -25 -59 -25 -64 0 -6 -4 -18 -9 -28 -19 -37 -61 -148 -61
-162 0 -8 -9 -30 -20 -48 -11 -18 -20 -37 -20 -42 0 -6 -8 -29 -19 -53 -10
-23 -24 -58 -31 -77 -7 -19 -22 -55 -32 -79 -11 -23 -35 -84 -54 -134 -20 -52
-48 -106 -67 -126 -31 -35 -34 -36 -62 -22 -17 7 -39 21 -50 31 -22 18 -97 61
-245 137 -52 28 -129 68 -170 90 -215 115 -389 209 -425 229 -22 13 -76 41
-120 64 -44 22 -102 53 -130 69 -27 15 -81 45 -120 66 -38 21 -86 48 -105 60
-19 12 -82 47 -140 79 -149 82 -154 84 -271 153 -59 34 -137 79 -175 99 -159
85 -182 98 -254 139 -41 23 -109 60 -150 82 -83 45 -159 87 -205 114 -30 17
-494 272 -610 334 -33 18 -98 54 -145 80 -47 26 -112 62 -145 80 -33 18 -105
57 -160 87 -243 133 -437 237 -610 328 -55 29 -122 65 -150 80 -27 15 -93 50
-145 77 -52 28 -126 67 -163 87 -37 20 -72 34 -77 31 -6 -3 -10 -3 -10 2 0 9
-36 32 -140 86 -41 22 -77 42 -80 46 -3 4 -21 13 -40 21 -19 8 -60 28 -90 45
-30 17 -71 37 -90 45 -19 8 -60 28 -90 46 -97 55 -170 93 -170 89 0 -3 -40 20
-88 50 -49 30 -96 55 -105 55 -10 0 -17 5 -17 10 0 6 -7 10 -15 10 -13 0 -15
-42 -15 -320 0 -249 3 -320 13 -320 8 0 7 -4 -3 -11 -12 -8 -11 -9 6 -4 12 3
31 -2 45 -13 24 -18 85 -51 186 -102 37 -19 49 -30 42 -37 -8 -8 -5 -15 11
-23 18 -9 24 -9 30 0 8 14 25 6 99 -43 22 -15 84 -50 136 -78 79 -42 94 -54
84 -65 -10 -12 -15 -12 -37 2 -26 17 -123 73 -182 106 -24 13 -28 14 -13 2 13
-9 23 -22 23 -28 0 -7 11 -23 25 -36 14 -13 25 -32 25 -43 0 -11 8 -29 17 -39
9 -10 18 -29 20 -41 1 -12 6 -38 10 -57 3 -19 7 -38 7 -41 1 -6 13 -32 55
-119 11 -25 21 -50 21 -55 0 -6 -18 -18 -41 -28 -31 -14 -39 -21 -34 -36 3
-12 -4 -30 -20 -49 -14 -16 -25 -35 -25 -42 0 -19 -39 -68 -60 -75 -29 -9 -59
-65 -55 -100 3 -17 -3 -53 -12 -82 -16 -50 -16 -53 3 -74 16 -18 26 -20 72
-16 47 5 52 4 41 -9 -7 -9 -25 -22 -40 -30 -17 -8 -26 -20 -23 -27 6 -16 -11
-31 -62 -57 l-36 -19 6 22 c16 56 18 77 7 77 -6 0 -11 -3 -11 -7 0 -5 -25 -34
-54 -66 -62 -67 -71 -84 -54 -104 9 -11 9 -17 -3 -24 -12 -8 -11 -12 5 -24 11
-8 32 -15 47 -15 15 0 31 -5 35 -11 4 -7 -6 -10 -32 -7 -37 3 -41 0 -71 -47
-18 -27 -33 -59 -33 -70 0 -16 5 -12 22 15 15 25 23 30 25 19 5 -21 -36 -129
-48 -129 -5 0 -9 -6 -9 -13 0 -13 -32 -46 -58 -62 -11 -6 -12 -3 -3 14 8 14 8
21 1 21 -6 0 -15 -11 -20 -25 -6 -15 -25 -32 -45 -41 -32 -13 -35 -18 -35 -56
0 -38 1 -40 18 -26 9 8 90 61 179 116 330 207 419 281 526 442 80 122 129 216
181 353 21 54 48 110 61 125 l23 26 6 -32 c4 -17 26 -75 48 -129 22 -54 51
-129 65 -168 30 -86 52 -135 60 -135 3 0 3 20 1 45 -3 25 -2 45 3 45 10 0 4
44 -11 95 -35 118 -85 278 -100 320 -19 58 -16 79 17 119 15 18 21 35 17 48
-5 18 -4 18 32 3 46 -19 64 -33 64 -52 0 -17 46 -170 215 -718 125 -405 163
-535 170 -590 4 -27 12 -56 18 -63 7 -9 4 -18 -8 -32 -25 -28 -40 -13 -87 88
-31 68 -42 82 -61 82 -18 0 -28 11 -45 51 -13 29 -20 59 -16 71 4 12 -1 28
-13 41 -26 30 -54 74 -77 122 -26 57 -31 27 -8 -47 55 -176 73 -240 70 -250
-2 -6 -24 22 -47 61 -49 80 -69 83 -50 8 6 -26 9 -58 7 -72 -6 -27 3 -31 34
-14 25 14 33 6 18 -20 -8 -16 -6 -45 10 -126 14 -75 17 -117 12 -143 -5 -21
-6 -64 -2 -97 4 -33 6 -98 4 -145 -2 -92 7 -146 34 -198 17 -33 17 -34 -10
-56 -31 -24 -35 -36 -14 -36 15 0 11 -35 -7 -57 -5 -7 -6 -13 -1 -13 15 1 54
37 54 50 0 22 24 4 47 -36 31 -54 29 -62 -14 -66 -33 -3 -39 -7 -43 -33 -3
-16 -13 -42 -23 -56 -20 -29 -14 -85 7 -72 6 4 19 6 29 5 9 -2 20 4 23 12 3 9
10 16 15 16 15 0 79 62 79 76 0 7 14 23 31 37 27 21 28 25 15 36 -9 8 -16 19
-16 26 0 19 -37 48 -51 39 -8 -4 -10 -3 -5 4 4 7 13 12 19 12 7 0 17 11 24 25
10 23 9 25 -13 25 -28 0 -31 16 -8 41 11 13 13 22 6 36 -7 12 -7 25 0 37 7 13
7 20 -1 26 -8 5 -9 14 -2 33 8 20 7 27 -2 27 -8 0 -12 19 -12 59 0 72 16 93
83 112 27 7 75 35 116 66 73 57 108 66 128 33 7 -11 16 -20 21 -20 17 0 126
-76 127 -88 0 -8 9 -16 20 -19 11 -3 20 -13 20 -23 0 -11 12 -22 31 -29 23 -8
30 -16 27 -33 -2 -18 5 -25 40 -38 46 -17 62 -29 105 -78 15 -18 36 -32 48
-32 11 0 18 -4 15 -9 -3 -5 10 -23 29 -40 19 -17 36 -40 38 -52 3 -29 43 -69
67 -69 20 0 24 -9 21 -43 -2 -13 5 -17 28 -17 17 0 31 5 31 12 0 15 15 0 15
-15 1 -7 -4 -15 -10 -19 -5 -4 0 -8 13 -8 26 0 28 -17 7 -47 -21 -29 -163
-143 -180 -143 -7 0 -15 -7 -19 -15 -3 -8 -10 -15 -16 -15 -12 0 -131 -79
-145 -97 -5 -7 -27 -19 -48 -28 -20 -8 -37 -20 -37 -25 0 -6 -6 -10 -13 -10
-7 0 -28 -13 -47 -30 -19 -16 -39 -29 -43 -30 -4 0 -13 -4 -20 -10 -42 -34
-76 -58 -107 -73 -45 -23 -74 -40 -91 -54 -8 -5 -38 -18 -66 -27 -29 -10 -53
-21 -53 -26 0 -14 -58 -51 -111 -70 -45 -17 -50 -17 -58 -2 -9 16 -11 16 -27
0 -16 -16 -16 -17 5 -11 19 5 21 2 19 -26 -1 -17 -7 -31 -13 -31 -5 0 -16 -9
-23 -21 l-13 -20 250 3 c247 3 251 3 267 26 8 12 19 20 24 17 5 -3 12 4 15 16
8 24 71 55 120 58 6 1 22 12 37 26 15 14 35 25 45 25 10 0 14 -3 8 -8 -6 -4
-18 -19 -28 -34 -20 -32 -64 -60 -54 -35 5 13 2 13 -26 -1 -18 -8 -40 -25 -50
-36 -10 -11 -30 -28 -45 -38 -26 -17 6 -18 851 -18 l877 0 -49 77 c-26 43
-119 191 -206 328 -478 759 -669 1063 -920 1470 -152 248 -306 496 -341 553
-35 57 -64 107 -64 112 0 5 29 -9 65 -31 41 -26 65 -48 65 -59 0 -25 37 -54
165 -130 59 -36 122 -78 138 -93 16 -15 32 -25 34 -23 3 3 24 -7 47 -21 84
-54 407 -250 611 -370 116 -69 221 -133 235 -142 14 -9 38 -23 53 -31 16 -8
43 -28 60 -44 17 -17 38 -31 46 -33 9 -1 20 -8 26 -15 13 -16 95 -70 95 -62 0
3 7 -1 15 -8 32 -29 45 -38 52 -37 4 0 10 -8 14 -18 7 -17 8 -16 8 2 1 17 3
17 11 5 5 -8 10 -11 10 -7 0 4 6 2 14 -5 8 -7 11 -17 8 -22 -3 -5 0 -6 7 -2 6
4 14 1 17 -8 3 -8 12 -12 19 -10 7 3 19 -4 25 -16 6 -11 16 -20 23 -19 23 5
88 -34 82 -49 -3 -9 0 -12 9 -9 15 6 68 -29 91 -60 10 -12 14 -14 15 -4 0 10
3 11 13 2 8 -6 17 -8 21 -4 4 4 9 -3 13 -15 3 -12 9 -19 14 -16 5 3 9 -3 9
-12 0 -16 1 -16 15 2 13 16 14 16 9 2 -4 -13 -1 -18 10 -18 9 0 19 -7 22 -15
4 -8 9 -13 14 -10 4 2 17 -5 28 -16 15 -13 22 -15 22 -7 0 8 4 6 11 -4 5 -10
16 -15 24 -12 9 4 15 0 15 -9 0 -9 9 -19 20 -22 11 -3 20 -12 20 -18 0 -8 4
-7 9 2 7 11 12 10 22 -8 8 -11 19 -21 26 -21 7 0 13 -4 13 -10 0 -5 7 -7 15
-4 10 4 15 0 15 -11 0 -9 4 -14 9 -11 5 4 12 0 14 -6 4 -9 6 -8 7 2 0 10 6 6
15 -10 8 -14 14 -19 15 -12 0 10 4 10 16 -2 8 -9 22 -16 30 -16 8 0 14 -4 14
-10 0 -5 7 -10 15 -10 8 0 15 -5 15 -11 0 -6 6 -9 14 -6 9 4 16 -3 20 -16 4
-16 8 -19 14 -9 7 10 17 5 40 -19 18 -18 32 -29 32 -23 0 5 5 2 10 -6 8 -12
12 -12 18 -2 6 9 12 6 21 -12 8 -13 19 -22 26 -19 7 2 33 -13 56 -34 24 -21
39 -31 34 -23 -8 13 -6 13 8 2 9 -8 21 -11 27 -7 5 3 10 -1 10 -10 0 -9 4 -14
9 -11 5 3 14 -1 21 -9 7 -8 16 -13 20 -10 4 3 20 -5 36 -17 15 -13 24 -16 19
-8 -7 13 -6 13 7 2 9 -8 14 -21 11 -30 -4 -14 -3 -15 5 -2 9 12 13 12 29 -2
10 -8 24 -13 31 -11 6 3 12 0 12 -6 0 -6 14 -17 30 -26 17 -9 30 -13 30 -11 0
10 193 -63 260 -98 14 -7 31 -11 38 -9 6 3 12 0 12 -6 0 -6 5 -11 11 -11 12 0
74 -26 99 -41 35 -21 83 -38 91 -33 5 3 9 1 9 -3 0 -5 21 -15 47 -22 25 -8 54
-22 64 -32 10 -10 25 -16 34 -13 8 4 15 1 15 -5 0 -6 9 -11 20 -11 11 0 20 -5
20 -10 0 -7 6 -7 19 -1 14 8 23 6 36 -9 10 -11 22 -17 26 -14 5 3 12 -2 15
-11 5 -12 9 -13 20 -4 11 9 14 8 14 -2 0 -11 2 -11 10 1 8 13 10 13 10 -1 0
-18 26 -33 41 -23 5 3 9 -1 9 -8 0 -11 2 -11 9 0 7 11 11 11 23 -2 9 -8 19
-12 22 -8 4 3 4 -1 0 -11 -3 -10 -1 -17 5 -17 6 0 11 5 11 10 0 15 26 12 43
-5 8 -8 17 -11 21 -8 3 4 6 1 6 -5 0 -7 5 -12 11 -12 5 0 8 4 5 8 -4 7 7 8 45
3 4 -1 9 -10 12 -21 4 -14 14 -20 34 -20 15 0 35 -4 42 -9 9 -6 23 -6 35 1 17
9 19 8 9 -3 -15 -16 -17 -33 -3 -24 6 3 10 2 10 -4 0 -7 8 -7 27 0 21 8 28 7
35 -6 5 -8 14 -13 20 -9 6 4 8 -1 3 -15 -4 -12 -2 -21 4 -21 6 0 10 3 10 7 -4
22 3 32 21 30 11 -1 20 -7 20 -15 0 -7 -5 -10 -12 -6 -7 4 -8 3 -4 -4 4 -6 13
-9 21 -5 9 3 15 -1 15 -11 0 -13 5 -14 26 -6 34 13 37 13 32 -8 -5 -17 7 -19
208 -21 l214 -2 -2 2342 -3 2342 -30 10 c-63 21 -63 36 1 216 40 114 43 165 3
63z m-6323 -1745 c14 -8 18 -17 13 -27 -4 -8 -15 -52 -25 -98 -10 -46 -21 -85
-24 -87 -10 -6 -75 86 -76 108 -1 17 -5 27 -33 88 -7 14 -11 34 -9 45 7 40 49
32 154 -29z m1404 -2736 c0 -5 -12 -16 -26 -26 -14 -9 -23 -19 -20 -22 3 -3 1
-15 -5 -25 -9 -16 -18 -19 -46 -15 -26 5 -39 1 -54 -14 -10 -10 -19 -23 -19
-29 0 -10 25 -15 45 -10 6 2 36 4 67 6 32 1 67 5 78 9 11 3 20 2 20 -3 0 -5
-12 -12 -27 -15 -16 -3 -48 -19 -73 -36 l-45 -30 -13 24 c-14 28 -34 32 -50
12 -12 -14 -5 -57 9 -57 20 0 7 -28 -18 -40 -16 -7 -44 -21 -64 -31 -49 -25
-53 -24 -46 11 4 16 3 29 -1 28 -4 -1 -15 2 -25 7 -10 4 -23 2 -32 -5 -21 -17
-36 -3 -33 32 2 20 9 33 23 38 12 4 27 15 34 24 7 9 17 16 22 16 24 0 158 86
168 106 8 17 19 24 40 24 16 0 34 7 41 15 13 16 50 21 50 6z"/>
<path d="M970 1744 c-161 -34 -159 -33 -422 -160 -229 -111 -242 -116 -390
-148 l-153 -33 -3 -56 c-2 -38 1 -57 8 -57 25 0 176 43 266 75 52 19 182 81
287 138 106 58 215 111 242 120 142 45 256 71 310 72 58 0 60 1 60 26 1 19 -3
25 -15 22 -9 -2 -22 3 -29 11 -17 20 -22 20 -161 -10z"/>
<path d="M1424 617 c-18 -14 -22 -23 -15 -30 16 -16 13 -27 -5 -20 -14 5 -15
3 -3 -18 13 -25 13 -27 -2 -46 -7 -7 -6 -14 1 -18 11 -7 -3 -22 -49 -55 -22
-15 -28 -40 -11 -40 6 0 24 7 40 15 32 17 60 11 60 -13 0 -14 13 -9 16 6 6 29
18 51 25 46 5 -3 9 0 9 6 0 6 5 8 10 5 6 -3 10 -3 11 2 0 4 2 25 5 46 4 29 1
37 -11 37 -12 0 -10 6 8 23 24 21 24 23 8 43 -25 31 -67 35 -97 11z"/>
</g>
</svg>
