<?xml version="1.0" standalone="no"?>
<!DOCTYPE svg PUBLIC "-//W3C//DTD SVG 20010904//EN"
 "http://www.w3.org/TR/2001/REC-SVG-20010904/DTD/svg10.dtd">
<svg version="1.0" xmlns="http://www.w3.org/2000/svg"
 width="1920.000000pt" height="1080.000000pt" viewBox="0 0 1920.000000 1080.000000"
 preserveAspectRatio="xMidYMid meet">
<metadata>
Created by potrace 1.16, written by Peter Selinger 2001-2019
</metadata>
<g transform="translate(0.000000,1080.000000) scale(0.100000,-0.100000)"
fill="#000000" stroke="none">
<path d="M10685 7809 c-231 -9 -591 -35 -685 -50 -72 -11 -123 -18 -160 -23
-95 -13 -406 -70 -470 -85 -19 -5 -107 -26 -195 -46 -88 -21 -225 -58 -305
-82 -80 -25 -201 -55 -270 -69 -69 -13 -145 -32 -170 -43 -25 -11 -97 -39
-160 -62 -63 -23 -144 -55 -178 -71 -35 -15 -68 -28 -74 -28 -5 0 -16 -7 -24
-15 -9 -8 -27 -18 -42 -21 -15 -3 -66 -26 -114 -50 -49 -24 -88 -42 -88 -39 0
3 -6 1 -12 -5 -29 -24 -93 -62 -110 -65 -10 -2 -30 -13 -44 -24 -14 -11 -41
-25 -60 -31 -19 -7 -34 -18 -34 -27 0 -9 -6 -13 -15 -9 -8 3 -15 1 -15 -4 0
-6 -5 -10 -11 -10 -6 0 -30 -14 -55 -31 -24 -16 -49 -27 -56 -23 -6 4 -8 3 -4
-4 3 -6 -34 -37 -91 -74 -54 -36 -105 -71 -113 -79 -8 -8 -27 -20 -41 -27 -14
-8 -39 -25 -54 -38 -15 -13 -31 -24 -34 -24 -3 0 -19 -13 -36 -28 -41 -38 -76
-59 -116 -70 -23 -7 131 -11 486 -11 486 -1 1386 -23 1501 -37 67 -8 220 32
329 86 46 22 130 79 196 132 64 51 181 145 260 209 367 294 636 471 934 615
292 140 616 230 904 250 56 4 104 10 106 15 7 10 -619 9 -880 -2z m-1694 -492
c25 -17 37 -34 45 -67 l11 -45 131 0 c73 0 132 -3 132 -6 0 -3 -16 -42 -37
-85 -20 -43 -67 -155 -104 -249 l-67 -170 -264 -5 -263 -5 -3 -42 -3 -43 -500
0 c-393 0 -499 3 -498 13 0 6 22 59 48 117 l47 105 74 43 c203 116 545 270
775 347 109 36 395 113 426 114 9 1 31 -9 50 -22z"/>
<path d="M11812 7750 c5 -17 8 -33 6 -35 -2 -3 -78 -9 -169 -15 -415 -27 -699
-100 -1034 -265 -237 -117 -451 -259 -705 -469 -126 -105 -379 -356 -484 -481
-90 -107 -161 -204 -154 -209 1 -2 98 5 213 14 116 9 246 15 290 12 131 -8
322 -3 345 8 3 2 -15 6 -40 10 l-45 7 55 2 c30 2 80 6 110 11 50 6 45 7 -50
10 l-105 3 60 9 c33 5 89 11 125 12 36 2 72 6 80 9 8 3 67 8 130 12 63 4 154
10 202 13 133 11 101 -4 -81 -39 -39 -7 -36 -8 24 -4 181 12 790 58 1060 80
165 14 327 27 360 30 100 7 658 64 850 86 563 64 1116 156 1233 204 72 31 106
80 121 177 l8 49 -111 73 c-584 387 -1253 595 -2057 638 l-218 12 -6 28 c-4
15 -11 30 -15 33 -5 3 -4 -8 2 -25z m-994 -431 c72 -17 182 -49 182 -54 0 -2
-8 -23 -19 -47 -10 -24 -42 -115 -71 -203 -29 -88 -61 -169 -71 -180 -10 -11
-32 -51 -50 -88 -31 -67 -31 -70 -16 -102 18 -38 50 -155 44 -161 -2 -2 -87
-8 -188 -14 -102 -5 -241 -14 -310 -20 -68 -5 -155 -12 -194 -15 -38 -3 -96
-8 -127 -11 -72 -6 -72 -4 -16 107 59 119 132 190 222 218 38 12 90 21 117 21
27 0 49 4 49 9 0 22 -33 98 -56 128 -14 19 -43 45 -65 60 -55 36 -52 60 14
102 190 125 442 261 485 261 13 0 44 -5 70 -11z m2037 -89 c66 -4 162 -14 213
-21 88 -11 95 -14 137 -53 30 -29 51 -61 70 -109 14 -38 25 -73 23 -79 -2 -6
-22 -12 -43 -14 -22 -2 -82 -9 -132 -15 -51 -6 -97 -8 -102 -5 -4 3 -11 18
-14 33 -8 40 -47 94 -84 115 -47 28 -124 34 -177 14 -47 -18 -56 -32 -77 -118
-6 -27 -14 -48 -16 -48 -3 0 -60 29 -127 64 -66 35 -171 89 -233 120 -102 51
-132 71 -121 81 8 8 148 26 264 34 168 11 280 12 419 1z m496 -422 c25 -81 45
-114 35 -58 -8 43 9 20 18 -26 7 -31 7 -31 -41 -37 -26 -3 -138 -17 -248 -31
-233 -30 -648 -73 -785 -81 -68 -5 -91 -4 -80 4 8 6 32 11 53 11 24 0 36 4 32
11 -5 7 5 8 32 4 22 -4 33 -3 26 2 -8 5 5 9 34 11 25 1 80 9 122 18 42 8 90
17 106 19 60 6 178 25 185 30 17 10 273 49 319 48 20 -1 21 1 10 13 -8 7 -32
20 -54 27 -38 13 -76 59 -61 74 3 4 61 12 128 18 68 7 128 13 135 14 6 0 22
-32 34 -71z"/>
<path d="M14923 6310 c-21 -24 -35 -30 -65 -30 -35 0 -41 -4 -68 -47 -59 -93
-33 -123 103 -123 88 0 89 0 83 23 -3 12 -6 64 -6 115 0 54 -4 92 -10 92 -5 0
-22 -13 -37 -30z"/>
<path d="M12280 6300 c-36 -4 -103 -10 -150 -14 -320 -23 -373 -34 -395 -76
-8 -16 -15 -32 -15 -35 0 -3 21 -3 48 0 113 13 319 33 337 32 18 0 176 16 282
29 40 5 83 39 83 65 0 10 -96 10 -190 -1z"/>
<path d="M9555 5905 c-5 -2 -66 -9 -134 -14 -68 -6 -129 -15 -134 -20 -7 -7
11 -32 51 -73 l61 -63 33 18 c18 10 64 41 103 70 74 56 94 88 53 86 -13 0 -27
-2 -33 -4z"/>
<path d="M13940 5867 c-208 -86 -402 -342 -513 -677 -36 -110 -91 -338 -103
-428 -4 -30 -12 -55 -18 -57 -6 -2 -135 -18 -286 -35 -323 -36 -530 -61 -852
-103 -98 -13 -178 -21 -178 -17 0 3 9 43 21 89 11 45 19 85 16 87 -2 2 -17
-38 -32 -90 l-28 -94 -41 -6 c-62 -9 -998 -119 -1546 -182 -267 -30 -529 -62
-582 -70 -54 -7 -100 -14 -102 -14 -2 0 -6 98 -9 218 -6 228 -20 323 -67 462
-105 305 -303 540 -554 656 -117 54 -208 75 -341 81 -305 14 -595 -112 -834
-362 -114 -120 -190 -229 -272 -390 -112 -222 -174 -444 -221 -796 l-22 -167
-40 -6 c-335 -46 -1187 -42 -1881 9 -589 43 -1074 126 -1213 206 -45 26 -40 5
6 -24 125 -80 193 -115 265 -137 169 -52 443 -110 762 -160 72 -11 151 -25
177 -31 46 -10 47 -12 43 -45 -1 -19 1 -34 6 -34 13 0 11 -64 -3 -78 -7 -7
-22 -12 -34 -12 -13 0 -25 -4 -28 -9 -3 -4 -34 -14 -68 -21 -180 -35 -246
-144 -125 -207 18 -9 39 -24 48 -34 9 -11 21 -19 28 -19 6 0 10 -3 10 -7 -4
-22 3 -33 20 -33 11 0 21 -4 23 -9 7 -21 342 -54 818 -82 197 -11 580 -8 849
8 l114 6 -73 27 -73 27 44 5 c135 17 393 6 694 -27 356 -40 1053 13 1336 101
104 33 111 59 22 79 -18 3 -33 11 -33 15 0 21 45 28 215 34 99 3 230 12 290
21 203 28 745 94 1435 175 190 23 399 48 465 56 66 8 179 21 250 29 240 29
619 74 700 85 324 41 565 65 745 75 63 3 143 13 178 22 54 14 84 15 235 4 94
-6 228 -11 297 -11 132 0 328 22 339 37 3 5 33 30 66 56 93 72 196 221 239
344 8 24 24 39 56 55 34 17 54 38 80 81 27 45 47 65 85 85 99 53 124 73 144
116 12 23 21 56 21 72 0 16 16 67 35 114 36 88 46 141 23 123 -15 -12 -197
-93 -209 -93 -4 0 -8 39 -8 88 -1 169 -49 360 -126 498 -53 95 -148 184 -253
236 -73 37 -93 42 -168 46 -84 5 -85 5 -99 36 l-14 31 6 -31 c5 -29 3 -31 -44
-41 -26 -6 -49 -11 -50 -10 0 1 -3 11 -5 22 -1 11 -7 23 -13 27 -5 4 2 11 15
17 14 5 18 10 10 10 -8 0 -40 -10 -70 -22z m-5050 -538 c0 -6 9 -9 20 -6 13 3
20 0 20 -10 0 -9 6 -12 19 -8 12 3 21 0 24 -10 4 -8 13 -12 20 -9 8 3 17 -2
20 -10 4 -9 13 -13 22 -10 10 4 15 0 15 -10 0 -9 8 -16 20 -16 11 0 20 -7 20
-15 0 -9 6 -12 16 -8 10 4 17 -1 21 -15 3 -13 10 -19 19 -15 9 3 14 -2 14 -16
0 -13 5 -19 14 -15 10 4 16 -2 18 -18 2 -13 7 -22 13 -20 5 2 12 -4 15 -13 3
-9 10 -16 15 -15 6 1 13 -9 16 -22 3 -13 11 -22 17 -20 7 1 12 -7 12 -17 0
-10 7 -21 15 -25 17 -6 21 -46 4 -46 -5 0 0 -18 12 -40 12 -22 25 -38 27 -35
3 2 -3 16 -12 29 -18 29 -21 46 -6 46 6 0 10 -7 10 -16 0 -8 7 -22 15 -31 12
-11 13 -18 4 -29 -8 -10 -8 -22 0 -45 19 -55 12 -46 -30 35 -22 44 -51 94 -65
111 -26 34 -32 61 -11 49 13 -8 -13 23 -83 99 -47 51 -176 140 -247 171 -40
18 -57 36 -33 36 6 0 10 -5 10 -11z m4169 -1093 c27 -18 60 -27 131 -36 52 -6
94 -12 95 -13 0 -1 25 -29 55 -61 30 -33 44 -52 30 -42 -29 19 -44 21 -34 4 4
-7 3 -8 -5 -4 -6 4 -9 12 -6 17 8 12 -8 12 -20 0 -6 -5 -37 -5 -75 1 -36 5
-99 12 -140 14 -136 7 -295 23 -340 33 -28 6 -46 7 -48 1 -6 -17 -23 -11 -20
7 5 27 -95 45 -202 37 -148 -11 -82 3 120 25 107 12 227 25 265 30 126 15 156
13 194 -13z m-4575 -447 c-20 -46 -42 -99 -49 -118 l-12 -34 -11 29 c-6 16
-11 22 -11 13 -1 -14 -8 -13 -50 9 -27 15 -48 29 -46 31 3 2 -17 17 -43 34
-26 16 -48 31 -50 32 -2 2 1 13 7 24 11 20 14 19 79 -28 72 -52 102 -66 102
-50 0 6 6 9 12 7 13 -5 38 14 38 27 0 9 64 114 67 111 2 -1 -13 -40 -33 -87z"/>
<path d="M7300 5846 c-3 -2 -52 -7 -110 -10 -193 -12 -881 -121 -1080 -172
-105 -27 -163 -47 -292 -102 -95 -40 -95 -37 -13 -81 l40 -22 -30 26 c-16 14
-34 25 -38 25 -14 0 20 30 44 39 13 4 39 4 59 -1 19 -5 49 -12 65 -15 17 -3
35 -9 40 -13 6 -4 44 -15 86 -25 105 -24 435 -19 450 7 7 14 14 14 39 5 56
-21 432 19 459 49 3 4 -3 4 -14 1 -20 -7 -20 -7 -1 8 11 8 24 15 29 15 5 0 22
9 38 21 16 11 36 18 45 15 9 -4 18 3 24 19 7 18 14 23 26 18 11 -4 15 -2 11 4
-4 6 0 16 8 23 20 16 19 28 -2 33 -10 3 -2 5 17 6 42 1 140 59 140 82 0 10 6
19 13 22 6 2 10 7 7 10 -7 8 -55 19 -60 13z"/>
<path d="M4327 5537 c-23 -7 -35 -16 -30 -21 5 -5 2 -6 -6 -1 -8 4 -17 2 -22
-6 -14 -23 -10 -32 8 -18 15 13 15 12 5 -7 -14 -27 -2 -33 153 -69 60 -15 118
-33 127 -42 20 -18 98 -149 98 -164 0 -24 18 -3 42 49 15 31 37 68 49 81 l23
24 318 -6 319 -6 57 31 c31 17 102 55 157 84 55 30 96 54 91 54 -5 0 -70 -32
-146 -71 l-137 -72 -39 26 c-51 34 -106 53 -228 78 -112 23 -378 59 -386 52
-2 -2 2 -8 10 -13 13 -8 13 -10 -1 -10 -10 0 -20 -11 -23 -26 -5 -19 -12 -24
-29 -22 -20 3 -23 -3 -30 -59 -11 -79 -27 -82 -27 -4 0 50 -3 59 -20 64 -14 3
-20 14 -20 32 0 18 6 29 20 32 11 3 20 9 20 14 0 13 -308 9 -353 -4z"/>
<path d="M6860 4843 c-318 -14 -594 -42 -720 -74 -90 -23 -250 -97 -250 -116
0 -17 22 -17 575 10 248 13 451 20 453 17 5 -11 -78 -282 -108 -351 -37 -87
-29 -91 10 -5 43 94 150 459 150 510 0 10 -8 15 -22 14 -13 -1 -52 -3 -88 -5z"/>
<path d="M4205 4650 c-6 -10 15 -176 33 -260 7 -33 11 -35 50 -38 27 -2 59
-15 93 -37 112 -76 433 -144 902 -192 94 -9 173 -19 174 -22 2 -4 36 -5 75 -5
70 2 70 1 18 -5 -47 -5 -51 -7 -25 -12 17 -4 66 -6 110 -7 68 0 73 1 35 8
l-45 7 46 1 c25 1 67 -5 94 -14 39 -14 52 -15 68 -5 15 10 17 10 12 0 -5 -7
-3 -10 5 -7 8 2 15 9 17 15 5 14 -184 252 -256 322 -91 89 -88 88 -511 126
-96 9 -232 23 -302 31 -89 11 -133 12 -145 5 -14 -8 -9 -9 22 -6 28 3 33 2 16
-3 -17 -5 26 -15 145 -31 93 -13 171 -26 174 -29 3 -2 -69 -2 -160 1 -276 9
-523 64 -600 133 -23 21 -41 31 -45 24z"/>
</g>
</svg>
